<svg width="65" height="64" viewBox="0 0 65 64" fill="none" xmlns="http://www.w3.org/2000/svg">
<rect x="1.87305" y="1.58423" width="61.0399" height="61.0399" rx="19.24" fill="white"/>
<g clip-path="url(#clip0_303_1785)">
<rect x="3.30469" y="3.01367" width="58.3362" height="58.3362" rx="17.2848" fill="#181818"/>
<path d="M3.30469 20.5123C3.30469 10.8469 11.1401 3.01147 20.8055 3.01147H44.14C53.8055 3.01147 61.6409 10.8469 61.6409 20.5123V43.8468C61.6409 53.5122 53.8055 61.3476 44.14 61.3476H20.8055C11.1401 61.3476 3.30469 53.5122 3.30469 43.8468V20.5123Z" fill="#0D0D0D"/>
<path fill-rule="evenodd" clip-rule="evenodd" d="M50.5541 43.1882C52.1312 41.797 52.8904 39.9219 52.8904 37.6233C52.8904 34.9619 51.8391 33.0263 49.6779 31.6956C51.1966 30.4254 52.0143 28.7318 52.0143 26.4938C52.0143 21.8968 48.7433 19.0539 43.6618 19.0539H33.6738V45.3052H44.3627C46.9327 45.3052 48.977 44.5793 50.5541 43.1882ZM40.1572 25.0421V29.1552H43.4866C44.6547 29.1552 45.5309 28.4294 45.5309 27.0987C45.5309 25.8889 44.6547 25.0421 43.4866 25.0421H40.1572ZM46.4071 37.0789C46.4071 38.4097 45.4725 39.317 44.1875 39.317V39.2565H40.1572V34.841H44.1875C45.5309 34.841 46.4071 35.7483 46.4071 37.0789Z" fill="white"/>
<path fill-rule="evenodd" clip-rule="evenodd" d="M28.9354 43.1882C30.5125 41.797 31.2717 39.9219 31.2717 37.6233C31.2717 34.9619 30.2204 33.0263 28.0592 31.6956C29.5779 30.4254 30.3956 28.7318 30.3956 26.4938C30.3956 21.8968 27.1246 19.0539 22.0431 19.0539H12.0551V45.3052H22.744C25.314 45.3052 27.3583 44.5793 28.9354 43.1882ZM18.5385 25.0421V29.1552H21.8679C23.036 29.1552 23.9122 28.4294 23.9122 27.0987C23.9122 25.8889 23.036 25.0421 21.8679 25.0421H18.5385ZM24.7884 37.0789C24.7884 38.4097 23.8538 39.317 22.5688 39.317V39.2565H18.5385V34.841H22.5688C23.9122 34.841 24.7884 35.7483 24.7884 37.0789Z" fill="white"/>
</g>
<g opacity="0.5">
<mask id="mask0_303_1785" style="mask-type:alpha" maskUnits="userSpaceOnUse" x="1" y="1" width="62" height="62">
<rect x="1.87305" y="1.58423" width="61.0399" height="61.0399" rx="19.24" fill="white"/>
</mask>
<g mask="url(#mask0_303_1785)">
<path opacity="0.6" d="M16.5463 69.6672C14.1987 32.5737 47.6532 15.0834 64.674 10.9749L57.0441 -24.2404L-21.0166 -26.5881L-23.9512 69.6672C-9.47379 85.1228 18.894 106.761 16.5463 69.6672Z" fill="url(#paint0_linear_303_1785)"/>
</g>
</g>
<defs>
<linearGradient id="paint0_linear_303_1785" x1="40.5035" y1="42.3752" x2="-15.5218" y2="-3.54753" gradientUnits="userSpaceOnUse">
<stop stop-color="white"/>
<stop offset="1" stop-color="#999999" stop-opacity="0"/>
</linearGradient>
<clipPath id="clip0_303_1785">
<rect x="3.30469" y="3.01367" width="58.3362" height="58.3362" rx="17.2848" fill="white"/>
</clipPath>
</defs>
</svg>
