<svg width="63" height="63" viewBox="0 0 63 63" fill="none" xmlns="http://www.w3.org/2000/svg">
<rect x="0.257446" y="0.448914" width="62.0505" height="62.0505" rx="18.8341" fill="white"/>
<path d="M19.9414 3.00113H42.7836C52.2452 3.00113 59.9153 10.6712 59.9153 20.1328V42.975C59.9153 52.4366 52.2452 60.1067 42.7836 60.1067H19.9414C19.1039 60.1067 18.2804 60.0466 17.4751 59.9305C12.6947 59.2413 8.55257 56.5784 5.90122 52.7944C3.95297 50.0138 2.80969 46.6279 2.80969 42.975V20.1328C2.80969 10.6712 10.4798 3.00113 19.9414 3.00113Z" fill="#191B32"/>
<path d="M23.3706 53.6664L32.5482 53.6815V42.5058L41.7599 45.5205V36.532L39.4468 35.775L21.036 29.7497L14.2305 27.5225V36.511L14.5303 36.6091L23.3706 39.5023V45.6832V53.6664Z" fill="#C59BFD"/>
<path d="M39.3537 9.51149H30.1761V20.6712L20.9613 17.6555V24.8666V26.6449L21.3975 26.7877L23.1276 27.3539L41.6883 33.4282L48.4938 35.6554V33.8771V26.7009L39.3537 23.6747V9.51149Z" fill="#D5EC2C"/>
</svg>
