<svg width="65" height="65" viewBox="0 0 65 65" fill="none" xmlns="http://www.w3.org/2000/svg">
<rect x="1.87305" y="1.97437" width="61.0399" height="61.0399" rx="19.24" fill="white"/>
<path d="M3.30664 20.9105C3.30664 11.2451 11.142 3.40967 20.8075 3.40967H44.142C53.8074 3.40967 61.6428 11.2451 61.6428 20.9105V44.245C61.6428 53.9104 53.8074 61.7458 44.142 61.7458H20.8075C19.952 61.7458 19.1108 61.6844 18.2881 61.5658C13.4047 60.8618 9.17327 58.1414 6.46479 54.2759C4.47455 51.4354 3.30664 47.9766 3.30664 44.245V20.9105Z" fill="#C80B00"/>
<path fill-rule="evenodd" clip-rule="evenodd" d="M6.46479 54.2759C9.17327 58.1414 13.4047 60.8618 18.2881 61.5658L21.7681 46.7847H40.6128C41.52 46.7847 42.1012 46.2344 42.3571 45.1436L44.102 37.7297C44.2914 36.925 44.3286 36.4171 44.2049 36.2323C44.0812 36.0475 43.7352 35.9487 43.1613 35.9487H24.3203L25.356 31.5303C25.4729 31.0427 25.6329 30.5664 25.8342 30.1068C26.0447 29.6284 26.3426 29.193 26.7128 28.8227C27.1467 28.4022 27.6637 28.0759 28.231 27.8646C28.9919 27.5795 29.8017 27.4456 30.6144 27.4707H48.3088C48.7184 27.5049 49.1267 27.3913 49.4591 27.1507C49.7701 26.7994 49.9722 26.366 50.0409 25.903L51.9345 17.8474C52.1239 17.0414 52.1568 16.5608 52.0289 16.3929C51.901 16.2251 51.5506 16.139 50.9773 16.139H29.1912C26.9026 16.0984 24.6268 16.4859 22.4821 17.2814C20.6459 17.9712 18.9568 18.9992 17.5034 20.3114C16.1422 21.5558 15.0084 23.0258 14.1525 24.6558C13.3076 26.2442 12.6688 27.9329 12.2516 29.6814L6.46479 54.2759Z" fill="white"/>
<g opacity="0.5">
<mask id="mask0_303_1779" style="mask-type:alpha" maskUnits="userSpaceOnUse" x="1" y="1" width="62" height="63">
<rect x="1.87305" y="1.97437" width="61.0399" height="61.0399" rx="19.24" fill="white"/>
</mask>
<g mask="url(#mask0_303_1779)">
<path opacity="0.6" d="M16.5463 70.0573C14.1987 32.9638 47.6532 15.4735 64.674 11.365L57.0441 -23.8503L-21.0166 -26.198L-23.9512 70.0573C-9.47379 85.5129 18.894 107.151 16.5463 70.0573Z" fill="url(#paint0_linear_303_1779)"/>
</g>
</g>
<defs>
<linearGradient id="paint0_linear_303_1779" x1="40.5035" y1="42.7653" x2="-15.5218" y2="-3.15739" gradientUnits="userSpaceOnUse">
<stop stop-color="white"/>
<stop offset="1" stop-color="#999999" stop-opacity="0"/>
</linearGradient>
</defs>
</svg>
