<svg width="63" height="63" viewBox="0 0 63 63" fill="none" xmlns="http://www.w3.org/2000/svg">
<rect x="0.257446" y="0.512695" width="62.0505" height="62.0505" rx="18.8341" fill="white"/>
<path d="M2.80969 20.1966C2.80969 10.735 10.4798 3.06488 19.9414 3.06488H42.7836C52.2452 3.06488 59.9153 10.735 59.9153 20.1966V43.0388C59.9153 52.5004 52.2452 60.1705 42.7836 60.1705H19.9414C10.4798 60.1705 2.80969 52.5004 2.80969 43.0388V20.1966Z" fill="#131519"/>
<path d="M7.09261 31.6177C7.09261 18.2138 17.9586 7.3478 31.3625 7.3478C44.7664 7.3478 55.6324 18.2138 55.6324 31.6177C55.6324 45.0216 44.7664 55.8876 31.3625 55.8876C17.9586 55.8876 7.09261 45.0216 7.09261 31.6177Z" fill="white"/>
<path d="M9.54395 20.8061C12.9203 13.566 20.1859 8.19084 28.0896 7.3478L22.0841 18.3175C17.9767 19.252 13.7381 20.0504 9.56414 20.8061H9.54395ZM35.3755 7.39046C42.8814 8.60932 49.8138 13.6066 52.9498 20.5846L41.3386 18.4516C39.2607 14.8539 37.4069 11.0755 35.3755 7.39046ZM24.5114 22.4515C28.8832 22.1874 33.3864 22.4515 37.8027 22.3174L38.0652 22.5206L42.1726 35.0037C38.772 37.8884 34.8868 40.3789 31.3085 43.1335L20.4444 35.0037L24.5114 22.4292V22.4515ZM7.46806 27.6032L16.0786 36.7101L14.665 49.1486C8.87958 43.7734 6.01009 35.3755 7.46806 27.6053V27.6032ZM47.2977 36.7122L55.3347 27.9608C56.5463 35.3349 54.01 43.3306 48.6224 48.529C48.4204 44.5759 47.6935 40.6674 47.2977 36.7122ZM20.4484 53.2785L31.4882 47.9034L42.4391 53.0998C35.7712 56.7868 27.2052 56.7868 20.4282 53.2765L20.4484 53.2785Z" fill="#D6161B"/>
</svg>
