<svg width="63" height="63" viewBox="0 0 63 63" fill="none" xmlns="http://www.w3.org/2000/svg">
<rect x="0.182739" y="0.576599" width="62.0505" height="62.0505" rx="18.8341" fill="white"/>
<g clip-path="url(#clip0_4301_1037)">
<rect x="2.73486" y="3.12878" width="57.1056" height="57.1056" rx="16.9202" fill="#181818"/>
<path d="M37.9672 41.6773H45.5647V43.6998H43.014V49.8685H40.5156V43.6998H37.9672V41.6773Z" fill="white"/>
<path d="M19.5051 44.8344H20.8396C22.0649 44.8344 22.9736 45.0535 23.5657 45.4916C24.1579 45.9298 24.4539 46.6101 24.4539 47.5325C24.4539 48.2889 24.1829 48.8677 23.6409 49.2667C23.0989 49.668 22.32 49.8663 21.3042 49.8663H17.0113V41.6751H23.8208V43.3354H19.5051V44.8344ZM19.5051 48.109H20.785C21.5684 48.109 21.9601 47.8231 21.9601 47.2489C21.9601 46.7461 21.5684 46.4948 20.785 46.4948H19.5051V48.109Z" fill="white"/>
<path d="M27.858 41.6773H34.5559V43.4253H30.3632V44.7283H34.253V46.3979H30.3632V48.0121H34.6766V49.8685H27.858V41.6773Z" fill="white"/>
<path d="M17.0113 14.5499H27.3261L31.3065 30.4126L35.2534 14.5499H45.5641V39.5336H39.1419V20.7378L34.1914 39.5336H28.3755L23.4376 20.7378V39.5336H17.0113V14.5499Z" fill="#C9161D"/>
<path fill-rule="evenodd" clip-rule="evenodd" d="M19.8665 60.2344H42.7088C52.1703 60.2344 59.8405 52.5643 59.8405 43.1027V25.971L37.712 3.12878H19.8665C10.405 3.12878 2.73486 10.7989 2.73486 20.2605V43.1027C2.73486 52.5643 10.405 60.2344 19.8665 60.2344ZM45.5647 41.6773H37.9672V43.6998H40.5156V49.8685H43.014V43.6998H45.5647V41.6773ZM20.8396 44.8344H19.5051V43.3354H23.8208V41.6751H17.0113V49.8663H21.3042C22.32 49.8663 23.0989 49.668 23.6409 49.2667C24.1829 48.8677 24.4539 48.2889 24.4539 47.5325C24.4539 46.6101 24.1579 45.9298 23.5657 45.4916C22.9736 45.0535 22.0649 44.8344 20.8396 44.8344ZM34.5559 41.6773H27.858V49.8685H34.6766V48.0121H30.3632V46.3979H34.253V44.7283H30.3632V43.4253H34.5559V41.6773ZM27.3261 14.5499H17.0113V39.5336H23.4376V20.7378L28.3755 39.5336H34.1914L39.1419 20.7378V39.5336H45.5641V14.5499H35.2534L31.3065 30.4126L27.3261 14.5499Z" fill="white"/>
<path fill-rule="evenodd" clip-rule="evenodd" d="M59.8405 20.2605C59.8405 10.7989 52.1703 3.12878 42.7088 3.12878H37.712L59.8405 25.971V20.2605ZM47.8989 10.1694L50.811 7.35996L51.9715 8.56288C52.1818 8.7809 52.324 9.00702 52.3981 9.24123C52.474 9.47547 52.4805 9.70614 52.4178 9.93324C52.356 10.1594 52.2255 10.3685 52.0265 10.5606C51.8246 10.7554 51.6105 10.8768 51.3842 10.9249C51.1605 10.9718 50.9343 10.9507 50.7057 10.8615L50.1802 12.534L49.4394 11.7661L49.9225 10.2721L49.5747 9.91158L48.5779 10.8732L47.8989 10.1694ZM55.9004 12.6354L55.2228 11.933L53.4056 13.6861C53.3051 13.783 53.1941 13.8472 53.0724 13.8785C52.9507 13.9099 52.8292 13.9072 52.7079 13.8706C52.5874 13.8349 52.4764 13.7644 52.3749 13.6592C52.2734 13.554 52.2065 13.4401 52.1742 13.3175C52.142 13.1949 52.1437 13.0733 52.1794 12.9529C52.216 12.8334 52.2845 12.7251 52.385 12.6282L54.2022 10.8751L53.5232 10.1712L51.6448 11.9834C51.4278 12.1928 51.288 12.4264 51.2257 12.6843C51.1642 12.9412 51.1786 13.2046 51.2688 13.4745C51.3599 13.7435 51.5248 14.0017 51.7635 14.2491C51.9994 14.4937 52.2502 14.6663 52.5157 14.767C52.7822 14.8668 53.0454 14.8911 53.3053 14.8399C53.5661 14.7877 53.8051 14.6569 54.0221 14.4475L55.9004 12.6354Z" fill="#9DA7B3"/>
<path fill-rule="evenodd" clip-rule="evenodd" d="M37.9672 41.6773H45.5647V43.6998H43.014V49.8685H40.5156V43.6998H37.9672V41.6773ZM19.5051 44.8344H20.8396C22.0649 44.8344 22.9736 45.0535 23.5657 45.4916C24.1579 45.9298 24.4539 46.6101 24.4539 47.5325C24.4539 48.2889 24.1829 48.8677 23.6409 49.2667C23.0989 49.668 22.32 49.8663 21.3042 49.8663H17.0113V41.6751H23.8208V43.3354H19.5051V44.8344ZM27.858 41.6773H34.5559V43.4253H30.3632V44.7283H34.253V46.3979H30.3632V48.0121H34.6766V49.8685H27.858V41.6773ZM20.785 48.109H19.5051V46.4948H20.785C21.5684 46.4948 21.9601 46.7461 21.9601 47.2489C21.9601 47.8231 21.5684 48.109 20.785 48.109Z" fill="#1A2643"/>
<path d="M50.4639 9.72353C50.5664 9.8297 50.6656 9.90507 50.7617 9.94964C50.8596 9.99425 50.9549 10.0076 51.0474 9.9897C51.1409 9.97088 51.2327 9.91803 51.3227 9.83115C51.4128 9.74427 51.4694 9.654 51.4925 9.56033C51.5165 9.46575 51.5085 9.36826 51.4684 9.26787C51.4292 9.16656 51.3589 9.06329 51.2574 8.95807L50.9226 8.61113L50.1292 9.37659L50.4639 9.72353Z" fill="#9DA7B3"/>
</g>
<defs>
<clipPath id="clip0_4301_1037">
<rect x="2.73486" y="3.12878" width="57.1056" height="57.1056" rx="16.9202" fill="white"/>
</clipPath>
</defs>
</svg>
