<svg width="63" height="63" viewBox="0 0 63 63" fill="none" xmlns="http://www.w3.org/2000/svg">
<rect x="0.182739" y="0.321274" width="62.0505" height="62.0505" rx="18.8341" fill="white"/>
<rect x="2.73499" y="2.87347" width="57.1056" height="57.1056" rx="13.7476" fill="url(#paint0_linear_4301_985)"/>
<path d="M27.0901 27.8572L26.7585 29.4663L26.1109 32.5252C25.9798 32.8803 25.9875 32.9818 25.7485 33.1703C25.4863 33.3588 25.0314 33.3152 24.7153 33.3152L24.4069 34.9171C26.6275 35.0476 27.3522 34.475 27.5604 33.6124L28.4703 29.4663H30.1666L29.0486 34.9026H30.8374L32.287 27.8572H27.0901Z" fill="#363C3F"/>
<path d="M27.0901 27.8572L26.7585 29.4663L26.1109 32.5252C25.9798 32.8803 25.9875 32.9818 25.7485 33.1703C25.4863 33.3588 25.0314 33.3152 24.7153 33.3152L24.4069 34.9171C26.6275 35.0476 27.3522 34.475 27.5604 33.6124L28.4703 29.4663H30.1666L29.0486 34.9026H30.8374L32.287 27.8572H27.0901Z" fill="white"/>
<path d="M16.5184 34.9389H14.799L15.4621 31.7351L13.0178 34.9389H11.9384L10.8281 31.7351L10.165 34.9389H8.44556L9.90283 27.8572H11.63L13.0487 32.2062L16.2562 27.8572H17.9834L16.5184 34.9389Z" fill="#363C3F"/>
<path d="M16.5184 34.9389H14.799L15.4621 31.7351L13.0178 34.9389H11.9384L10.8281 31.7351L10.165 34.9389H8.44556L9.90283 27.8572H11.63L13.0487 32.2062L16.2562 27.8572H17.9834L16.5184 34.9389Z" fill="white"/>
<path d="M33.6129 33.3154H36.512C36.674 33.3154 36.8205 33.2646 36.9592 33.1559C37.0903 33.0472 37.1751 32.9167 37.206 32.7645C37.2368 32.6123 37.206 32.4745 37.1212 32.3731C37.0286 32.2644 36.9053 32.2136 36.7433 32.2136L34.8312 32.2209L35.1242 30.5972H37.0749C37.6994 30.5972 38.1929 30.8074 38.5476 31.2351C38.9023 31.6627 39.0179 32.1701 38.8946 32.7717C38.7712 33.3734 38.4396 33.8808 37.9153 34.3084C37.3833 34.7361 36.805 34.9463 36.1805 34.9463H31.5928L33.0578 27.8718H39.388L39.0565 29.4882H34.4148L33.6129 33.3154Z" fill="#FDBA01"/>
<path d="M45.2175 34.9316H38.8871L40.3519 27.8572H46.6822L46.3508 29.4736H41.7092L41.4776 30.5826H45.0631L44.7238 32.2062H41.1386L40.9071 33.3152H45.5489L45.2175 34.9316Z" fill="#FDBA01"/>
<path d="M53.7902 29.4736H51.2073L50.0816 34.9316H48.3853L49.511 29.4736H46.9281L47.2671 27.8572H54.1295L53.7902 29.4736Z" fill="#FDBA01"/>
<path d="M23.8129 34.9389H17.3593L18.8088 27.8572H25.2625L24.9309 29.4736H20.1967L19.9654 30.5898H23.6279L23.2963 32.2062H19.6338L19.4025 33.3225H24.1367L23.8129 34.9389Z" fill="#363C3F"/>
<path d="M23.8129 34.9389H17.3593L18.8088 27.8572H25.2625L24.9309 29.4736H20.1967L19.9654 30.5898H23.6279L23.2963 32.2062H19.6338L19.4025 33.3225H24.1367L23.8129 34.9389Z" fill="white"/>
<defs>
<linearGradient id="paint0_linear_4301_985" x1="31.2878" y1="2.87347" x2="31.2878" y2="59.9791" gradientUnits="userSpaceOnUse">
<stop stop-color="#38484F"/>
<stop offset="1" stop-color="#273138"/>
</linearGradient>
</defs>
</svg>
