<svg width="63" height="63" viewBox="0 0 63 63" fill="none" xmlns="http://www.w3.org/2000/svg">
<rect x="0.257446" y="0.385071" width="62.0505" height="62.0505" rx="18.8341" fill="white"/>
<rect x="2.80969" y="2.93729" width="57.1056" height="57.1056" rx="17.1317" fill="#DE323C"/>
<path d="M12.5138 19.9331C12.2816 19.7602 11.9493 19.8516 11.8376 20.1187L8.79757 27.3863C8.2352 28.7304 8.5443 30.2821 9.57848 31.3069L14.9994 36.6793L9.73798 36.6675C9.41873 36.667 9.20232 36.9932 9.32682 37.2881L12.5894 45.0166C12.988 45.961 13.7724 46.6879 14.743 47.0125L30.2343 52.1949C30.9666 52.4399 31.7584 52.4399 32.4907 52.1949L47.982 47.0125C48.9526 46.6879 49.737 45.961 50.1356 45.0166L53.3982 37.2881C53.5227 36.9932 53.3063 36.667 52.987 36.6675L47.7256 36.6793L53.1465 31.3069C54.1807 30.2821 54.4898 28.7304 53.9274 27.3863L50.8874 20.1187C50.7757 19.8516 50.4434 19.7602 50.2112 19.9331L46.5663 22.6466L46.5327 18.0218C46.5223 16.5944 45.6647 15.3104 44.3521 14.7563L36.7276 11.5386C36.4343 11.4146 36.1094 11.6308 36.1094 11.95V14.9842C36.1094 16.0958 36.6258 17.1439 37.5064 17.8198L45.3692 23.8539V36.6793L31.3625 48.8851L17.3558 36.6793V23.8539L25.2186 17.8198C26.0992 17.1439 26.6156 16.0958 26.6156 14.9842V11.95C26.6156 11.6308 26.2907 11.4146 25.9974 11.5386L18.3729 14.7563C17.0603 15.3104 16.2027 16.5944 16.1923 18.0218L16.1587 22.6466L12.5138 19.9331Z" fill="#FFCC00"/>
</svg>
