<svg width="63" height="63" viewBox="0 0 63 63" fill="none" xmlns="http://www.w3.org/2000/svg">
<rect x="0.257446" y="0.576599" width="62.0505" height="62.0505" rx="18.8341" fill="white"/>
<rect x="2.80957" y="3.12878" width="57.1056" height="57.1056" rx="16.9202" fill="#181818"/>
<path d="M49.8493 23.8709L35.9457 23.875L34.6808 27.7933H44.4037L31.8861 36.2865C30.9271 36.9371 30.7403 38.2797 31.4836 39.1699C32.1243 39.9383 33.2393 40.0953 34.0648 39.5355L46.6994 30.9638L43.9252 39.55H48.3627L52.3216 27.2913C52.8658 25.6018 51.6153 23.8709 49.8493 23.8709Z" fill="#00C7B1"/>
<path d="M15.7237 23.8709L10.66 39.5479H15.0975L18.8942 27.7933H27.96L21.7875 31.9821C20.8942 32.5872 20.5944 33.8162 21.1879 34.7188C21.7957 35.6442 23.0175 35.8734 23.9066 35.2703L31.5966 30.0529C34.3441 28.1878 33.032 23.873 29.7178 23.875L15.7237 23.8709Z" fill="white"/>
</svg>
