<svg width="63" height="63" viewBox="0 0 63 63" fill="none" xmlns="http://www.w3.org/2000/svg">
<rect x="0.257446" y="0.640442" width="62.0505" height="62.0505" rx="18.8341" fill="white"/>
<g clip-path="url(#clip0_4301_1044)">
<rect x="2.80969" y="3.19263" width="57.1056" height="57.1056" rx="16.9202" fill="#181818"/>
<g clip-path="url(#clip1_4301_1044)">
<path fill-rule="evenodd" clip-rule="evenodd" d="M60.0327 29.9732V43.2488C60.0327 47.8127 58.2518 51.9606 55.3469 55.0355C54.5425 55.1831 53.7134 55.2602 52.8663 55.2602C51.433 55.2602 50.0512 55.0394 48.7532 54.63C43.2202 52.8847 39.2084 47.712 39.2084 41.6022C39.2084 34.0592 45.3233 27.9443 52.8663 27.9443C55.4946 27.9443 57.9495 28.6867 60.0327 29.9732Z" fill="#EFDE00"/>
<path fill-rule="evenodd" clip-rule="evenodd" d="M60.0327 29.9732V43.2488C60.0327 47.8127 58.2518 51.9606 55.3469 55.0355C54.5425 55.1831 53.7134 55.2602 52.8663 55.2602C51.433 55.2602 50.0512 55.0394 48.7532 54.63C43.2202 52.8847 39.2084 47.712 39.2084 41.6022C39.2084 34.0592 45.3233 27.9443 52.8663 27.9443C55.4946 27.9443 57.9495 28.6867 60.0327 29.9732Z" fill="#EFDE00"/>
<path d="M27.9694 49.322V22.695H17.8307V16.0678H45.6402V22.695H35.5478V49.322H27.9694Z" fill="white"/>
<path fill-rule="evenodd" clip-rule="evenodd" d="M19.9766 3.19263C10.4956 3.19263 2.80969 10.8785 2.80969 20.3595V43.2488C2.80969 52.7298 10.4956 60.4157 19.9766 60.4157H42.8658C47.7829 60.4157 52.2172 58.3484 55.3469 55.0355C54.5425 55.1831 53.7134 55.2602 52.8663 55.2602C51.433 55.2602 50.0512 55.0394 48.7532 54.63C43.2202 52.8847 39.2084 47.712 39.2084 41.6022C39.2084 34.0592 45.3233 27.9443 52.8663 27.9443C55.4946 27.9443 57.9495 28.6867 60.0327 29.9732V20.3595C60.0327 10.8785 52.3468 3.19263 42.8658 3.19263H19.9766ZM27.9694 22.695V49.322H35.5478V22.695H45.6402V16.0678H17.8307V22.695H27.9694Z" fill="#A6192E"/>
</g>
</g>
<defs>
<clipPath id="clip0_4301_1044">
<rect x="2.80969" y="3.19263" width="57.1056" height="57.1056" rx="16.9202" fill="white"/>
</clipPath>
<clipPath id="clip1_4301_1044">
<rect width="57.1056" height="57.1056" fill="white" transform="translate(2.80969 3.19263)"/>
</clipPath>
</defs>
</svg>
