<svg width="65" height="64" viewBox="0 0 65 64" fill="none" xmlns="http://www.w3.org/2000/svg">
<rect x="1.87305" y="1.37695" width="61.0399" height="61.0399" rx="19.24" fill="white"/>
<g clip-path="url(#clip0_303_1773)">
<path d="M17.8468 25.4947C17.749 25.2152 17.6936 24.9223 17.6827 24.6261C17.6827 24.2191 17.7966 23.9434 18.1236 23.7172C18.3405 23.5679 18.7408 23.5638 19.1816 23.5593C19.2743 23.5584 19.3689 23.5575 19.4639 23.5551L19.5255 23.5537C20.425 23.5326 20.7947 23.5239 21.1045 24.3441C21.1045 24.3441 23.5778 34.3842 23.6485 34.7447L23.7103 35.0605C23.7538 35.2827 23.7913 35.4747 23.8238 35.6361C23.8711 35.371 23.9257 35.0814 23.9879 34.7675C24.0505 34.4576 26.4325 27.7597 26.4325 27.7597C26.5577 27.2598 26.8755 27.013 27.2354 26.856C27.3475 26.7995 27.4701 26.7679 27.5953 26.763H28.8822L28.9482 26.7628C29.1498 26.7619 29.341 26.7611 29.4872 26.8385C29.6852 26.9259 29.8599 27.0594 29.9968 27.228C30.1337 27.3965 30.2289 27.5954 30.2747 27.8082C30.2747 27.8082 32.8136 34.5082 32.8833 34.8314C32.953 35.1548 33.0044 35.415 33.0361 35.6185C33.0668 35.4305 33.1137 35.1896 33.1766 34.8955C33.2381 34.5671 35.8016 24.3545 35.8016 24.3545C36.1217 23.6022 36.4098 23.605 37.1817 23.6123C37.263 23.6131 37.3496 23.6139 37.4423 23.6139C37.5464 23.6139 37.6416 23.6121 37.7298 23.6104C38.1055 23.6032 38.3524 23.5985 38.604 23.7482C38.9722 23.9672 39.0593 24.2842 39.0593 24.6601C39.0582 24.8017 39.0465 24.9428 39.0244 25.0826C38.998 25.2508 38.9547 25.4158 38.8952 25.5752L36.9613 32.2019L35.0274 38.8285C34.9806 39.0073 34.8926 39.1726 34.7706 39.3108C34.6486 39.4489 34.4959 39.5562 34.325 39.6238C34.2041 39.6746 34.0746 39.7016 33.9436 39.7033H32.2188C32.017 39.7155 31.8151 39.6801 31.6292 39.6C31.4593 39.5148 31.3101 39.3928 31.1926 39.2425C31.075 39.0924 30.9919 38.9178 30.9494 38.7315C30.9494 38.7315 28.4106 31.0564 28.3951 30.9161C28.3787 31.0411 25.7701 38.8016 25.7701 38.8016C25.726 38.9855 25.6373 39.1555 25.512 39.2965C25.3869 39.4373 25.2289 39.5449 25.0524 39.6093C24.9473 39.6518 24.8353 39.6739 24.7221 39.6744H22.8764C22.7138 39.6672 22.5545 39.6267 22.4078 39.5556C22.0673 39.3883 21.8654 39.097 21.7402 38.7067L17.8468 25.4947Z" fill="white"/>
<path fill-rule="evenodd" clip-rule="evenodd" d="M17.8468 25.4947C17.749 25.2152 17.6936 24.9223 17.6827 24.6261C17.6827 24.2191 17.7966 23.9434 18.1236 23.7172C18.3405 23.5679 18.7408 23.5638 19.1816 23.5593C19.2743 23.5584 19.3689 23.5575 19.4639 23.5551L19.5255 23.5537C20.425 23.5326 20.7947 23.5239 21.1045 24.3441C21.1045 24.3441 23.5778 34.3842 23.6485 34.7447L23.7103 35.0605C23.7538 35.2827 23.7913 35.4747 23.8238 35.6361C23.8711 35.371 23.9257 35.0814 23.9879 34.7675C24.0505 34.4576 26.4325 27.7597 26.4325 27.7597C26.5577 27.2598 26.8755 27.013 27.2354 26.856C27.3475 26.7995 27.4701 26.7679 27.5953 26.763H28.8822L28.9482 26.7628C29.1498 26.7619 29.341 26.7611 29.4872 26.8385C29.6852 26.9259 29.8599 27.0594 29.9968 27.228C30.1337 27.3965 30.2289 27.5954 30.2747 27.8082C30.2747 27.8082 32.8136 34.5082 32.8833 34.8314C32.953 35.1548 33.0044 35.415 33.0361 35.6185C33.0668 35.4305 33.1137 35.1896 33.1766 34.8955C33.2381 34.5671 35.8016 24.3545 35.8016 24.3545C36.1217 23.6022 36.4098 23.605 37.1817 23.6123C37.263 23.6131 37.3496 23.6139 37.4423 23.6139C37.5464 23.6139 37.6416 23.6121 37.7298 23.6104C38.1055 23.6032 38.3524 23.5985 38.604 23.7482C38.9722 23.9672 39.0593 24.2842 39.0593 24.6601C39.0582 24.8017 39.0465 24.9428 39.0244 25.0826C38.998 25.2508 38.9547 25.4158 38.8952 25.5752L36.9613 32.2019L35.0274 38.8285C34.9806 39.0073 34.8926 39.1726 34.7706 39.3108C34.6486 39.4489 34.4959 39.5562 34.325 39.6238C34.2041 39.6746 34.0746 39.7016 33.9436 39.7033H32.2188C32.017 39.7155 31.8151 39.6801 31.6292 39.6C31.4593 39.5148 31.3101 39.3928 31.1926 39.2425C31.075 39.0924 30.9919 38.9178 30.9494 38.7315C30.9494 38.7315 28.4106 31.0564 28.3951 30.9161C28.3787 31.0411 25.7701 38.8016 25.7701 38.8016C25.726 38.9855 25.6373 39.1555 25.512 39.2965C25.3869 39.4373 25.2289 39.5449 25.0524 39.6093C24.9473 39.6518 24.8353 39.6739 24.7221 39.6744H22.8764C22.7138 39.6672 22.5545 39.6267 22.4078 39.5556C22.0673 39.3883 21.8654 39.097 21.7402 38.7067L17.8468 25.4947Z" fill="white"/>
<path d="M43.9616 60.9477H43.9832C52.4086 60.9477 59.4368 54.9657 61.0524 47.0172C61.0152 47.1986 60.9751 47.3794 60.9323 47.5598L60.9094 47.6582H46.0157C45.9262 47.801 45.9013 47.8386 45.8334 47.9409C45.8198 47.9616 45.8061 47.9822 45.7924 48.0028C45.7837 48.016 45.7749 48.0292 45.7661 48.0424C42.6114 52.8162 38.1275 56.5369 32.8814 58.7341C31.7596 59.2039 27.409 60.3792 22.1972 60.9456C25.8046 60.9449 30.1425 60.9453 32.4395 60.9455C32.4482 60.9455 32.4568 60.9455 32.4654 60.9455C32.4771 60.9455 32.4888 60.9455 32.5003 60.9455C32.5135 60.9455 32.5266 60.9455 32.5397 60.9455C32.5534 60.9455 32.5671 60.9455 32.5807 60.9455C32.5882 60.9455 32.5956 60.9455 32.6031 60.9455C32.6134 60.9455 32.6237 60.9455 32.6339 60.9455C32.6395 60.9455 32.645 60.9455 32.6505 60.9455C32.6595 60.9455 32.6685 60.9455 32.6774 60.9455C32.6881 60.9455 32.6988 60.9455 32.7093 60.9455C32.7149 60.9455 32.7205 60.9455 32.7261 60.9455C32.7347 60.9455 32.7433 60.9455 32.7519 60.9455C32.7619 60.9455 32.7719 60.9455 32.7819 60.9455C32.7924 60.9455 32.8029 60.9455 32.8134 60.9455C32.8187 60.9455 32.824 60.9455 32.8293 60.9455H32.8134H32.7819H32.7519H32.7261H32.7093H32.6774H32.6505H32.6339H32.6031H32.5807H32.5397H32.5003H32.4654H32.4395L22.1972 60.9456L20.7584 60.9477H43.9616L35.9233 60.9469C35.4277 60.9481 34.9416 60.9477 34.4668 60.9468L32.8373 60.9455L33.9392 60.9456L34.4668 60.9468L35.9233 60.9469L43.9616 60.9477Z" fill="#2C2C2C"/>
<path d="M43.9616 2.88574L21.8946 2.88574C29.509 2.88574 36.8115 5.94415 42.1956 11.3881C43.5815 12.7894 44.811 14.3191 45.8729 15.9497H60.8113C60.2631 13.8087 59.3198 11.8269 58.0633 10.0876C54.8995 5.72377 49.7618 2.88574 43.9616 2.88574Z" fill="#2C2C2C"/>
<path fill-rule="evenodd" clip-rule="evenodd" d="M3.33984 20.3043C3.33984 10.6843 11.1343 2.88574 20.7492 2.88574H20.7584C11.1384 2.88574 3.33984 10.6843 3.33984 20.3043ZM3.33984 43.5291C3.33984 53.067 11.0018 60.8144 20.5033 60.946C20.5851 60.9471 20.6671 60.9477 20.7492 60.9477H20.7584H43.9616L35.9233 60.9469L34.4668 60.9468L33.9392 60.9456L32.8373 60.9455H32.8293H32.8134H32.7819H32.7519H32.7261H32.7093H32.6774H32.6505H32.6339H32.6031H32.5807H32.5397H32.5003H32.4654H32.4395C30.1425 60.9453 25.8046 60.9449 22.1972 60.9456L20.512 60.946C11.0056 60.8142 3.33984 53.0668 3.33984 43.5291ZM43.9832 2.88574C49.7865 2.88574 54.9107 5.72376 58.0633 10.0876C54.8995 5.72377 49.7618 2.88574 43.9616 2.88574H43.9832ZM44.1407 27.5387H42.7278C42.4841 27.5387 42.2503 27.6358 42.0774 27.8089C41.9045 27.9818 41.8066 28.2167 41.805 28.4621L41.7721 39.0032C41.7721 39.1257 41.7962 39.2472 41.8429 39.3603C41.8898 39.4735 41.9582 39.5762 42.0446 39.6627C42.131 39.749 42.2334 39.8173 42.346 39.8637C42.4588 39.9101 42.5794 39.9335 42.7012 39.9327H44.1367C44.2584 39.9335 44.3791 39.9101 44.4917 39.8637C44.6045 39.8173 44.7069 39.749 44.7932 39.6627C44.8796 39.5762 44.9481 39.4735 44.9949 39.3603C45.0416 39.2472 45.0657 39.1257 45.0657 39.0032V28.459C45.0633 28.2137 44.9647 27.9794 44.7915 27.807C44.6182 27.6347 44.3844 27.5382 44.1407 27.5387ZM44.7887 25.9503C44.9615 25.7776 45.0596 25.543 45.0616 25.2978L45.0688 24.1957C45.0668 23.9505 44.9687 23.7159 44.7959 23.543C44.623 23.3703 44.3894 23.2734 44.1459 23.2734H42.7278C42.4843 23.2734 42.2505 23.3703 42.0777 23.543C41.9048 23.7159 41.8068 23.9505 41.8049 24.1957V25.2978C41.8068 25.543 41.9048 25.7776 42.0777 25.9503C42.2505 26.1232 42.4843 26.2201 42.7278 26.2201H44.1387C44.3822 26.2201 44.6158 26.1232 44.7887 25.9503Z" fill="white"/>
<path d="M3.33984 20.3043V43.5291C3.33984 53.0668 11.0056 60.8142 20.512 60.946L22.1972 60.9456C27.409 60.3792 31.7596 59.2039 32.8814 58.7341C38.1275 56.5369 42.6114 52.8162 45.7661 48.0424L45.7924 48.0028L45.8334 47.9409C45.8948 47.8471 45.9554 47.7527 46.0157 47.6582L24.8969 47.6858C16.1963 47.6858 9.14295 40.5814 9.14295 31.8177C9.14295 23.0541 16.1963 15.9497 24.8969 15.9497H45.8729C44.811 14.3191 43.5815 12.7894 42.1956 11.3881C36.8115 5.94415 29.509 2.88574 21.8946 2.88574L20.7584 2.88574C11.1384 2.88574 3.33984 10.6843 3.33984 20.3043Z" fill="#FF6A13"/>
<path fill-rule="evenodd" clip-rule="evenodd" d="M61.4018 43.5291L61.3572 20.3043C61.3572 19.878 61.3419 19.4552 61.312 19.0365H46.8208L24.8975 19.0114C23.228 19.0114 21.5748 19.3426 20.0324 19.9861C18.49 20.6297 17.0885 21.5729 15.9079 22.762C14.7274 23.9511 13.7909 25.3627 13.152 26.9163C12.5131 28.4699 12.1843 30.1351 12.1843 31.8168C12.1843 33.4984 12.5131 35.1636 13.152 36.7172C13.7909 38.2708 14.7274 39.6824 15.9079 40.8716C17.0885 42.0606 18.49 43.0039 20.0324 43.6474C21.5748 44.2909 23.228 44.6222 24.8975 44.6222H61.368C61.3904 44.2607 61.4018 43.8962 61.4018 43.5291ZM17.6827 24.6261C17.6936 24.9223 17.749 25.2152 17.8468 25.4947L21.7402 38.7067C21.8654 39.097 22.0673 39.3883 22.4078 39.5556C22.5545 39.6267 22.7138 39.6672 22.8764 39.6744H24.7221C24.8353 39.6739 24.9473 39.6518 25.0524 39.6093C25.2289 39.5449 25.3869 39.4373 25.512 39.2965C25.6373 39.1555 25.726 38.9855 25.7701 38.8016C25.7701 38.8016 28.3787 31.0411 28.3951 30.9161C28.4106 31.0564 30.9494 38.7315 30.9494 38.7315C30.9919 38.9178 31.075 39.0924 31.1926 39.2425C31.3101 39.3928 31.4593 39.5148 31.6292 39.6C31.8151 39.6801 32.017 39.7155 32.2188 39.7033H33.9436C34.0746 39.7016 34.2041 39.6746 34.325 39.6238C34.4959 39.5562 34.6486 39.4489 34.7706 39.3108C34.8926 39.1726 34.9806 39.0073 35.0274 38.8285L36.9613 32.2019L38.8952 25.5752C38.9547 25.4158 38.998 25.2508 39.0244 25.0826C39.0465 24.9428 39.0582 24.8017 39.0593 24.6601C39.0593 24.2842 38.9722 23.9672 38.604 23.7482C38.3524 23.5985 38.1055 23.6032 37.7298 23.6104C37.6416 23.6121 37.5464 23.6139 37.4423 23.6139C37.3496 23.6139 37.263 23.6131 37.1817 23.6123C36.4098 23.605 36.1217 23.6022 35.8016 24.3545C35.8016 24.3545 33.2381 34.5671 33.1766 34.8955C33.1137 35.1896 33.0668 35.4305 33.0361 35.6185C33.0044 35.415 32.953 35.1548 32.8833 34.8314C32.8136 34.5082 30.2747 27.8082 30.2747 27.8082C30.2289 27.5954 30.1337 27.3965 29.9968 27.228C29.8599 27.0594 29.6852 26.9259 29.4872 26.8385C29.341 26.7611 29.1498 26.7619 28.9482 26.7628L28.8822 26.763H27.5953C27.4701 26.7679 27.3475 26.7995 27.2354 26.856C26.8755 27.013 26.5577 27.2598 26.4325 27.7597C26.4325 27.7597 24.0505 34.4576 23.9879 34.7675C23.9257 35.0814 23.8711 35.371 23.8238 35.6361C23.7913 35.4747 23.7538 35.2827 23.7103 35.0605L23.6485 34.7447C23.5778 34.3842 21.1045 24.3441 21.1045 24.3441C20.7947 23.5239 20.425 23.5326 19.5255 23.5537L19.4639 23.5551C19.3689 23.5575 19.2743 23.5584 19.1816 23.5593C18.7408 23.5638 18.3405 23.5679 18.1236 23.7172C17.7966 23.9434 17.6827 24.2191 17.6827 24.6261ZM44.7887 25.9503C44.9615 25.7776 45.0596 25.543 45.0616 25.2978L45.0688 24.1957C45.0668 23.9505 44.9687 23.7159 44.7959 23.543C44.623 23.3703 44.3894 23.2734 44.1459 23.2734H42.7278C42.4843 23.2734 42.2505 23.3703 42.0777 23.543C41.9048 23.7159 41.8068 23.9505 41.8049 24.1957V25.2978C41.8068 25.543 41.9048 25.7776 42.0777 25.9503C42.2505 26.1232 42.4843 26.2201 42.7278 26.2201H44.1387C44.3822 26.2201 44.6158 26.1232 44.7887 25.9503ZM59.0009 28.8051C59.3991 29.318 59.6502 29.9309 59.7269 30.5775C59.802 31.1891 59.8407 31.8048 59.8428 32.4211V39.0549C59.8419 39.2982 59.7453 39.5313 59.5739 39.7028C59.4026 39.8744 59.1707 39.9705 58.9291 39.97H57.5243C57.4048 39.9703 57.2862 39.9468 57.1757 39.9009C57.0651 39.8552 56.9646 39.7878 56.8798 39.7028C56.7952 39.6179 56.7278 39.5169 56.6818 39.4057C56.6357 39.2945 56.6119 39.1754 56.6117 39.0549V32.4769C56.6117 31.7869 56.542 31.2808 56.4015 30.971C56.279 30.6757 56.0479 30.4395 55.7565 30.312C55.277 30.1279 54.7572 30.0777 54.2517 30.1668C53.7463 30.2559 53.2742 30.4809 52.8854 30.818C52.6949 30.996 52.5365 31.2056 52.4168 31.4378C52.3168 31.6328 52.2381 31.8381 52.1819 32.0503C52.0995 32.3652 52.056 32.6893 52.0528 33.0149C52.0452 33.3757 52.0414 33.6815 52.0414 33.9321V39.0508C52.0407 39.2942 51.9439 39.5272 51.7726 39.6988C51.6014 39.8703 51.3694 39.9664 51.1278 39.9659H50.6866H49.7199C49.4784 39.9664 49.2464 39.8703 49.075 39.6988C48.9038 39.5272 48.8071 39.2942 48.8063 39.0508V28.3785C48.8071 28.1404 48.9018 27.9124 49.0694 27.7444C49.2371 27.5766 49.4641 27.4826 49.7004 27.4831H51.0756C51.1926 27.4828 51.3085 27.5058 51.4167 27.5506C51.459 27.5681 51.4999 27.5889 51.5389 27.6127C51.5995 27.6497 51.6557 27.6939 51.7062 27.7445C51.7891 27.8277 51.855 27.9265 51.9 28.0353C51.945 28.144 51.9683 28.2607 51.9687 28.3785V29.1336C52.3425 28.6074 52.8266 28.1705 53.3868 27.8539C54.0041 27.4862 54.7349 27.3024 55.5791 27.3024C56.3912 27.3024 57.067 27.4314 57.6063 27.6897C58.1485 27.9512 58.6251 28.3325 59.0009 28.8051ZM42.7278 27.5387H44.1407C44.3844 27.5382 44.6182 27.6347 44.7915 27.807C44.9647 27.9794 45.0633 28.2137 45.0657 28.459V39.0032C45.0657 39.1257 45.0416 39.2472 44.9949 39.3603C44.9481 39.4735 44.8796 39.5762 44.7932 39.6627C44.7069 39.749 44.6045 39.8173 44.4917 39.8637C44.3791 39.9101 44.2584 39.9335 44.1367 39.9327H42.7012C42.5794 39.9335 42.4588 39.9101 42.346 39.8637C42.2334 39.8173 42.131 39.749 42.0446 39.6627C41.9582 39.5762 41.8898 39.4735 41.8429 39.3603C41.7962 39.2472 41.7721 39.1257 41.7721 39.0032L41.805 28.4621C41.8066 28.2167 41.9045 27.9818 42.0774 27.8089C42.2503 27.6358 42.4841 27.5387 42.7278 27.5387Z" fill="#2C2C2C"/>
</g>
<g opacity="0.5">
<mask id="mask0_303_1773" style="mask-type:alpha" maskUnits="userSpaceOnUse" x="1" y="1" width="62" height="62">
<rect x="1.87305" y="1.37695" width="61.0399" height="61.0399" rx="19.24" fill="white"/>
</mask>
<g mask="url(#mask0_303_1773)">
<path opacity="0.6" d="M16.5463 69.4599C14.1987 32.3664 47.6532 14.8761 64.674 10.7676L57.0441 -24.4477L-21.0166 -26.7954L-23.9512 69.4599C-9.47379 84.9155 18.894 106.553 16.5463 69.4599Z" fill="url(#paint0_linear_303_1773)"/>
</g>
</g>
<defs>
<linearGradient id="paint0_linear_303_1773" x1="40.5035" y1="42.1679" x2="-15.5218" y2="-3.7548" gradientUnits="userSpaceOnUse">
<stop stop-color="white"/>
<stop offset="1" stop-color="#999999" stop-opacity="0"/>
</linearGradient>
<clipPath id="clip0_303_1773">
<rect x="3.33984" y="2.88574" width="58.0619" height="58.0619" rx="17.4186" fill="white"/>
</clipPath>
</defs>
</svg>
