<svg width="63" height="63" viewBox="0 0 63 63" fill="none" xmlns="http://www.w3.org/2000/svg">
<rect x="0.182739" y="0.385071" width="62.0505" height="62.0505" rx="18.8341" fill="white"/>
<rect x="2.73499" y="2.93729" width="57.1056" height="57.1056" rx="17.1317" fill="#001D4A"/>
<path d="M23.6599 34.3558C23.6081 34.442 23.5628 34.532 23.5245 34.6249C23.2578 35.1586 23.2092 35.7752 23.3891 36.344C24.3569 35.544 25.443 34.8991 26.6087 34.4325C25.6379 34.2336 24.6396 34.2076 23.6599 34.3558Z" fill="#C4AC70"/>
<path d="M24.6026 37.575C24.8679 37.6923 25.1444 37.7824 25.4278 37.8441C25.7256 36.8362 26.1325 35.8638 26.6413 34.9442C25.5421 35.3905 24.5187 36.0046 23.6077 36.7644C23.8555 37.1237 24.2006 37.4049 24.6026 37.575Z" fill="#C4AC70"/>
<path d="M28.0259 37.6943C27.672 36.6994 27.385 35.8057 27.1664 35.0309C26.6358 35.9378 26.2169 36.9054 25.9187 37.9129C26.6285 37.9623 27.3414 37.8884 28.0259 37.6943Z" fill="#C4AC70"/>
<path d="M26.9644 31.9614C27.0492 32.4833 27.1829 33.1243 27.3851 33.8827C27.9978 33.1087 28.6869 32.3984 29.4418 31.7624C28.6114 31.6464 27.7656 31.7143 26.9644 31.9614Z" fill="#C4AC70"/>
<path d="M36.3194 40.5931C35.718 39.9362 35.0821 39.3117 34.4144 38.7224C33.3748 40.1757 31.9249 41.2854 30.2505 41.9093C30.6713 42.8879 31.1606 43.9154 31.6841 45.0082C33.7257 44.1661 35.379 42.5914 36.3194 40.5931Z" fill="#C4AC70"/>
<path d="M30.4528 32.0625C30.3354 32.0119 30.2 31.9614 30.0646 31.9108C29.2915 32.5108 28.585 33.1921 27.9574 33.943C29.1671 33.5758 30.4192 33.3664 31.6826 33.32L31.6663 33.2857C31.5609 33.0083 31.3984 32.756 31.1894 32.5453C30.9804 32.3346 30.7294 32.1701 30.4528 32.0625Z" fill="#C4AC70"/>
<path d="M34.0443 38.4023C33.1454 37.6537 32.1931 36.9718 31.1949 36.362C30.4955 37.0822 29.6425 37.6353 28.6995 37.9799H28.6653C29.0535 39.0254 29.5085 40.172 30.0484 41.436C31.6608 40.8601 33.0563 39.8007 34.0443 38.4023Z" fill="#C4AC70"/>
<path d="M29.5932 41.6379C29.0371 40.3559 28.582 39.211 28.1938 38.1655C27.4076 38.3998 26.5836 38.4801 25.7669 38.402C25.4437 39.5571 25.2071 40.7347 25.0591 41.9249C26.5693 42.2308 28.1336 42.1318 29.5932 41.6379Z" fill="#C4AC70"/>
<path d="M43.788 18.5941C44.0539 18.3911 44.2772 18.1376 44.4451 17.8482C44.613 17.5589 44.7223 17.2392 44.7666 16.9076V16.8571H44.7829C44.8396 16.2067 44.6537 15.5584 44.261 15.0369C44.058 14.771 43.8045 14.5477 43.5151 14.3798C43.2258 14.2118 42.9061 14.1026 42.5745 14.0583H42.524C41.8749 13.9877 41.2235 14.1686 40.7038 14.5639C40.17 14.9768 39.8188 15.582 39.7252 16.2503V16.3172C39.6488 16.9767 39.8364 17.6397 40.2471 18.1613C40.6578 18.6829 41.2582 19.0208 41.9172 19.1013H41.9678V19.1176C42.6191 19.1821 43.2705 18.9948 43.788 18.5941ZM40.8522 17.6497C40.5919 17.288 40.4667 16.8465 40.4983 16.402L40.5146 16.3678V16.3515C40.5735 15.8999 40.8079 15.4898 41.167 15.2098C41.5287 14.9495 41.9702 14.8243 42.4147 14.8559L42.4653 14.8722C42.9168 14.9311 43.3269 15.1655 43.6069 15.5246C43.8672 15.8863 43.9925 16.3278 43.9609 16.7723L43.9446 16.8228C43.9188 17.0474 43.8477 17.2644 43.7356 17.4606C43.6234 17.6569 43.4726 17.8283 43.2922 17.9645C42.9315 18.227 42.4892 18.3524 42.0445 18.3184L42.0102 18.3021H41.9939C41.7696 18.2762 41.5529 18.205 41.357 18.0928C41.161 17.9807 40.9898 17.83 40.8538 17.6497H40.8522Z" fill="#C4AC70"/>
<path d="M16.7477 22.5714C16.7477 23.1249 16.9118 23.666 17.2194 24.1263C17.5269 24.5865 17.964 24.9452 18.4754 25.1571C18.9868 25.3689 19.5496 25.4243 20.0925 25.3163C20.6354 25.2084 21.1341 24.9418 21.5255 24.5504C21.9169 24.159 22.1834 23.6603 22.2914 23.1174C22.3994 22.5745 22.344 22.0117 22.1322 21.5003C21.9203 20.9889 21.5616 20.5518 21.1014 20.2443C20.6411 19.9367 20.1 19.7726 19.5464 19.7726C18.8044 19.7734 18.0931 20.0686 17.5684 20.5933C17.0437 21.118 16.7485 21.8293 16.7477 22.5714Z" fill="#C4AC70"/>
<path d="M23.4739 41.8903C22.5533 41.4728 21.7532 40.8292 21.1481 40.0196C20.9017 40.5597 20.7152 41.1252 20.5919 41.706C21.4995 43.1121 22.7904 44.2292 24.3122 44.9256C24.3464 44.9419 24.397 44.9598 24.4296 44.9761C24.4044 44.0757 24.4381 43.1745 24.5307 42.2785C24.1665 42.1842 23.8125 42.0542 23.4739 41.8903Z" fill="#C4AC70"/>
<path d="M37.0108 35.0293C36.549 34.7748 36.0634 34.5661 35.5609 34.4062C35.5945 34.6522 35.6114 34.9001 35.6115 35.1483C35.6091 36.0124 35.4135 36.865 35.039 37.6437C34.9378 37.8767 34.8195 38.1018 34.6851 38.3173C35.3587 38.9077 35.9898 39.5145 36.5395 40.1114C37.1984 38.5019 37.3626 36.7325 37.0108 35.0293Z" fill="#C4AC70"/>
<path d="M34.2971 37.98C34.3982 37.7941 34.4993 37.6098 34.5841 37.4239C35.063 36.4287 35.2165 35.3079 35.0229 34.2206C34.1282 33.9674 33.2044 33.8314 32.2746 33.8161V33.9433C32.2664 34.3799 32.1687 34.8101 31.9876 35.2074C31.8631 35.4841 31.7048 35.7443 31.5162 35.9821C32.489 36.5818 33.4183 37.2494 34.2971 37.98Z" fill="#C4AC70"/>
<path d="M28.5135 37.5411C29.3609 37.2402 30.132 36.7569 30.7724 36.1254C29.7662 35.5484 28.7045 35.0741 27.6034 34.7097C27.823 35.5187 28.1264 36.4625 28.5135 37.5411Z" fill="#C4AC70"/>
<path d="M25.2908 38.3174C24.9819 38.2601 24.6815 38.1636 24.397 38.0303C23.939 37.822 23.5396 37.5038 23.2341 37.1039C22.4956 37.8033 21.8749 38.6173 21.396 39.5145C21.9532 40.3685 22.7465 41.0422 23.6794 41.4538C23.973 41.5911 24.2773 41.704 24.5895 41.7914C24.7335 40.6171 24.9679 39.4556 25.2908 38.3174Z" fill="#C4AC70"/>
<path d="M28.2102 34.3902C29.2078 34.7568 30.1725 35.2075 31.0938 35.7374C31.2729 35.5144 31.4256 35.2714 31.5488 35.0133C31.7304 34.6416 31.8119 34.229 31.7853 33.8161C30.5747 33.8615 29.3742 34.0543 28.2102 34.3902Z" fill="#C4AC70"/>
<path d="M31.2291 45.2116C30.6892 44.0992 30.2179 43.0701 29.7792 42.0931C28.2464 42.6247 26.5994 42.7373 25.0085 42.4193C24.9214 43.3435 24.893 44.2723 24.9237 45.2001C26.9572 45.9542 29.1929 45.9582 31.2291 45.2116Z" fill="#C4AC70"/>
<path d="M31.4316 45.6501C29.3467 46.4216 27.0586 46.4452 24.9583 45.7169C25.0053 46.4442 25.1145 47.1661 25.2844 47.8747C26.5355 48.4785 27.9075 48.7897 29.2967 48.7848H29.3472C30.5025 48.7865 31.6472 48.5649 32.7185 48.1324C32.2629 47.2723 31.8415 46.4465 31.4545 45.6549L31.4316 45.6501Z" fill="#C4AC70"/>
<path d="M34.3134 31.7246C34.7439 32.1984 35.0764 32.7527 35.2919 33.3556L35.4436 33.8106C35.9228 33.9623 36.3905 34.1481 36.843 34.3668C36.8088 34.2314 36.7582 34.114 36.7256 33.9786C36.0621 33.0897 35.2452 32.3263 34.3134 31.7246Z" fill="#C4AC70"/>
<path d="M44.9507 14.8165L46.9568 17.3788C46.9405 17.4962 46.8557 18.1535 46.8215 18.2889C45.6406 22.6713 43.5334 25.4359 41.0054 26.8353C40.9891 26.8353 40.9891 26.8516 40.9711 26.8516C37.1612 28.9245 32.8961 27.7274 28.9508 25.1325C28.9508 25.1325 32.0872 24.6432 34.5646 25.9578C36.8072 27.1386 36.1956 27.5252 37.9033 27.1892C35.5775 23.3792 31.5424 22.7056 27.098 23.7168C26.4812 23.1531 25.901 22.5506 25.361 21.9129H23.3337C23.469 22.0483 24.2943 22.9584 25.5926 24.1213C23.1314 24.9368 20.3163 26.465 17.0968 28.9082L14.4546 30.7985H17.8943C21.6032 27.8481 24.7216 26.2465 27.385 25.6234C30.2001 27.8481 34.1112 30.2081 37.8869 30.0401C39.9599 33.2091 40.888 37.2165 41.2582 39.5651C41.2905 39.9447 41.3019 40.3259 41.2924 40.7068H44.9507V39.7494H42.2025C42.0166 37.7596 41.2582 33.5125 39.2863 29.8542C42.4553 29.13 45.4058 26.3313 47.345 19.7568C47.3613 19.6899 48.0366 17.3103 48.0366 17.3103L45.5575 14.1592L44.9507 14.8165Z" fill="#C4AC70"/>
<path d="M37.6863 36.7831C37.6815 38.0591 37.4179 39.3208 36.9116 40.492C37.3652 40.9986 37.793 41.5277 38.1936 42.0773C38.8517 39.8379 38.6288 37.4315 37.5705 35.3511C37.6432 35.8251 37.6819 36.3036 37.6863 36.7831Z" fill="#C4AC70"/>
<path d="M31.9028 45.4646C32.291 46.2573 32.7183 47.0663 33.1505 47.9258C34.2697 47.4164 35.2762 46.6891 36.111 45.7862C36.9458 44.8833 37.5922 43.8231 38.0125 42.6675C37.6243 42.1276 37.1872 41.5715 36.68 40.981C35.6738 42.9979 33.9793 44.5882 31.9028 45.4646Z" fill="#C4AC70"/>
<path d="M26.7782 30.5801C26.7945 30.7987 26.8288 31.1021 26.8793 31.4739C27.8756 31.1733 28.9333 31.1384 29.9472 31.3728C30.4104 31.0304 30.9077 30.7369 31.4314 30.497C30.7302 30.3279 30.0113 30.243 29.2899 30.2442C28.4414 30.2424 27.5965 30.3555 26.7782 30.5801Z" fill="#C4AC70"/>
<path d="M24.03 33.7999C24.9777 33.7077 25.934 33.7705 26.8614 33.9859C26.6755 33.2617 26.5352 32.637 26.4569 32.1314C25.5177 32.4693 24.6818 33.044 24.03 33.7999Z" fill="#C4AC70"/>
<path d="M32.1557 30.7317C31.5808 30.9386 31.0366 31.2222 30.5377 31.5749C30.572 31.5912 30.6225 31.6092 30.6552 31.6255C31.3275 31.9131 31.8607 32.4522 32.141 33.1276C32.1573 33.1945 32.1915 33.263 32.2078 33.3299C33.1107 33.3442 34.0093 33.4574 34.8876 33.6675C34.8682 33.6247 34.8566 33.5789 34.8533 33.5321C34.3803 32.2648 33.4034 31.3042 32.1557 30.7317Z" fill="#C4AC70"/>
<path d="M21.5688 34.3721C22.1529 34.1552 22.7572 33.9973 23.3727 33.9008C23.9958 32.9401 25.0755 32.1312 26.3737 31.6582L26.408 31.6419C26.3574 31.2879 26.3232 30.9895 26.3069 30.7481C24.3623 31.3839 22.6915 32.6618 21.5688 34.3721Z" fill="#C4AC70"/>
<path d="M21.1807 34.9786C21.0796 35.1417 20.9948 35.3162 20.9116 35.4842C20.5818 36.506 20.5996 37.6083 20.9622 38.6189C21.0127 38.7543 21.0796 38.888 21.1253 39.0234C21.6152 38.1439 22.241 37.3474 22.9797 36.6634C22.9547 36.6102 22.9323 36.5557 22.9128 36.5003C22.7981 36.1656 22.7509 35.8114 22.7742 35.4584C22.7974 35.1053 22.8905 34.7604 23.0482 34.4436C22.4208 34.5697 21.81 34.7678 21.228 35.034L21.1807 34.9786Z" fill="#C4AC70"/>
<path d="M24.115 45.3811C22.6686 44.7177 21.4152 43.6967 20.473 42.4143V42.4306C21.1965 44.6174 22.7082 46.4565 24.7136 47.5895C24.5804 46.9103 24.4905 46.2233 24.4445 45.5328C24.3499 45.4822 24.2324 45.4317 24.115 45.3811Z" fill="#C4AC70"/>
<path d="M20.5233 38.7727C20.3515 38.383 20.2488 37.9663 20.22 37.5414C20.0837 38.1815 20.0159 38.8343 20.0177 39.4887V39.5051C20.0169 39.942 20.0507 40.3783 20.1189 40.8098C20.1694 40.911 20.22 41.0284 20.2705 41.136C20.4228 40.5898 20.6259 40.0591 20.8773 39.5507C20.7311 39.3051 20.6125 39.0443 20.5233 38.7727Z" fill="#C4AC70"/>
</svg>
