<svg width="340" height="67" viewBox="0 0 340 67" fill="none" xmlns="http://www.w3.org/2000/svg">
<path d="M270.902 66.7273C265.666 66.7273 261.882 66.7273 258.624 66.3954C254.286 65.9535 251.218 64.9189 248.679 63.0408C246.746 61.6116 245.166 59.8468 243.969 57.7804C241.404 53.312 241.423 48.4521 242.312 42.1523C242.338 42.0048 243.182 37.2183 243.208 37.0707C244.541 30.7708 246.236 25.911 250.376 21.4426C252.302 19.3762 254.504 17.6113 256.941 16.1821C260.143 14.3041 263.575 13.2695 268.069 12.8276C271.445 12.4956 275.228 12.4956 280.465 12.4956H295.824C301.06 12.4956 304.844 12.4956 308.102 12.8276C312.44 13.2695 315.508 14.3041 318.047 16.1821C319.98 17.6113 321.56 19.3762 322.757 21.4426C325.322 25.911 325.303 30.7708 324.414 37.0707C324.388 37.2183 323.544 42.0048 323.518 42.1523C322.185 48.4521 320.49 53.312 316.35 57.7804C314.424 59.8468 312.222 61.6116 309.785 63.0408C306.583 64.9189 303.151 65.9535 298.657 66.3954C295.281 66.7273 291.498 66.7273 286.261 66.7273H270.902Z" fill="#0161DA"/>
<path d="M310.652 0.00292969C315.888 0.00292969 319.672 0.00292969 322.93 0.334877C327.269 0.776824 330.336 1.81142 332.876 3.68947C334.808 5.11863 336.388 6.8835 337.585 8.94993C340.15 13.4183 340.131 18.2782 339.242 24.578C339.216 24.7255 338.372 29.512 338.346 29.6596C337.013 35.9594 335.318 40.8193 331.178 45.2877C329.252 47.3541 327.05 49.119 324.613 50.5481C321.411 52.4262 317.979 53.4608 313.485 53.9027C310.109 54.2347 306.326 54.2347 301.089 54.2347H285.73C280.494 54.2347 276.71 54.2347 273.452 53.9027C269.114 53.4608 266.047 52.4262 263.507 50.5481C261.574 49.119 259.994 47.3541 258.797 45.2877C256.232 40.8193 256.251 35.9594 257.14 29.6596C257.166 29.512 258.01 24.7255 258.036 24.578C259.369 18.2782 261.064 13.4183 265.204 8.94993C267.13 6.88349 269.332 5.11863 271.769 3.68947C274.971 1.81142 278.403 0.776824 282.898 0.334877C286.273 0.00292969 290.056 0.00292969 295.293 0.00292969H310.652Z" fill="#FD213A"/>
<path d="M281.267 58.4984C267.968 58.4984 261.319 58.4984 257.069 55.3556C255.102 53.9016 253.539 52.0036 252.477 49.7809C250.479 45.5996 251.108 40.0204 252.851 29.8758L252.966 29.2248C254.295 21.9111 255.292 17.8544 257.825 14.8041C259.19 13.1609 260.84 11.7577 262.673 10.6828C266.634 8.35937 271.55 8.35938 281.382 8.35938H300.285C313.584 8.35938 320.234 8.35938 324.484 11.5021C326.45 12.9561 328.014 14.8541 329.076 17.0768C331.074 21.2582 330.444 26.8374 328.702 36.982L328.587 37.633C327.258 44.9468 326.261 49.0034 323.728 52.0538C322.363 53.697 320.712 55.1001 318.879 56.1751C314.918 58.4984 310.002 58.4984 300.171 58.4984H281.267Z" fill="white"/>
<path d="M291.561 25.8857H282.319L278.407 48.0735H269.435L273.348 25.8857H264.109L265.358 18.7827H292.813L291.561 25.8857Z" fill="#161613"/>
<path d="M301.911 40.9687H301.525C301.296 40.9687 301.12 40.8191 301.091 40.5998L298.308 18.7827H289.246L292.964 44.3324C293.29 46.5613 295.097 48.0735 297.44 48.0735H306.841L321.355 18.7827H312.552L301.911 40.9687Z" fill="#161613"/>
<path d="M35.71 24.5513H17.9727C16.7811 24.5514 15.6449 25.517 15.4346 26.7085L12.6865 42.2964H32.5557L31.0703 50.6538H0.648438L5.61621 22.478C6.22836 19.0074 9.53816 16.194 13.0088 16.1938H37.1953L35.71 24.5513ZM74.5488 24.5503H63.6768L59.0742 50.6538H48.5195L53.1221 24.5503H42.2539L43.7236 16.1938H76.0234L74.5488 24.5503ZM109.913 50.6538H99.5576L98.7256 44.2251H85.877L82.7744 50.6538H72.1211L87.1123 20.5952C88.4196 17.9723 91.1742 16.1939 93.9297 16.1938H104.99L109.913 50.6538ZM153.86 16.1938L152.034 26.5493C151.526 29.4293 149.899 32.037 147.678 33.9233L150.465 35.4507L148.892 44.3696C148.28 47.8395 144.97 50.6537 141.499 50.6538H117.213L122.181 22.479C122.793 19.0081 126.103 16.1939 129.574 16.1938H153.86ZM172.391 29.1919C173.328 28.0076 182.665 16.2152 182.682 16.1938H193.963L180.795 32.2515L189.07 50.6538H177.714C176.274 47.2041 174.878 43.8537 174.276 42.3862C173.358 40.1467 172.612 38.3273 172.609 38.3218C172.427 37.8766 171.997 37.603 171.481 37.603H170.933L168.627 50.6538H158.088L164.15 16.1938H174.685C174.683 16.2 172.6 28.0068 172.391 29.1919ZM230.283 50.6538H219.928L219.096 44.2251H206.247L203.144 50.6538H192.49L207.482 20.5952C208.79 17.9723 211.544 16.1938 214.3 16.1938H225.36L230.283 50.6538ZM129.34 36.9771L128.418 42.3071H137.592C138.784 42.3071 139.92 41.3408 140.131 40.1489L140.69 36.9771H129.34ZM95.7891 24.5513C95.5193 24.5513 95.249 24.728 95.124 24.9858L89.8721 35.8823H97.7031L96.2441 24.5513H95.7891ZM216.159 24.5513C215.889 24.5513 215.619 24.7279 215.494 24.9858L210.242 35.8823H218.072L216.614 24.5513H216.159ZM131.531 24.5513L130.591 29.8813H139.783C140.975 29.8812 142.112 28.9151 142.322 27.7231L142.882 24.5513H131.531Z" fill="#F7F8FA"/>
</svg>
