<svg width="156" height="158" viewBox="0 0 156 158" fill="none" xmlns="http://www.w3.org/2000/svg">
<path d="M85.569 151.619C84.9504 153.458 82.9508 157.982 78.1127 157.982C72.6222 157.982 70.7073 152.051 70.6141 151.78L70.4531 151.212C70.4531 151.212 75.1895 151.611 77.7907 151.611C80.392 151.611 84.8572 151.356 85.5859 151.212V151.619H85.569Z" fill="#1D1D1B"/>
<path d="M99.9898 148.68L101.125 148.832C99.778 152.34 97.3632 156.28 92.6522 156.28C91.0574 156.352 89.4747 155.971 88.0866 155.183C86.6985 154.394 85.5613 153.23 84.8062 151.823L84.0098 151.332C89.4338 151.057 94.809 150.167 100.032 148.68H99.9898Z" fill="#1D1D1B"/>
<path d="M56.4049 148.68L55.2695 148.832C56.6167 152.34 59.0316 156.28 63.7849 156.28C65.4061 156.306 67.006 155.908 68.4266 155.127C69.8471 154.345 71.0392 153.206 71.8851 151.823L72.4274 151.332C67.0034 151.057 61.6281 150.167 56.4049 148.68Z" fill="#1D1D1B"/>
<path d="M81.9657 151.984C81.7665 152.361 81.4515 152.664 81.0671 152.848C80.6827 153.033 80.2492 153.089 79.8305 153.009C79.5455 153.006 79.2706 153.114 79.0636 153.31C78.8567 153.506 78.7336 153.775 78.7205 154.06C78.7321 154.201 78.772 154.339 78.838 154.465C78.904 154.591 78.9946 154.702 79.1045 154.792C79.2144 154.883 79.3413 154.95 79.4777 154.99C79.614 155.03 79.7571 155.042 79.8983 155.026C81.5251 155.026 82.7621 152.763 83.1095 151.806C83.1095 151.806 84.067 151.806 84.3466 151.729C84.3466 151.729 82.652 156.813 78.1698 156.813C73.6875 156.813 71.8828 151.729 71.8828 151.729C71.8828 151.729 75.6448 151.958 77.8139 151.958C79.983 151.958 81.3387 151.958 81.9826 151.958L81.9657 151.984Z" fill="#FFED00"/>
<path d="M99.3955 149.73C96.1676 150.69 92.8617 151.364 89.516 151.747C89.516 151.747 89.6685 152.246 90.7276 152.196C90.9414 152.183 91.1511 152.131 91.3461 152.043C91.448 152.04 91.5494 152.058 91.6432 152.098C91.737 152.138 91.8208 152.198 91.8887 152.274C91.9566 152.351 92.007 152.441 92.0362 152.538C92.0655 152.636 92.0728 152.739 92.0579 152.84C92.0155 153.212 91.6935 153.687 90.6174 153.687C90.031 153.618 89.4643 153.433 88.9506 153.142C88.4369 152.851 87.9867 152.46 87.6265 151.992C87.1908 152.084 86.749 152.143 86.3047 152.17C87.0501 153.09 87.9932 153.831 89.0639 154.337C90.1347 154.843 91.3057 155.102 92.49 155.093C97.0146 155.093 98.6838 151.052 99.3955 149.747V149.73Z" fill="#FFED00"/>
<path d="M96.3629 152.577C96.3637 151.898 96.1567 151.236 95.7698 150.679C93.7771 151.138 91.7602 151.486 89.7286 151.721L89.6777 151.958C89.9862 152.165 90.3608 152.25 90.7284 152.195C90.9422 152.183 91.1518 152.131 91.3469 152.043C91.4488 152.039 91.5502 152.058 91.644 152.098C91.7377 152.138 91.8215 152.198 91.8895 152.274C91.9574 152.35 92.0078 152.44 92.037 152.538C92.0662 152.636 92.0736 152.738 92.0586 152.839C92.0163 153.212 91.6943 153.687 90.6182 153.687C90.3289 153.68 90.0426 153.625 89.7709 153.526C89.9114 154.011 90.1573 154.46 90.4911 154.839C91.1507 155.003 91.828 155.086 92.5077 155.085C93.7615 155.104 94.9922 154.747 96.0409 154.059C96.2673 153.601 96.3833 153.096 96.3799 152.585L96.3629 152.577Z" fill="#FFDF00"/>
<path d="M96.3133 152.577C96.317 151.902 96.1129 151.242 95.7287 150.688C93.7717 151.136 91.7917 151.479 89.7976 151.713C89.7976 151.806 89.7552 151.899 89.7383 151.992C90.0429 152.169 90.3973 152.241 90.7466 152.196C90.9604 152.183 91.17 152.132 91.3651 152.043C91.467 152.04 91.5684 152.058 91.6622 152.098C91.7559 152.138 91.8398 152.199 91.9077 152.275C91.9756 152.351 92.026 152.441 92.0552 152.538C92.0844 152.636 92.0918 152.739 92.0768 152.84C92.0345 153.212 91.7125 153.687 90.6364 153.687C90.3479 153.687 90.0613 153.639 89.7891 153.543C89.9382 154.032 90.196 154.481 90.5432 154.856C91.1756 155.01 91.8242 155.087 92.4751 155.085C93.6978 155.105 94.8996 154.766 95.932 154.111C96.1744 153.639 96.2994 153.116 96.2964 152.585L96.3133 152.577Z" fill="#FFE000"/>
<path d="M96.271 152.577C96.2704 151.904 96.0634 151.247 95.6778 150.696C93.7496 151.142 91.7977 151.478 89.8315 151.704C89.8315 151.806 89.7806 151.907 89.7637 152.018C90.061 152.171 90.3971 152.233 90.7296 152.196C90.9434 152.183 91.1531 152.131 91.3481 152.043C91.45 152.039 91.5514 152.058 91.6452 152.098C91.739 152.138 91.8228 152.198 91.8907 152.274C91.9586 152.35 92.009 152.44 92.0382 152.538C92.0675 152.636 92.0749 152.739 92.0599 152.839C92.0175 153.212 91.6955 153.687 90.6195 153.687C90.3601 153.685 90.1027 153.642 89.8569 153.56C90.0159 154.052 90.2854 154.501 90.6449 154.873C91.25 155.017 91.8701 155.088 92.492 155.085C93.6862 155.102 94.861 154.782 95.8812 154.161C96.1444 153.678 96.2814 153.136 96.2794 152.585L96.271 152.577Z" fill="#FFE200"/>
<path d="M56.9961 149.73C60.2238 150.69 63.5297 151.365 66.8756 151.747C66.8756 151.747 66.7231 152.246 65.6555 152.196C65.4446 152.182 65.2379 152.13 65.0454 152.043C64.9436 152.04 64.8422 152.058 64.7484 152.098C64.6546 152.138 64.5708 152.198 64.5029 152.274C64.435 152.351 64.3846 152.441 64.3554 152.538C64.3261 152.636 64.3187 152.739 64.3337 152.84C64.3337 153.212 64.6896 153.687 65.7741 153.687C66.3605 153.618 66.9273 153.433 67.441 153.142C67.9547 152.851 68.4049 152.46 68.7651 151.992C69.2008 152.084 69.6425 152.143 70.0869 152.17C69.3406 153.092 68.3961 153.833 67.3238 154.339C66.2515 154.845 65.0788 155.103 63.8931 155.093C59.377 155.093 57.7078 151.052 56.9961 149.747V149.73Z" fill="#FFED00"/>
<path d="M77.7402 125.7C93.3221 125.7 110.582 116.134 122.647 102.349C123.96 100.858 126.18 98.0361 131.451 98.0361C133.118 98.1009 134.755 98.5127 136.254 99.2453C137.754 99.9779 139.085 101.015 140.161 102.291C141.237 103.567 142.036 105.053 142.506 106.654C142.975 108.256 143.106 109.938 142.889 111.593C142.296 117.965 133.188 132.326 117.606 141.181C105.49 148.229 91.7232 151.942 77.7064 151.942C63.6896 151.942 49.9229 148.229 37.807 141.181C22.2336 132.326 13.1251 117.965 12.5236 111.593C12.3067 109.937 12.4376 108.255 12.9078 106.652C13.3781 105.05 14.1774 103.564 15.2547 102.288C16.3319 101.012 17.6635 99.9749 19.1643 99.2428C20.665 98.5107 22.302 98.0998 23.9706 98.0361C29.2323 98.0361 31.4607 100.858 32.7656 102.349C44.8735 116.134 62.133 125.7 77.6725 125.7H77.7402Z" fill="#FFED00"/>
<path d="M77.7367 125.141C85.2861 125.141 93.2423 122.862 100.809 118.93C108.935 114.64 116.207 108.896 122.262 101.984C123.124 100.897 124.143 99.9464 125.287 99.1625C127.139 97.9983 129.294 97.4087 131.481 97.4679C131.761 97.4679 132.066 97.4679 132.388 97.4679C135.488 97.8166 138.347 99.3053 140.411 101.645C142.475 103.984 143.596 107.007 143.555 110.127C143.555 110.584 143.53 111.067 143.479 111.575C143.131 115.236 140.089 121.421 134.726 127.674C129.959 133.264 124.263 137.991 117.89 141.646C110.951 145.619 103.474 148.57 95.691 150.407C83.8671 153.175 71.5638 153.175 59.74 150.407C51.9563 148.573 44.4791 145.622 37.5407 141.646C31.1935 138.024 25.5159 133.338 20.7557 127.793C15.3838 121.506 12.342 115.321 11.9946 111.694C11.9523 111.186 11.9269 110.703 11.9269 110.245C11.8861 107.127 13.0054 104.105 15.0674 101.766C17.1295 99.4267 19.9872 97.9372 23.0858 97.5866C23.4078 97.5866 23.7128 97.5866 24.0009 97.5866C26.1847 97.5285 28.3369 98.1181 30.1862 99.2812C31.3305 100.067 32.3526 101.018 33.2195 102.103C39.2702 109.017 46.5391 114.761 54.6647 119.049C62.2311 122.98 70.1872 125.259 77.7367 125.259V125.141ZM77.7367 126.259C70.0093 126.259 61.8752 123.938 54.1478 119.921C45.9002 115.569 38.5221 109.739 32.3807 102.721C31.5787 101.716 30.6338 100.834 29.5761 100.103C27.908 99.0595 25.9676 98.5346 24.0009 98.5949C23.7213 98.5949 23.4501 98.5949 23.1536 98.5949C20.3276 98.9143 17.7215 100.273 15.8422 102.408C13.9629 104.543 12.9448 107.3 12.986 110.144C12.986 110.593 12.986 111.042 13.0453 111.491C13.3757 114.956 16.3243 120.887 21.5183 126.996C26.199 132.46 31.7852 137.078 38.0322 140.646C44.9021 144.587 52.3088 147.507 60.0196 149.314C71.6757 152.048 83.8062 152.048 95.4622 149.314C103.141 147.508 110.519 144.6 117.365 140.68C123.608 137.109 129.191 132.492 133.87 127.03C139.098 120.921 142.038 114.99 142.343 111.525C142.386 111.076 142.403 110.627 142.403 110.177C142.448 107.333 141.431 104.573 139.551 102.438C137.671 100.303 135.062 98.9445 132.235 98.6287C131.972 98.6287 131.71 98.6287 131.43 98.6287C129.461 98.5688 127.518 99.0937 125.846 100.137C124.791 100.868 123.849 101.75 123.05 102.755C116.906 109.773 109.525 115.603 101.275 119.955C93.5558 123.971 85.4217 126.293 77.6858 126.293L77.7367 126.259Z" fill="#1D1D1B"/>
<path d="M31.0518 103.721L30.8654 103.509C30.0695 102.412 29.015 101.529 27.7955 100.938C26.576 100.346 25.2293 100.065 23.8752 100.12C22.5801 100.176 21.3092 100.49 20.1366 101.043C18.9641 101.596 17.9134 102.376 17.0459 103.34C16.0885 104.412 15.3723 105.677 14.9455 107.049C14.5186 108.422 14.3912 109.87 14.5718 111.296C15.0802 116.668 23.604 130.589 38.7792 139.214C50.5691 146.079 63.9681 149.696 77.611 149.696C91.2538 149.696 104.653 146.079 116.443 139.214C131.618 130.589 140.167 116.668 140.65 111.296C140.835 109.87 140.709 108.421 140.282 107.048C139.855 105.674 139.137 104.41 138.176 103.34C137.309 102.377 136.26 101.597 135.089 101.044C133.918 100.492 132.649 100.177 131.355 100.12C130 100.066 128.652 100.347 127.432 100.939C126.211 101.53 125.155 102.413 124.357 103.509L124.179 103.721C111.113 118.574 93.3199 127.793 77.611 127.793C61.902 127.793 44.0918 118.566 31.0518 103.712V103.721Z" fill="#DC2311"/>
<path d="M127.781 86.1989C127.781 83.5176 128.576 80.8965 130.066 78.6671C131.556 76.4377 133.673 74.7001 136.15 73.674C138.627 72.648 141.353 72.3795 143.983 72.9026C146.613 73.4257 149.028 74.7168 150.924 76.6128C152.82 78.5087 154.111 80.9243 154.634 83.5541C155.157 86.1839 154.889 88.9097 153.863 91.3869C152.837 93.864 151.099 95.9813 148.87 97.471C146.64 98.9606 144.019 99.7557 141.338 99.7557C137.743 99.7557 134.294 98.3274 131.752 95.785C129.21 93.2426 127.781 89.7944 127.781 86.1989Z" fill="#FFED00"/>
<path d="M127.215 86.1991C127.215 82.9392 128.346 79.7802 130.414 77.2605C132.482 74.7407 135.36 73.0161 138.558 72.3804C141.755 71.7447 145.074 72.2373 147.949 73.7743C150.824 75.3112 153.077 77.7975 154.324 80.8093C155.571 83.8212 155.736 87.1724 154.789 90.2919C153.842 93.4113 151.844 96.1061 149.133 97.917C146.422 99.7279 143.168 100.543 139.923 100.223C136.679 99.9034 133.646 98.4686 131.341 96.1634C130.032 94.8554 128.994 93.302 128.286 91.5922C127.578 89.8824 127.214 88.0497 127.215 86.1991ZM128.342 86.1991C128.344 89.1979 129.386 92.1032 131.29 94.4199C133.195 96.7366 135.843 98.3216 138.785 98.9047C141.726 99.4879 144.779 99.0332 147.423 97.6181C150.067 96.203 152.138 93.915 153.285 91.1439C154.431 88.3728 154.581 85.29 153.71 82.4206C152.838 79.5513 150.998 77.0728 148.505 75.4075C146.011 73.7421 143.016 72.9929 140.032 73.2875C137.048 73.582 134.258 74.9021 132.138 77.0228C130.931 78.2267 129.975 79.6572 129.324 81.232C128.672 82.8068 128.338 84.4949 128.342 86.1991Z" fill="#1D1D1B"/>
<path d="M0.916016 86.2155C0.916016 83.5342 1.71111 80.9131 3.20075 78.6837C4.69039 76.4543 6.80767 74.7167 9.28485 73.6906C11.762 72.6646 14.4879 72.3961 17.1176 72.9192C19.7474 73.4423 22.163 74.7335 24.0589 76.6294C25.9549 78.5254 27.246 80.941 27.7691 83.5707C28.2922 86.2005 28.0238 88.9263 26.9977 91.4035C25.9716 93.8807 24.234 95.9979 22.0046 97.4876C19.7752 98.9772 17.1541 99.7723 14.4728 99.7723C10.8773 99.7723 7.42911 98.344 4.88671 95.8016C2.34432 93.2592 0.916016 89.811 0.916016 86.2155Z" fill="#FFED00"/>
<path d="M0.355495 86.2165C0.357774 82.9569 1.49005 79.799 3.55945 77.2806C5.62885 74.7622 8.50737 73.0392 11.7046 72.405C14.9019 71.7709 18.2201 72.2648 21.0941 73.8026C23.9681 75.3405 26.22 77.8272 27.4662 80.8391C28.7124 83.851 28.8759 87.2019 27.9287 90.3208C26.9816 93.4397 24.9824 96.1337 22.2718 97.944C19.5611 99.7543 16.3067 100.569 13.0629 100.249C9.81909 99.9289 6.78654 98.4943 4.48184 96.1892C3.17056 94.8811 2.13093 93.3265 1.42277 91.6149C0.7146 89.9034 0.351884 88.0687 0.355495 86.2165ZM1.47394 86.2165C1.47003 89.2223 2.50872 92.1365 4.41296 94.4622C6.31719 96.7879 8.96909 98.3812 11.9166 98.9704C14.8641 99.5597 17.9247 99.1085 20.5768 97.6937C23.2288 96.2789 25.3081 93.9881 26.4602 91.2119C27.6123 88.4356 27.7658 85.3457 26.8947 82.4689C26.0235 79.592 24.1816 77.1064 21.6829 75.4356C19.1842 73.7649 16.1833 73.0125 13.1919 73.3066C10.2005 73.6007 7.40374 74.9233 5.27831 77.0487C4.07193 78.2512 3.11486 79.68 2.46201 81.2533C1.80916 82.8265 1.47338 84.5132 1.47394 86.2165Z" fill="#1D1D1B"/>
<path d="M145.008 49.8413L145.084 46.2149C145.762 46.6669 146.575 46.8693 147.385 46.7874C148.195 46.7055 148.951 46.3443 149.524 45.7658C149.823 45.4291 150.052 45.0361 150.198 44.6098C150.343 44.1836 150.402 43.7326 150.371 43.2832C150.3 42.1609 149.821 41.1034 149.024 40.3092C144.466 35.8694 140.441 31.4295 140.441 31.4295C140.082 30.8742 139.582 30.4241 138.992 30.1247C138.654 29.9285 138.28 29.802 137.892 29.7526C137.504 29.7031 137.111 29.7317 136.734 29.8367C136.357 29.9417 136.006 30.121 135.699 30.364C135.393 30.607 135.139 30.9087 134.951 31.2516C133.586 33.3274 133.79 36.2591 134.036 37.3267L138.272 43.1307C140.359 45.5212 142.61 47.7635 145.008 49.8413Z" fill="#1D1D1B"/>
<path d="M53.9043 12.1109C59.2762 10.3147 64.1736 8.82341 70.791 8.23877L53.9043 12.1109Z" fill="#1D1D1B"/>
<path d="M53.9056 12.1286C59.3482 10.1277 65.0222 8.82379 70.7922 8.24794L71.8005 7.68024C68.0978 4.774 64.4375 2.7998 60.7856 2.7998C58.4894 2.7998 53.8293 4.35882 52.7871 12.5776L53.9056 12.1286Z" fill="#1D1D1B"/>
<path d="M101.601 12.1286C96.1549 10.1287 90.4782 8.82479 84.7055 8.24794L83.6973 7.68024C87.4 4.774 91.0688 2.7998 94.7122 2.7998C96.9999 2.7998 101.66 4.35882 102.711 12.5776L101.592 12.1286H101.601Z" fill="#1D1D1B"/>
<path d="M73.3398 7.42558C74.4329 7.36627 76.9493 7.31543 77.9576 7.31543C78.9659 7.31543 81.7535 7.44252 82.3636 7.49336L73.3398 7.42558Z" fill="#1D1D1B"/>
<path d="M71.6719 7.96785C74.3748 2.79084 76.8489 0.901367 78.2215 0.901367C79.9161 0.901367 81.9411 3.62969 83.5171 7.13751L83.8476 7.92549L82.475 7.81534C80.9746 7.66403 79.4667 7.59898 77.9588 7.62048C76.9505 7.62048 74.7645 7.62046 73.4512 7.73061L71.6719 7.96785Z" fill="#1D1D1B"/>
<path d="M66.3851 130.649L63.9619 139.673L59.4542 128.785L56.6497 128.031L53.2266 140.8L56.2684 141.613L58.7086 132.513L63.2925 143.494L66.0293 144.231L69.4439 131.462L66.3851 130.649Z" fill="#FFED00"/>
<path d="M76.8985 132.259L73.4246 132.072L72.7383 145.273L76.2037 145.451L76.8985 132.259Z" fill="#FFED00"/>
<path d="M80.0176 132.14L80.2548 133.886L83.9575 133.36L85.5505 144.706L88.9905 144.223L87.3976 132.877L91.041 132.369L90.7952 130.624L80.0176 132.14Z" fill="#FFED00"/>
<path d="M115.809 126.768C117.504 129.708 117.157 131.852 114.564 133.352L113.335 134.063L108.472 125.65L109.802 124.879C112.903 123.091 114.657 124.684 115.809 126.768ZM109.031 123.277L104.549 125.861L111.183 137.342L115.623 134.8C120.249 132.131 120.707 128.098 118.868 124.887C116.674 121.049 113.081 120.964 109.031 123.303V123.277Z" fill="#FFED00"/>
<path d="M100.666 139.536L99.3441 135.478L103.259 134.198L102.708 132.512L98.7933 133.783L97.6664 130.318L101.691 129.013L101.149 127.344L93.8027 129.733L97.8867 142.299L105.987 139.672L105.436 137.977L100.666 139.536Z" fill="#FFED00"/>
<path d="M50.3889 124.972L46.4744 132.03C45.2967 134.157 44.085 135.504 42.0939 134.351C40.1027 133.199 40.5687 131.623 41.7804 129.446L45.7034 122.371L42.543 120.617L38.3996 128.09C36.1119 132.208 39.0012 134.75 41.2296 135.987C43.636 137.317 47.1607 138.308 49.3891 134.224L53.5494 126.717L50.3889 124.963V124.972Z" fill="#FFED00"/>
<path d="M48.1504 47.3588V109.212L77.7381 128.234L107.326 109.212V47.435C105.939 46.1093 104.449 44.8966 102.869 43.8086H52.4377C50.9414 44.9023 49.5098 46.082 48.1504 47.3418V47.3588Z" fill="#FFED00"/>
<path d="M48.7122 47.3589V108.924L77.7407 127.581L106.769 108.924L106.803 47.4521H107.922L107.888 109.229V109.534L107.633 109.695L78.0457 128.717L77.7407 128.912L77.4357 128.717L47.8479 109.695L47.5938 109.534V47.3589H48.7122Z" fill="#1D1D1B"/>
<path d="M106.987 47.8752C106.725 47.6294 106.928 47.8074 106.64 47.5532C105.385 46.3654 104.04 45.2776 102.615 44.2996L103.191 43.3506C104.696 44.3591 106.114 45.4929 107.428 46.7398L107.775 47.0533L107.021 47.9006L106.987 47.8752Z" fill="#1D1D1B"/>
<path d="M102.905 44.385H52.4395V43.2666H102.905V44.385Z" fill="#1D1D1B"/>
<path d="M52.7602 44.2826C52.1586 44.7063 51.3028 45.3841 50.5233 46.0196C49.6082 46.7737 48.7863 47.4939 48.5661 47.7142L47.7188 46.9601C47.9645 46.689 48.8372 45.9264 49.7862 45.1469C50.7351 44.3673 51.4808 43.7658 52.0908 43.3506L52.7348 44.2657L52.7602 44.2826Z" fill="#1D1D1B"/>
<path d="M79.8313 73.8195C79.6195 73.7262 78.8908 74.3278 78.5519 74.8532C78.213 75.3785 78.1198 76.0733 78.5942 76.3275C79.0687 76.5817 79.6703 76.2512 79.8144 75.4209C79.8991 74.9294 80.0516 73.9211 79.8144 73.8195H79.8313ZM74.1629 75.4209C74.29 76.2682 74.9085 76.5817 75.383 76.3275C75.8575 76.0733 75.7643 75.387 75.4253 74.8532C75.0864 74.3194 74.4001 73.7262 74.1883 73.8195C73.9765 73.9127 74.0951 74.9379 74.1883 75.4209H74.1629ZM77.1369 83.6481C77.7542 82.6069 78.2274 81.4867 78.5434 80.3183H75.6965C76.0297 81.4862 76.5139 82.6056 77.1369 83.6481ZM77.6283 71.3877L79.9245 67.3969L81.7123 71.3877H84.6863C83.1036 72.9614 82.1924 75.0874 82.1444 77.3188V79.1659C82.0908 79.8707 81.9572 80.5672 81.7462 81.2418C81.7462 81.2418 84.2881 83.2075 84.7202 83.538C84.8897 83.682 85.0676 83.7583 84.9405 84.0972C84.7372 84.6818 83.0002 85.4529 82.8138 85.6139C82.424 85.9443 82.3139 86.1731 82.4325 86.512C82.5511 86.8509 82.8731 86.9018 83.5425 86.673C84.2118 86.4442 85.6184 85.724 86.7961 85.2241C87.6718 84.9066 88.603 84.7711 89.5329 84.8259V82.589H85.11V75.4124L84.322 74.1584L86.2877 70.6845L88.2365 74.1584L87.457 75.387V79.1405H89.7278V75.387L88.9398 74.1584L90.8971 70.6845L92.8628 74.1584L92.0748 75.387V79.1405H94.3455V75.387L93.566 74.1584L95.5233 70.6845L97.4891 74.1584L96.701 75.387V82.5551H92.2527V85.8511C93.3711 87.0584 94.0592 88.6014 94.21 90.2401C94.2246 90.5931 94.1555 90.9444 94.0082 91.2655C93.8609 91.5865 93.6397 91.8681 93.3627 92.0872C93.5914 92.8516 93.6292 93.6604 93.4728 94.4428C93.2111 95.3239 92.773 96.1426 92.1849 96.8491V113.939C92.1849 115.1 89.4905 114.99 89.4905 113.99V97.2897C87.9823 95.5951 83.839 94.3156 83.839 94.3156C82.7693 95.5333 81.9334 96.938 81.3734 98.459C81.7204 98.6166 82.1091 98.658 82.4815 98.5771C82.854 98.4962 83.1904 98.2973 83.4408 98.0099C83.6472 97.7967 83.9161 97.6546 84.2085 97.6044C84.501 97.5541 84.8019 97.5982 85.0676 97.7303C85.5167 98.0099 85.6268 98.1285 85.4574 98.7979C85.2252 99.6282 85.0776 100.48 85.0168 101.34C85.0168 102.128 85.9064 101.958 86.5843 102.018C87.923 102.128 88.1518 103.644 88.0416 104.483C87.7953 105.723 87.6255 106.976 87.5333 108.237C87.5186 109.192 87.5752 110.146 87.7027 111.092C87.8901 111.768 87.9842 112.467 87.9823 113.168C87.9061 114.236 87.2536 114.405 86.5843 113.727C85.9149 113.049 76.5522 103.085 76.5522 103.085C75.9337 105.102 78.5095 108.567 79.3568 109.635C80.2041 110.702 80.1363 111.49 79.4076 112.219C78.679 112.948 77.2809 113.338 77.0013 114.007C76.7217 114.676 77.6707 116.701 79.6364 119.218C81.6022 121.734 77.3911 123.454 74.8661 123.929C72.3412 124.403 72.3242 122.692 72.5191 121.743C72.6588 120.966 72.6958 120.174 72.6292 119.387C72.5699 118.54 71.7819 117.371 70.7228 115.998C69.6637 114.625 69.6552 113.304 70.1043 110.067C70.37 108.303 70.4834 106.52 70.4432 104.737C70.4432 104.737 69.3248 104.797 67.698 104.737C66.0712 104.678 64.7239 103.738 64.6138 99.8146C64.5036 95.8916 64.4104 86.5374 64.1478 85.563C63.8851 84.5887 62.8429 84.4022 62.3939 84.2921C62.2928 84.2521 62.2061 84.1826 62.1451 84.0927C62.084 84.0028 62.0513 83.8966 62.0513 83.788C62.0513 83.6793 62.084 83.5731 62.1451 83.4832C62.2061 83.3933 62.2928 83.3238 62.3939 83.2838C63.5631 82.6992 64.9358 81.2672 64.4443 80.3691C63.9529 79.471 61.9024 79.6574 60.4874 80.3691C59.2836 81.0365 58.1962 81.8949 57.2677 82.911C56.8949 83.3177 56.5983 83.3177 56.6322 82.8686C56.5792 81.7511 56.4318 80.64 56.1916 79.5472C55.9096 78.6682 55.5465 77.8172 55.1071 77.0053C54.8783 76.6325 55.1071 76.48 55.4799 76.6325C55.8527 76.785 56.6746 77.1155 57.4541 77.3442C57.8465 77.4624 58.2691 77.4265 58.6359 77.2439C59.0028 77.0613 59.2861 76.7457 59.4283 76.3614C59.8011 75.6157 60.5129 74.0059 60.8857 73.2941C61.2585 72.5824 61.8601 72.7349 62.343 72.8451C62.8179 73.0106 63.2795 73.2117 63.7241 73.4466C64.1732 73.633 64.5714 73.5992 64.6985 73.3704C64.9426 73.1215 65.1456 72.8355 65.3001 72.5231C65.5543 71.9639 65.8932 72.2181 65.9271 72.4468C67.2659 80.4792 70.7482 80.8521 70.7482 80.8521C70.1466 82.2255 69.4618 83.5611 68.6978 84.8513C68.4235 85.4113 68.2568 86.0177 68.2063 86.6391C68.219 89.253 68.4086 91.863 68.774 94.4512C69.1468 96.3915 70.3415 95.6459 70.7144 95.0443C71.0872 94.4428 72.248 91.9856 72.248 91.9856C72.4179 91.5936 72.5183 91.175 72.5445 90.7485C72.5445 90.1893 71.5701 88.9607 71.3498 88.5794C70.639 87.7516 70.2642 86.6875 70.2992 85.5969C70.2992 83.7244 71.9938 82.4196 72.5784 81.9366C72.8025 81.7496 72.9703 81.504 73.0631 81.2273C73.1559 80.9505 73.1699 80.6534 73.1038 80.3691C72.515 78.382 71.6599 76.4837 70.5619 74.7261C69.8162 73.5653 68.3589 71.3369 68.3589 71.3369H71.3837L73.324 67.3037L75.4592 71.3538H77.6622L77.6283 71.3877ZM89.5583 91.7229V89.4267C89.3051 89.1105 88.9799 88.8594 88.61 88.6944C88.2401 88.5293 87.836 88.455 87.4316 88.4778C85.9234 88.4778 85.0252 88.9268 85.0252 89.3251C85.0252 89.9436 86.3725 91.7314 89.5583 91.7314V91.7229Z" fill="#DC2311"/>
<path d="M50.4746 62.7881H105.058V66.5077H50.4746V62.7881Z" fill="#DC2311"/>
<path d="M50.4746 60.8737V46.0459H105.058V60.8737H50.4746Z" fill="#DC2311"/>
<path d="M94.3111 61.3137V58.7802H90.3457V57.1534H93.5824V49.9768H90.6084L89.6001 48.0195L88.5918 49.9768H85.6262V57.1534H88.8544V58.7802H81.0932V57.1534H84.3299V49.9768H81.3558L80.3476 48.0195L79.3393 49.9768H76.3737V57.1534H79.6019V58.7802H71.6881V57.1534H74.9164V49.9768H71.9508L70.9425 48.0195L69.9342 49.9768H66.9602V57.1534H70.1969V58.7802L63.9353 58.7972L57.6992 57.3398L58.9532 61.3137H94.3111Z" fill="#FFED00"/>
<path d="M59.8535 57.0187L64.0392 58.044L66.2845 51.7485V50.1641L59.8535 57.0187Z" fill="#FFED00"/>
<path d="M69.9531 7.83187C63.4713 8.40803 59.4805 9.78912 54.2188 11.5515C54.4356 9.79139 55.0593 8.10595 56.0404 6.62869C55.9642 7.79796 56.8877 9.05196 58.8281 9.05196C60.7684 9.05196 61.7936 7.95048 61.7936 7.28958C61.8074 7.08941 61.7811 6.88848 61.7162 6.69861C61.6513 6.50873 61.5492 6.33371 61.4159 6.18378C61.2825 6.03386 61.1206 5.91206 60.9396 5.8255C60.7585 5.73895 60.5621 5.68939 60.3617 5.67972C59.3364 5.67972 59.1246 6.40839 59.1924 6.70494C59.2602 7.0015 59.0484 7.06927 58.7518 7.14553C58.4553 7.22179 57.6588 6.7812 57.9469 5.75597C58.2349 4.73074 59.6415 4.01053 61.2429 4.01053C61.2429 4.01053 65.0727 3.85802 69.9446 7.8488L69.9531 7.83187Z" fill="#FFED00"/>
<path d="M101.326 11.603C96.0646 9.83215 91.8959 8.45954 85.4141 7.88337C88.3966 5.79901 91.1842 4.03662 94.2429 4.03662C95.8528 4.03662 97.217 4.64667 97.5389 5.77358C97.8609 6.90049 97.0221 7.23942 96.6916 7.16316C96.3612 7.0869 96.1748 7.01911 96.251 6.73103C96.3273 6.44295 96.107 5.7058 95.0817 5.7058C94.8813 5.71548 94.6849 5.76503 94.5038 5.85159C94.3228 5.93815 94.1609 6.05995 94.0275 6.20987C93.8942 6.35979 93.7921 6.53484 93.7272 6.72472C93.6624 6.9146 93.6361 7.11549 93.6498 7.31567C93.6498 7.96809 94.7174 9.06959 96.6154 9.06959C98.5133 9.06959 99.4792 7.82405 99.403 6.65478C100.411 8.13323 101.055 9.82858 101.284 11.603H101.326Z" fill="#FFED00"/>
<path d="M73.9446 6.62887C73.7667 6.90848 73.6141 7.12031 73.4277 7.42534C74.5038 7.3745 76.9695 7.31518 77.9608 7.31518C78.9521 7.31518 81.6804 7.45074 82.2736 7.49311C81.3076 5.25624 79.486 2.17206 78.215 2.17206C77.9693 2.17206 77.41 2.03651 76.3679 3.23967C76.3679 3.23967 76.1984 3.77348 76.8678 3.6718C77.0218 3.65669 77.1772 3.67723 77.322 3.73184C77.4668 3.78646 77.5971 3.87367 77.7028 3.98672C77.8085 4.09978 77.8867 4.23564 77.9315 4.38379C77.9762 4.53194 77.9862 4.68843 77.9608 4.84108C77.8216 5.39803 77.5032 5.89377 77.0546 6.25202C76.606 6.61028 76.0522 6.81117 75.4782 6.82376C74.959 6.86769 74.4363 6.80127 73.9446 6.62887Z" fill="#FFED00"/>
<path d="M17.4979 43.0633L21.7768 37.2593C22.0225 36.1917 22.2258 33.2601 20.8617 31.1842C20.6738 30.8413 20.4192 30.5395 20.1129 30.2966C19.8066 30.0536 19.4549 29.8743 19.0783 29.7693C18.7017 29.6643 18.3079 29.6357 17.9201 29.6852C17.5323 29.7346 17.1583 29.8611 16.8201 30.0573C16.2273 30.3521 15.7263 30.8033 15.3712 31.3621C15.3712 31.3621 11.2703 35.8952 6.72872 40.3604C5.9576 41.1299 5.46555 42.1349 5.33067 43.2158C5.26656 44.1417 5.57113 45.0555 6.17797 45.7577C6.76736 46.3315 7.53618 46.6851 8.35541 46.7592C9.17463 46.8332 9.99441 46.6232 10.6771 46.1644L10.7534 49.7909C13.1401 47.7118 15.3795 45.4695 17.4555 43.0803L17.4979 43.0633Z" fill="#1D1D1B"/>
<path d="M77.7395 34.5897C102.099 34.5897 115.97 57.4668 118.986 61.483C124.366 68.6512 130.933 74.4722 138.559 72.5403C149.768 69.7019 149.167 53.0948 149.167 53.0948C146.481 51.1545 141.863 48.7058 133.475 36.8097C125.256 25.1508 106.658 7.85742 77.7395 7.85742C48.8211 7.85742 30.2229 25.1508 22.0041 36.8097C13.6158 48.6719 9.00649 51.1545 6.31208 53.0948C6.31208 53.0948 5.71897 69.7019 16.9203 72.5403C24.546 74.4722 31.121 68.6512 36.5014 61.483C39.5093 57.4668 53.3881 34.5897 77.7395 34.5897Z" fill="#FFED00"/>
<path d="M77.7395 34.0647C100.388 34.0647 114.038 53.5526 118.478 59.8481C118.884 60.4158 119.206 60.8903 119.427 61.1783C122.087 64.7201 125.027 67.9567 128.23 69.9903C131.433 72.0238 134.78 72.9558 138.398 72.0322C148.345 69.4903 148.565 55.5523 148.565 53.3916L147.871 52.9087C145.058 50.9684 140.524 47.8249 132.983 37.1404C126.617 28.2461 118.257 20.9656 108.573 15.8817C99.0435 11.0036 88.4914 8.45975 77.7861 8.45975C67.0808 8.45975 56.5287 11.0036 46.9994 15.8817C37.268 20.9445 28.8627 28.2236 22.4616 37.132C14.9122 47.8334 10.3876 50.9599 7.56609 52.9002L6.87131 53.3832C6.87131 55.5184 7.10856 69.4819 17.0389 72.0238C20.6823 72.9473 24.0885 72.0238 27.2065 69.9818C30.3246 67.9398 33.3579 64.7116 36.01 61.1699C36.2303 60.8818 36.5607 60.4073 36.9589 59.8396C41.3988 53.5103 55.0488 34.0562 77.6971 34.0562L77.7395 34.0647ZM77.7395 35.1832C55.7097 35.1832 42.2715 54.2813 37.9164 60.492C37.5351 61.0428 37.2216 61.4834 36.942 61.8477C34.2222 65.4826 31.1888 68.7786 27.8505 70.9308C24.5121 73.0829 20.767 74.1251 16.7847 73.1168C5.13435 70.1682 5.76982 53.1629 5.76982 53.112V52.8409L5.99859 52.6799L6.9391 52.019C9.69282 50.1126 14.1242 47.0623 21.555 36.5219C28.0449 27.4618 36.5717 20.0524 46.4487 14.8903C56.1343 9.92316 66.863 7.33252 77.748 7.33252C88.633 7.33252 99.3617 9.92316 109.047 14.8903C118.924 20.0524 127.451 27.4618 133.941 36.5219C141.38 47.0623 145.803 50.0787 148.557 52.019L149.497 52.6799L149.726 52.8409V53.112C149.726 53.1629 150.345 70.1682 138.711 73.1168C134.729 74.1251 131.035 73.1168 127.646 70.9308C124.256 68.7447 121.282 65.4826 118.554 61.8477C118.283 61.4834 117.969 61.0428 117.58 60.492C113.224 54.2813 99.8286 35.1832 77.7565 35.1832H77.7395Z" fill="#1D1D1B"/>
<path d="M77.7401 32.4713C101.227 32.4713 115.199 52.3829 119.792 58.9325L120.707 60.2204C126.926 68.507 132.569 71.8623 138.026 70.4812C145.897 68.49 146.863 57.6615 146.973 54.3825V54.2554L146.871 54.1876C144.101 52.2812 139.466 49.1038 131.705 38.0889C127.07 31.5054 109.471 10.0518 77.7316 10.0518C45.9917 10.0518 28.3933 31.5054 23.7586 38.0889C16.0566 48.9937 11.227 52.3829 8.59191 54.1452L8.49023 54.2215V54.3401C8.60886 57.6277 9.58325 68.4985 17.4208 70.4812C22.8604 71.8623 28.5289 68.507 34.7396 60.2204C34.9684 59.9154 35.2819 59.4578 35.6547 58.9325C40.247 52.3829 54.2275 32.4713 77.7062 32.4713H77.7401Z" fill="#DC2311"/>
<path d="M27.2134 41.6396L24.7648 44.5628L29.3656 54.0611L19.503 50.8413L17.3848 53.3578L27.51 61.8478L29.0436 60.0261L21.8924 54.0018L31.4838 57.1198L32.4837 55.9251L27.9167 46.7658L35.1103 52.7986L37.3387 50.1381L27.2134 41.6396Z" fill="#FFED00"/>
<path d="M40.0195 39.6734L37.7318 42.1306L35.3763 37.589L40.0195 39.6734ZM34.6815 33.6745L32.4277 36.0893L38.7571 48.6802L40.2991 46.9856L38.6045 43.6557L41.6718 40.3682L45.1288 41.834L47.6707 39.1057L34.6985 33.6406L34.6815 33.6745Z" fill="#FFED00"/>
<path d="M50.1332 21.6939L55.0815 29.6162L44.0496 25.4898L41.584 27.0319L48.5827 38.2417L51.2602 36.5725L46.2696 28.5825L57.42 32.7173L59.8264 31.2176L52.8192 20.0078L50.1332 21.6939Z" fill="#FFED00"/>
<path d="M91.9568 28.1849L93.3464 24.1517L97.2355 25.4905L97.8201 23.8128L93.9225 22.4741L95.1088 19.0256L99.108 20.4067L99.6757 18.7375L92.3805 16.2295L88.0762 28.7272L96.1255 31.4978L96.7017 29.8202L91.9568 28.1849Z" fill="#FFED00"/>
<path d="M114.562 27.3452L113.367 28.6331L116.147 31.1411L108.479 39.6565L111.063 41.9781L118.731 33.4627L121.468 35.9284L122.637 34.6235L114.562 27.3452Z" fill="#FFED00"/>
<path d="M118.351 47.1893L121.622 44.444L124.265 47.596L125.629 46.4606L122.986 43.3086L125.773 40.9616L128.493 44.2068L129.832 43.0714L124.875 37.1572L114.75 45.6556L120.224 52.1799L121.579 51.036L118.351 47.1893Z" fill="#FFED00"/>
<path d="M133.669 50.5527C133.893 50.7588 134.069 51.0113 134.185 51.2926C134.302 51.5739 134.355 51.8772 134.342 52.1813C134.329 52.4854 134.25 52.7831 134.111 53.0535C133.971 53.3239 133.774 53.5606 133.533 53.747C132.482 54.6875 131.161 54.4842 130.144 53.3657L129.551 52.7048L132.889 49.6969L133.66 50.5442L133.669 50.5527ZM131.906 57.0684C131.906 57.0684 133.948 58.0936 136.143 56.0855C138.007 54.3909 137.38 52.1032 135.431 49.9426L131.83 45.9434L122.01 54.7892L124.34 57.3311L128.237 53.8233L129.39 55.0942L126.899 60.661L129.856 63.0334L131.864 57.0345L131.906 57.0684Z" fill="#FFED00"/>
<path d="M82.2033 15.1193L82.1101 20.5166L76.9161 20.4319L77.0093 15.0261L73.5439 14.9668L73.3066 28.1847L76.7806 28.244L76.8907 22.2027L82.0762 22.2959L81.9745 28.3372L85.4485 28.3965L85.6772 15.1786L82.2033 15.1193Z" fill="#FFED00"/>
<path d="M101.014 34.7602C103.48 36.2429 106.174 36.0057 107.428 33.9129C108.343 32.4555 108.352 31.2439 107.259 29.0917C106.962 28.4647 106.598 28.0241 106.352 27.4734C105.869 26.5583 105.42 25.8211 105.852 25.1179C106.284 24.4146 107.36 24.2706 108.335 24.8891C109.155 25.4273 109.739 26.2573 109.97 27.2107L111.571 26.5244C111.077 25.0583 110.06 23.8251 108.716 23.0589C105.886 21.3643 103.59 21.8134 102.632 23.4063C102.217 24.0472 101.996 24.7947 101.996 25.5585C101.996 26.3222 102.217 27.0697 102.632 27.7106C102.632 27.7106 103.09 28.5071 103.361 29.0239C103.988 30.1 104.734 31.4303 104.208 32.286C104.082 32.527 103.905 32.7377 103.69 32.9033C103.474 33.069 103.225 33.1857 102.96 33.2454C102.695 33.3051 102.419 33.3062 102.154 33.2488C101.888 33.1914 101.638 33.0768 101.421 32.913C100.916 32.6021 100.481 32.1903 100.142 31.7033C99.8041 31.2163 99.5701 30.6647 99.4551 30.083L97.7012 30.8372C98.2421 32.5196 99.4187 33.9242 100.98 34.7517L101.014 34.7602Z" fill="#FFED00"/>
<path d="M64.9952 15.8139C60.6655 16.7375 57.8356 19.9149 58.7676 24.2192C59.3014 26.5408 61.3773 30.8366 67.9438 29.4385C69.3802 29.192 70.7008 28.4946 71.7143 27.4474L70.5027 26.0663C69.8442 26.8846 68.9107 27.4357 67.8761 27.6168C64.6987 28.2947 62.7923 25.7104 62.3347 23.499C61.6399 20.2114 63.5548 17.9322 65.7239 17.4746C66.756 17.2308 67.8404 17.3443 68.7996 17.7966L69.1978 16.102C67.853 15.5547 66.3679 15.4537 64.9613 15.8139H64.9952Z" fill="#FFED00"/>
<path d="M135.052 37.793C134.866 37.005 134.611 33.6582 135.899 31.8619C137.069 30.2351 138.145 30.7858 138.712 31.0146C139.023 31.1679 139.293 31.3931 139.499 31.6716C139.706 31.9502 139.843 32.2739 139.899 32.616C139.966 33.287 139.792 33.9601 139.407 34.514C138.664 35.2658 137.764 35.8444 136.772 36.2086C138.701 39.6327 141.17 42.7227 144.084 45.3594V48.4605C137.306 41.9024 135.086 37.6913 135.086 37.6913L135.052 37.793Z" fill="#FFED00"/>
<path d="M138.455 36.8438C140.255 39.8308 142.498 42.5276 145.106 44.8423C145.818 45.5117 147.589 46.0624 148.589 44.944C149.009 44.457 149.219 43.8233 149.173 43.1816C149.099 42.3484 148.733 41.5682 148.14 40.9786C147.292 40.2499 143.607 36.5387 140.98 33.624C140.869 34.1172 140.693 34.5932 140.455 35.039C139.978 35.8221 139.283 36.4492 138.455 36.8438Z" fill="#FFED00"/>
<path d="M11.7676 48.3755V45.4524C14.6766 42.8087 17.14 39.713 19.0628 36.2846C18.0705 35.9204 17.1708 35.3418 16.4277 34.59C16.043 34.0361 15.8687 33.363 15.9363 32.692C15.9923 32.35 16.1291 32.0262 16.3355 31.7477C16.5418 31.4691 16.8116 31.2439 17.1225 31.0906C17.6902 30.8364 18.7578 30.2433 19.9356 31.9379C21.2065 33.7003 20.8761 37.0217 20.6896 37.8097C20.6896 37.8097 18.3765 41.8429 11.7676 48.4179V48.3755Z" fill="#FFED00"/>
<path d="M17.2753 36.8438C15.4739 39.8323 13.2283 42.5293 10.6155 44.8423C9.91229 45.5117 8.14143 46.0624 7.14161 44.944C6.72129 44.457 6.51108 43.8233 6.55699 43.1816C6.63127 42.3484 6.99736 41.5682 7.59069 40.9786C8.43799 40.2499 12.1153 36.5387 14.7504 33.624C14.8609 34.1172 15.0376 34.5932 15.2757 35.039C15.7528 35.8221 16.4476 36.4492 17.2753 36.8438Z" fill="#FFED00"/>
<path d="M3.50781 86.3347C3.50781 84.1562 4.15382 82.0266 5.36415 80.2152C6.57449 78.4038 8.29478 76.992 10.3075 76.1583C12.3202 75.3246 14.5349 75.1065 16.6716 75.5315C18.8083 75.9565 20.771 77.0056 22.3114 78.546C23.8519 80.0865 24.901 82.0491 25.326 84.1858C25.751 86.3225 25.5329 88.5372 24.6992 90.55C23.8655 92.5627 22.4537 94.283 20.6423 95.4933C18.8309 96.7036 16.7013 97.3496 14.5227 97.3496C11.6014 97.3496 8.7997 96.1891 6.73401 94.1234C4.66831 92.0577 3.50781 89.2561 3.50781 86.3347Z" fill="#DC2311"/>
<path d="M20.3953 78.3615L21.0647 78.9038C22.0522 79.7332 22.8424 80.7723 23.3778 81.9456C24.0048 83.4538 22.0645 85.7076 21.4968 86.2414C18.9549 88.6392 17.3281 88.5969 16.413 88.7324C16.2398 88.7792 16.0582 88.7856 15.8821 88.7509C15.7061 88.7163 15.5404 88.6416 15.3979 88.5326C15.2553 88.4237 15.1398 88.2834 15.0602 88.1226C14.9805 87.9619 14.939 87.7849 14.9387 87.6055C15.2035 85.4753 15.8462 83.4094 16.8366 81.505C17.027 81.2292 17.2722 80.9955 17.5568 80.8187C18.4293 80.6272 19.2358 80.2093 19.8954 79.607C20.188 79.2542 20.3628 78.8187 20.3953 78.3615ZM11.1851 76.9041C12.228 76.5522 13.3212 76.3719 14.4218 76.3703C16.0885 76.3108 17.7375 76.7282 19.1752 77.5735C19.3302 77.665 19.4557 77.799 19.5368 77.9597C19.6179 78.1204 19.6512 78.301 19.6327 78.4801C19.6327 79.7765 17.5907 80.2171 16.2435 80.2171C14.7953 80.1134 13.369 79.8053 12.007 79.302C10.8293 78.9376 10.5666 78.2429 10.5666 77.9378C10.5666 77.6328 10.7869 77.0312 11.1682 76.9041H11.1851ZM6.83002 92.7656C5.25101 91.0011 4.40278 88.7018 4.45758 86.3346C4.45439 85.3558 4.59718 84.382 4.88123 83.4453C4.88123 83.4453 5.11001 83.0216 5.33878 83.3775C5.56755 83.7334 5.72006 83.8943 5.91493 84.2248C6.10981 84.5552 7.19436 85.3941 7.09268 86.038C6.8466 88.1027 6.87225 90.1907 7.16895 92.2487C7.28757 92.7825 7.1181 93.0367 6.83002 92.7487V92.7656ZM7.09268 84.4197C6.54716 83.8827 6.1175 83.2397 5.83021 82.5302C5.68977 82.0883 5.71079 81.6109 5.88952 81.183C6.65705 79.7075 7.86543 78.5081 9.3465 77.7514C9.51596 77.6752 9.7871 77.6667 9.7871 78.0904C9.7871 78.3276 9.89725 78.7004 9.90572 78.9377C9.98477 79.3135 9.91491 79.7053 9.71085 80.0307C8.87564 81.29 8.21174 82.6548 7.73664 84.0893C7.66038 84.3943 7.58412 84.6993 7.09268 84.4282V84.4197ZM14.6337 96.2819H14.4218C12.6604 96.2282 10.9363 95.7609 9.38887 94.9177C8.16029 94.2314 7.69427 91.0879 7.69427 89.4781C7.64672 86.3272 8.50867 83.2295 10.1769 80.556C10.3569 80.288 10.6227 80.0892 10.9307 79.9923C11.2386 79.8953 11.5703 79.9058 11.8715 80.0222C12.4391 80.1747 12.6595 80.2933 13.3119 80.4882C13.6677 80.5984 14.371 80.7424 14.9048 80.861C15.4386 80.9796 16.0063 81.0898 15.6674 82.0727C14.7904 84.0305 14.2463 86.121 14.0575 88.258C13.9266 90.5056 14.2139 92.758 14.9048 94.9008C15.2776 95.9175 15.2691 96.2988 14.7014 96.2819H14.6337ZM17.2518 95.8752C16.6757 96.0616 16.4045 95.6549 16.1503 95.3499C15.1251 94.1806 14.8624 91.0371 14.8624 90.6134C14.8624 90.1898 15.0149 89.7661 15.303 89.7661C17.4543 89.783 19.5405 89.0285 21.1833 87.6394C22.222 86.7827 23.0655 85.7138 23.6574 84.5044C23.8014 84.2163 24.1234 84.2672 24.1997 84.6908C24.3136 85.2318 24.3788 85.782 24.3946 86.3346C24.3647 88.4786 23.6578 90.5582 22.375 92.2763C21.0921 93.9944 19.299 95.2629 17.2518 95.9006V95.8752Z" fill="#FFED00"/>
<path d="M152.446 86.3347C152.446 84.1562 151.8 82.0266 150.589 80.2152C149.379 78.4038 147.659 76.992 145.646 76.1583C143.633 75.3246 141.419 75.1065 139.282 75.5315C137.145 75.9565 135.183 77.0056 133.642 78.546C132.102 80.0865 131.053 82.0491 130.628 84.1858C130.203 86.3225 130.421 88.5372 131.254 90.55C132.088 92.5627 133.5 94.283 135.311 95.4933C137.123 96.7036 139.252 97.3496 141.431 97.3496C144.352 97.3496 147.154 96.1891 149.22 94.1234C151.285 92.0577 152.446 89.2561 152.446 86.3347Z" fill="#DC2311"/>
<path d="M136.017 79.6066C136.679 80.2102 137.489 80.6282 138.364 80.8182C138.647 80.9973 138.892 81.2305 139.085 81.5045C140.068 83.4112 140.708 85.4764 140.974 87.6051C140.974 87.7845 140.932 87.9614 140.853 88.1222C140.773 88.2829 140.657 88.4232 140.515 88.5322C140.372 88.6411 140.207 88.7158 140.031 88.7505C139.855 88.7851 139.673 88.7788 139.5 88.732C138.585 88.5964 136.958 88.6388 134.416 86.2409C133.84 85.7071 131.874 83.4533 132.535 81.9451C133.062 80.7691 133.85 79.7288 134.84 78.9033L135.501 78.361C135.533 78.8182 135.708 79.2538 136 79.6066H136.017ZM145.338 77.912C145.338 78.217 145.084 78.9118 143.897 79.2761C142.535 79.7793 141.109 80.0874 139.661 80.1912C138.297 80.1912 136.272 79.7506 136.272 78.4542C136.255 78.2754 136.289 78.0956 136.37 77.9353C136.451 77.7749 136.576 77.6406 136.729 77.5476C138.167 76.7023 139.816 76.2849 141.482 76.3445C142.583 76.346 143.676 76.5263 144.719 76.8783C145.1 77.0054 145.321 77.6154 145.321 77.912H145.338ZM148.727 92.2398C149.024 90.1818 149.049 88.0938 148.803 86.0291C148.701 85.3851 149.778 84.5633 149.981 84.2159C150.184 83.8685 150.396 83.6058 150.557 83.3686C150.718 83.1313 151.015 83.4364 151.015 83.4364C151.301 84.3726 151.447 85.3464 151.447 86.3256C151.499 88.694 150.648 90.9935 149.066 92.7567C148.778 93.0447 148.617 92.7567 148.727 92.2568V92.2398ZM148.159 84.0549C147.688 82.619 147.024 81.2537 146.185 79.9963C145.989 79.668 145.92 79.2792 145.99 78.9033C145.99 78.6745 146.117 78.3017 146.117 78.056C146.117 77.6323 146.38 77.6408 146.549 77.7171C148.031 78.476 149.241 79.6746 150.015 81.1487C150.195 81.5765 150.213 82.0556 150.066 82.4959C149.778 83.2053 149.349 83.8484 148.803 84.3853C148.312 84.6565 148.235 84.3853 148.159 84.0464V84.0549ZM141.067 94.9003C141.736 92.7533 142.006 90.5018 141.864 88.2575C141.673 86.1219 141.131 84.0323 140.262 82.0722C139.915 81.0893 140.491 80.9707 141.016 80.8606C141.542 80.7504 142.254 80.5979 142.609 80.4878C143.262 80.2929 143.457 80.1742 144.05 80.0217C144.351 79.9085 144.682 79.8995 144.989 79.9962C145.296 80.093 145.562 80.2899 145.744 80.5555C147.409 83.2307 148.27 86.3273 148.227 89.4776C148.227 91.0875 147.761 94.231 146.532 94.9173C144.985 95.7604 143.261 96.2277 141.499 96.2814H141.288C140.72 96.2814 140.711 95.9171 141.093 94.9003H141.067ZM131.51 86.3087C131.523 85.7564 131.586 85.2063 131.696 84.6649C131.772 84.2413 132.094 84.1905 132.247 84.4785C132.831 85.6904 133.673 86.7602 134.713 87.6135C136.356 89.0013 138.442 89.7556 140.593 89.7403C140.881 89.7403 141.033 90.1978 141.033 90.5876C141.033 90.9773 140.771 94.1547 139.746 95.324C139.483 95.629 139.22 96.0357 138.644 95.8493C136.594 95.217 134.799 93.9497 133.516 92.2302C132.234 90.5107 131.531 88.4282 131.51 86.2833V86.3087Z" fill="#FFED00"/>
<path d="M130.477 86.2756C130.473 83.7109 131.359 81.2243 132.984 79.2398C134.609 77.2553 136.871 75.8957 139.386 75.3929C141.901 74.89 144.513 75.275 146.776 76.4821C149.039 77.6893 150.813 79.6439 151.796 82.0128C152.779 84.3817 152.91 87.0182 152.166 89.4729C151.423 91.9275 149.851 94.0483 147.719 95.4737C145.587 96.8992 143.026 97.541 140.474 97.2898C137.921 97.0386 135.535 95.91 133.722 94.0962C131.646 92.0226 130.479 89.2096 130.477 86.2756ZM130.595 86.2756C130.597 88.8082 131.477 91.2619 133.084 93.2186C134.692 95.1753 136.929 96.514 139.413 97.0066C141.897 97.4992 144.475 97.1152 146.708 95.9201C148.941 94.7249 150.691 92.7926 151.658 90.4522C152.626 88.1119 152.753 85.5084 152.016 83.0852C151.28 80.6621 149.726 78.5692 147.62 77.1633C145.513 75.7573 142.984 75.1252 140.464 75.3746C137.944 75.6241 135.588 76.7397 133.798 78.5313C132.782 79.5481 131.976 80.7557 131.428 82.0848C130.88 83.4138 130.6 84.838 130.604 86.2756H130.595Z" fill="#FFE500"/>
</svg>
