<svg width="165" height="156" viewBox="0 0 165 156" fill="none" xmlns="http://www.w3.org/2000/svg">
<path d="M41.8197 6.65332L0.798828 77.733L41.8197 148.807H123.862L164.879 77.733L123.862 6.65332H41.8197Z" fill="white"/>
<path d="M122.978 8.18066C123.412 8.93191 162.684 76.9847 163.119 77.7334C162.685 78.4822 123.413 146.532 122.978 147.283H42.7001C42.2685 146.531 2.99361 78.4818 2.5625 77.733C2.99361 76.9847 42.2685 8.93191 42.7001 8.18066H122.978Z" fill="black"/>
<path d="M49.4703 19.9175L16.1055 77.7328L49.4703 135.542H116.202L149.573 77.7328L116.202 19.9175H49.4703Z" fill="white"/>
<path d="M115.029 21.9536C115.601 22.9446 146.651 76.7449 147.22 77.7326C146.651 78.7241 115.601 132.515 115.029 133.506H50.6438C50.0748 132.515 19.0246 78.7241 18.4531 77.7326C19.025 76.7445 50.0748 22.9446 50.6438 21.9536H115.029V21.9536Z" fill="#F6A800"/>
<path d="M73.4584 51.2892H92.1483L102.143 26.2188L129.199 81.1687L99.9419 98.4572L90.5643 129.241H75.1112L65.7634 98.4095L36.4766 81.1687L63.4877 26.2188L73.4584 51.2892Z" fill="black"/>
<path d="M102.167 71.6025V86.3909H88.3457L102.167 71.6025Z" fill="white"/>
<path d="M63.5117 86.3909V71.6025L77.3095 86.3909H63.5117Z" fill="white"/>
</svg>
