<svg width="250" height="100" viewBox="0 0 250 100" fill="none" xmlns="http://www.w3.org/2000/svg">
<path d="M35.1544 58.4376C35.1544 62.1038 33.8741 65.1231 31.4202 67.2797C28.8595 69.4363 25.552 70.6224 21.391 70.6224H4V29H20.2174C28.4327 29 33.8741 33.5289 33.8741 40.8613C33.8741 44.4197 32.5938 47.1155 30.0331 49.1642C33.4473 51.213 35.1544 54.2322 35.1544 58.4376ZM14.5626 38.489V45.0667H20.004C21.9245 45.0667 23.3115 43.8806 23.3115 41.8318C23.3115 39.8908 21.9245 38.5969 20.004 38.5969H14.5626V38.489ZM21.0709 61.1334C23.2048 61.1334 24.6985 59.7316 24.6985 57.575C24.6985 55.4184 23.2048 54.0166 21.0709 54.0166H14.5626V61.0255H21.0709V61.1334Z" fill="white"/>
<path d="M48.2988 59.3869C49.2591 61.867 51.4996 63.0532 54.9138 63.0532C57.0477 63.0532 58.7548 62.2983 60.2485 61.0044L67.2902 65.9646C64.4095 69.6308 60.1418 71.4639 54.5937 71.4639C49.5791 71.4639 45.6315 69.9543 42.5374 67.0429C39.55 64.0236 38.0563 60.3574 38.0563 55.8285C38.0563 51.4075 39.55 47.6334 42.4307 44.6142C45.4181 41.5949 49.1524 40.0853 53.6335 40.0853C58.0079 40.0853 61.6355 41.5949 64.5162 44.5064C67.3969 47.5256 68.7839 51.1918 68.7839 55.7207C68.7839 57.0147 68.6772 58.3086 68.3571 59.3869H48.2988ZM59.5016 52.4858C58.7548 49.6822 56.8343 48.2804 53.9536 48.2804C50.9661 48.2804 49.0457 49.6822 48.1921 52.4858H59.5016Z" fill="white"/>
<path d="M92.4319 50.2956H86.3503V58.922C86.3503 61.5099 88.0574 61.9412 92.4319 61.6177V70.5676C86.5637 71.3224 82.5094 70.7833 80.0555 68.9502C77.7082 67.1171 76.5346 63.8822 76.5346 59.1376V50.2956H72.1602V40.8065H76.5346V35.415L86.3503 32.3958V40.8065H92.4319V50.2956Z" fill="white"/>
<path d="M129.047 58.4379C129.047 62.1041 127.766 65.1233 125.313 67.2799C122.752 69.4365 119.444 70.6227 115.283 70.6227H97.7856V29.0002H114.003C122.218 29.0002 127.553 33.5291 127.553 40.8616C127.553 44.4199 126.273 47.1157 123.712 49.1645C127.34 51.2132 129.047 54.2325 129.047 58.4379ZM108.348 38.4893V45.0669H113.79C115.71 45.0669 117.097 43.8808 117.097 41.832C117.097 39.8911 115.71 38.5971 113.79 38.5971H108.348V38.4893ZM114.857 61.1336C116.99 61.1336 118.484 59.7318 118.484 57.5752C118.484 55.4186 116.99 54.0168 114.857 54.0168H108.348V61.0258H114.857V61.1336Z" fill="white"/>
<path d="M136.596 66.935C133.502 63.9158 132.008 60.1417 132.008 55.7207C132.008 51.2997 133.502 47.6334 136.596 44.6142C139.69 41.5949 143.318 40.0853 147.692 40.0853C152.067 40.0853 155.801 41.5949 158.788 44.6142C161.882 47.6334 163.376 51.2997 163.376 55.7207C163.376 60.1417 161.882 63.9158 158.788 66.935C155.801 69.9543 152.067 71.4639 147.692 71.4639C143.318 71.4639 139.69 69.9543 136.596 66.935ZM153.667 55.7207C153.667 52.0545 151.213 49.5744 147.692 49.5744C144.385 49.5744 141.824 52.1623 141.824 55.7207C141.824 59.3869 144.385 61.867 147.692 61.867C151.213 61.9749 153.667 59.3869 153.667 55.7207Z" fill="white"/>
<path d="M170.975 66.935C167.881 63.9158 166.387 60.1417 166.387 55.7207C166.387 51.2997 167.881 47.6334 170.975 44.6142C174.069 41.5949 177.696 40.0853 182.071 40.0853C186.445 40.0853 190.18 41.5949 193.167 44.6142C196.261 47.6334 197.755 51.2997 197.755 55.7207C197.755 60.1417 196.261 63.9158 193.167 66.935C190.18 69.9543 186.445 71.4639 182.071 71.4639C177.696 71.4639 173.962 69.9543 170.975 66.935ZM187.939 55.7207C187.939 52.0545 185.485 49.5744 181.964 49.5744C178.657 49.5744 176.096 52.1623 176.096 55.7207C176.096 59.3869 178.657 61.867 181.964 61.867C185.485 61.9749 187.939 59.3869 187.939 55.7207Z" fill="white"/>
<path d="M246 52.3805V70.6046H236.184V53.5667C236.184 50.763 234.903 49.3611 232.556 49.3611C229.889 49.3611 228.501 51.3022 228.501 54.3216V70.6046H218.685V53.5667C218.685 50.763 217.405 49.3611 214.951 49.3611C212.283 49.3611 210.896 51.3022 210.896 54.3216V70.6046H201.08V40.8422H210.896V43.6459C212.71 41.1657 215.378 39.9795 218.792 39.9795C222.1 39.9795 224.66 41.2735 226.368 43.7537C228.395 41.1657 231.276 39.9795 234.903 39.9795C241.732 40.0873 246 44.7242 246 52.3805Z" fill="white"/>
</svg>
