<svg width="250" height="100" viewBox="0 0 250 100" fill="none" xmlns="http://www.w3.org/2000/svg">
<g clip-path="url(#clip0_4301_1334)">
<path d="M47.6245 34.5H73.7841L72.6525 41.6558H55.2602L54.6239 45.7346H65.017L63.8151 53.1051H53.4927L52.7857 57.9711H71.8747L70.6732 65.5563H42.7461L47.6245 34.5Z" fill="white"/>
<path d="M87.0759 42.1567H76.1172L77.3187 34.5H108.003L106.731 42.1567H95.772L92.0956 65.5563H83.3995L87.0759 42.1567Z" fill="white"/>
<path d="M108.638 51.5318C108.285 41.442 115.213 34 124.687 34C135.717 34 138.969 41.442 139.323 45.02H130.414C129.99 44.1612 128.434 41.943 124.97 41.943C120.092 41.943 117.335 46.1649 117.546 51.1024C117.688 55.1096 119.879 58.1151 123.698 58.1151C127.232 58.1151 128.788 56.0399 129.283 55.2528H138.12C137.555 58.0435 133.949 66.058 123.98 66.058C114.86 66.058 108.921 60.1187 108.638 51.5318Z" fill="white"/>
<path d="M145.617 34.5H154.383L151.485 53.1767L167.958 34.5H176.725L171.847 65.5563H163.08L165.979 46.9511L149.506 65.5563H140.738L145.617 34.5Z" fill="white"/>
<path d="M190.724 42.1567H179.766L180.967 34.5H211.652L210.45 42.1567H199.491L195.815 65.5563H187.118L190.724 42.1567Z" fill="white"/>
<path d="M215.965 34.5H224.732L221.762 53.2482L238.235 34.5716H247.003L242.124 65.6278H233.358L236.256 47.0227L219.783 65.6278H211.016L215.965 34.5Z" fill="white"/>
<path d="M27.5436 46.0198H19.7664L20.4027 42.2272H38.8558L40.0577 34.5704H12.767L10.9994 46.0198H5.13122L4 53.0325H9.86821L7.88857 65.5551H25.9881C34.4723 65.5551 40.1284 61.8341 39.8456 54.2489C39.7041 48.9536 35.3206 46.0198 27.5436 46.0198ZM26.7658 57.8268H17.8575L18.6351 53.0325H27.8263C29.6646 53.0325 30.5837 53.6764 30.5837 54.8929C30.7251 56.825 29.1697 57.8268 26.7658 57.8268Z" fill="white"/>
</g>
<defs>
<clipPath id="clip0_4301_1334">
<rect width="243" height="32.058" fill="white" transform="translate(4 34)"/>
</clipPath>
</defs>
</svg>
