<svg width="250" height="100" viewBox="0 0 250 100" fill="none" xmlns="http://www.w3.org/2000/svg">
<g clip-path="url(#clip0_4301_1274)">
<path fill-rule="evenodd" clip-rule="evenodd" d="M75.0532 28.9444C77.2494 30.0154 78.9299 31.539 80.0999 33.5127C81.2675 35.4915 81.9216 37.8862 82.0654 40.6756C82.2012 43.4781 81.883 46.5965 81.1006 50.0464C80.2898 53.5777 79.1916 56.7539 77.8113 59.5723C76.4284 62.388 74.7273 64.788 72.6977 66.7589C70.6682 68.7354 68.2821 70.2509 65.5444 71.3036C62.7991 72.3536 59.6869 72.8772 56.2026 72.8772C52.885 72.8772 50.1116 72.3613 47.9128 71.3379C45.7139 70.3064 44.0538 68.8141 42.9427 66.8564C41.8268 64.9037 41.211 62.5118 41.1007 59.6961C40.9825 56.8777 41.3289 53.7015 42.1346 50.1727C42.9224 46.7254 44.0589 43.5913 45.5444 40.7756C47.0275 37.9573 48.8029 35.5468 50.8787 33.5495C52.9543 31.5496 55.3251 30.0154 57.9857 28.9444C60.649 27.8734 63.5791 27.3418 66.781 27.3418C70.1038 27.3418 72.8595 27.8734 75.0532 28.9444ZM68.8393 50.1078C69.1754 48.471 69.4012 46.9 69.5113 45.4106C69.6267 43.9185 69.5448 42.6212 69.2601 41.5239C68.9777 40.4318 68.4337 39.566 67.6409 38.9134C66.8483 38.2634 65.7345 37.9345 64.3029 37.9345C63.1125 37.9345 61.9937 38.2477 60.9496 38.8818C59.9028 39.5134 58.9715 40.366 58.1502 41.437C57.3268 42.5054 56.621 43.7606 56.0028 45.1895C55.387 46.6184 54.9073 48.1079 54.5481 49.6684C54.1118 51.6051 53.8372 53.3498 53.7244 54.8972C53.6192 56.4604 53.7244 57.7734 54.0606 58.8419C54.3839 59.9208 54.9534 60.7495 55.7615 61.3391C56.5723 61.926 57.6756 62.2206 59.0663 62.2206C60.4211 62.2206 61.6219 61.897 62.6711 61.2416C63.7256 60.5945 64.6441 59.7103 65.4268 58.5944C66.2169 57.4812 66.8917 56.1866 67.4459 54.7182C68.0105 53.2445 68.475 51.7104 68.8393 50.1078Z" fill="white"/>
<path d="M22.5143 39.2585C22.1936 39.5979 21.9396 39.9769 21.7626 40.3979C21.5906 40.819 21.4444 41.2374 21.352 41.6584L20.4617 45.5662H36.6362C37.1288 45.5662 37.424 45.653 37.5317 45.8188C37.6369 45.9899 37.6061 46.4346 37.4419 47.1425L35.9436 53.708C35.7252 54.6739 35.2276 55.1555 34.4476 55.1555H18.2757L14.676 70.926C14.5579 71.4285 14.4066 71.7679 14.227 71.9313C14.0499 72.1049 13.6086 72.189 12.9056 72.189H4.17695C3.23532 72.189 2.85302 71.7679 3.05059 70.926L10.1013 40.0164C10.4502 38.5032 10.9916 37.0244 11.7356 35.5718C12.4771 34.1218 13.4316 32.8429 14.6093 31.7271C15.7869 30.6088 17.2109 29.7088 18.8812 29.043C20.5515 28.372 22.4733 28.0352 24.6439 28.0352H43.3455C43.8383 28.0352 44.1383 28.1115 44.2514 28.2588C44.3539 28.3983 44.3258 28.8299 44.1667 29.5456L42.5424 36.6744C42.4117 37.2243 42.2499 37.5928 42.0397 37.7796C41.8318 37.9691 41.5034 38.0638 41.0569 38.0638H25.8677C25.0442 38.0638 24.3591 38.1796 23.8177 38.4112C23.2687 38.6375 22.835 38.919 22.5143 39.2585Z" fill="white"/>
<path fill-rule="evenodd" clip-rule="evenodd" d="M165.285 30.6792C164.31 29.7556 163.068 29.0845 161.567 28.6582C160.066 28.2424 158.385 28.0293 156.543 28.0293H140.551C138.875 28.0293 137.708 28.3767 137.059 29.074C136.404 29.7661 135.92 30.8082 135.606 32.195L127.43 68.0227C127.093 69.4964 127.096 70.5596 127.44 71.2043C127.784 71.8595 128.792 72.1857 130.475 72.1857H146.465C148.594 72.1857 150.652 71.8595 152.625 71.2043C154.596 70.5596 156.399 69.6333 158.021 68.436C159.648 67.236 161.033 65.807 162.17 64.1466C163.309 62.4835 164.107 60.6414 164.566 58.6231C164.797 57.6101 164.915 56.5968 164.925 55.5653C164.936 54.5338 164.792 53.547 164.5 52.6022C164.199 51.6549 163.737 50.797 163.119 50.0128C162.501 49.2366 161.672 48.5944 160.635 48.0918L160.725 47.7155C162.224 46.8682 163.589 45.684 164.792 44.1472C166.008 42.6131 166.806 41.0263 167.173 39.3842C167.637 37.3711 167.678 35.6449 167.311 34.2133C166.937 32.7871 166.267 31.6108 165.285 30.6792ZM154.884 41.2106C154.612 42.4342 154.076 43.2473 153.291 43.6736C152.501 44.092 151.692 44.3078 150.881 44.3078H144.462L145.85 38.2475H152.506C153.442 38.2475 154.127 38.5001 154.561 39.0027C154.997 39.5106 155.107 40.2448 154.884 41.2106ZM152.76 57.8056C152.655 58.261 152.484 58.7241 152.265 59.1899C152.029 59.6557 151.706 60.095 151.285 60.5161C150.862 60.9318 150.359 61.2714 149.774 61.5267C149.184 61.7712 148.483 61.903 147.667 61.903H140.45L142.333 53.6399H149.551C150.895 53.6399 151.839 54.0321 152.373 54.8083C152.907 55.5846 153.04 56.5847 152.76 57.8056Z" fill="white"/>
<path d="M188.304 28.0352H206.441C206.936 28.0352 207.241 28.1115 207.349 28.2588C207.46 28.4062 207.429 28.8378 207.267 29.5483L205.646 36.677C205.523 37.2243 205.348 37.5928 205.14 37.7796C204.935 37.9664 204.604 38.0638 204.155 38.0638H189.52C188.699 38.0638 188.011 38.1796 187.475 38.4085C186.929 38.6375 186.497 38.9243 186.174 39.2664C185.848 39.6006 185.597 39.9769 185.417 40.3979C185.24 40.8163 185.107 41.2427 185.007 41.661L184.399 44.311H200.886C201.379 44.311 201.679 44.3978 201.787 44.5583C201.889 44.732 201.859 45.1741 201.692 45.8872L200.198 52.4423C199.973 53.4134 199.475 53.8923 198.698 53.8923H182.218L181.138 58.6264C180.95 59.4315 180.899 60.0632 180.981 60.5236C181.058 60.984 181.233 61.3237 181.512 61.5605C181.789 61.7868 182.143 61.9395 182.574 62.0024C183.016 62.0683 183.506 62.0919 184.037 62.0919H199.657C200.15 62.0919 200.447 62.1709 200.558 62.3182C200.668 62.4631 200.643 62.8947 200.483 63.6104L198.852 70.7418C198.633 71.7074 198.128 72.189 197.351 72.189H178.346C175.883 72.189 173.972 71.8311 172.599 71.1181C171.221 70.3997 170.223 69.4681 169.61 68.3128C168.986 67.1498 168.681 65.8604 168.676 64.4287C168.673 62.9999 168.837 61.5921 169.15 60.2027L173.761 40.0216C174.105 38.5059 174.646 37.0217 175.388 35.5718C176.132 34.1218 177.094 32.8403 178.267 31.7271C179.444 30.6114 180.866 29.714 182.541 29.0456C184.206 28.372 186.128 28.0352 188.304 28.0352Z" fill="white"/>
<path d="M246.638 28.2562C246.49 28.1062 246.166 28.0352 245.679 28.0352H213.263C212.776 28.0352 212.417 28.1062 212.201 28.2562C211.978 28.4062 211.79 28.8351 211.626 29.5483L210.017 36.6165C209.794 37.5822 210.12 38.0638 210.977 38.0638H221.25L213.764 70.8601C213.558 71.747 213.93 72.189 214.872 72.189H223.603C224.301 72.189 224.742 72.0944 224.937 71.9075C225.12 71.7181 225.273 71.3707 225.384 70.8601L232.873 38.0638H243.388C244.25 38.0638 244.788 37.5822 245.009 36.6165L246.62 29.5483C246.787 28.8351 246.795 28.4062 246.638 28.2562Z" fill="white"/>
<path d="M119.908 28.0352H128.644C129.586 28.0352 129.958 28.4799 129.747 29.3641L120.944 67.2077C120.611 68.6364 120.046 69.826 119.253 70.768C118.461 71.7208 117.142 72.1917 115.297 72.1917H112.098C111.523 72.1917 111.007 72.1627 110.551 72.0944C110.094 72.0339 109.689 71.9075 109.347 71.7208C109.001 71.5284 108.675 71.2418 108.383 70.8601C108.074 70.4865 107.795 69.9786 107.531 69.3497L101.94 56.108L98.8404 48.2845H98.4095L93.1523 70.8601C93.0392 71.368 92.8879 71.7208 92.7007 71.9075C92.5108 72.0944 92.0696 72.1917 91.3716 72.1917H82.6403C81.6988 72.1917 81.3318 71.7497 81.5346 70.8601L90.3403 33.0245C90.7994 31.0482 91.4254 29.7193 92.2233 29.0456C93.0087 28.3773 94.2708 28.0352 95.9899 28.0352H99.1895C99.8026 28.0352 100.329 28.0694 100.765 28.1325C101.198 28.1983 101.591 28.3167 101.932 28.5167C102.281 28.7009 102.597 28.9851 102.876 29.3641C103.159 29.743 103.451 30.2509 103.754 30.8772L109.406 44.3741L112.413 52.0686H112.844L118.127 29.3641C118.245 28.8562 118.394 28.5167 118.584 28.3167C118.774 28.1325 119.215 28.0352 119.908 28.0352Z" fill="white"/>
</g>
<defs>
<clipPath id="clip0_4301_1274">
<rect width="243.749" height="48.214" fill="white" transform="translate(3 26)"/>
</clipPath>
</defs>
</svg>
