<svg width="250" height="100" viewBox="0 0 250 100" fill="none" xmlns="http://www.w3.org/2000/svg">
<g clip-path="url(#clip0_4301_1427)">
<path d="M14.9824 27.0183L15.3665 26.7832H26.7228C26.9341 26.7685 27.1452 26.8131 27.3325 26.912C27.5197 27.0109 27.6756 27.1602 27.7826 27.3429C27.8895 27.5257 27.9433 27.7347 27.9379 27.9464C27.9324 28.1581 27.8679 28.364 27.7517 28.541L19.6523 58.6221C19.5932 58.7683 19.5695 58.9264 19.5831 59.0835C19.5968 59.2407 19.6475 59.3923 19.731 59.5261C19.8145 59.6599 19.9285 59.772 20.0637 59.8533C20.1989 59.9346 20.3514 59.9828 20.5087 59.9938H42.2337C43.0469 59.8645 43.8602 60.8953 43.3507 61.6204L41.6791 67.7933C41.5497 68.4361 40.8227 68.7791 40.223 68.6497H5.12718C4.48441 68.6928 3.79852 68.0501 4.05524 67.3642L14.2554 29.1348C14.5101 28.4489 14.4513 27.5925 14.9844 27.0379L14.9824 27.0183ZM56.508 28.4744C56.5639 28.0364 56.769 27.631 57.0888 27.3265C57.4086 27.022 57.8236 26.8371 58.2638 26.8028H91.3432C92.6718 26.8028 92.9109 28.5175 92.1584 29.3739C90.5907 31.1729 89.2444 33.1874 88.0431 35.2451L87.657 35.441H69.0205C68.3777 35.3117 67.6918 35.6958 67.5214 36.3425L66.0653 41.957C65.8948 42.5997 66.6219 43.2856 67.1823 43.3287H83.5515C84.3648 43.1582 85.3093 43.6286 85.3936 44.5712L83.6789 50.9558C83.5495 51.6848 82.6932 51.9846 82.0524 51.8964C76.0557 51.8964 70.0101 51.8533 64.0116 51.9396C63.8088 52.0785 63.6089 52.2216 63.4119 52.3687C62.6398 54.5969 62.1264 56.9113 61.5267 59.1394L62.34 60.1682H85.131C85.8169 60.0389 86.4166 60.5994 86.6302 61.1971L84.8723 67.711C84.743 68.3538 84.1002 68.7399 83.4574 68.6968C71.2016 68.6536 58.9027 68.783 46.6469 68.6536C46.4764 68.4832 46.1334 68.0971 45.961 67.9246L56.504 28.4567L56.508 28.4744ZM148.73 28.0472C148.807 27.6868 149.007 27.3648 149.297 27.1377C149.587 26.9105 149.948 26.7926 150.316 26.8047L159.571 26.8478L160.257 27.3613L172.041 49.5585L172.472 49.3038L178.637 26.7832L190.552 26.8694C190.681 27.0399 190.983 27.3397 191.108 27.5122L180.565 67.2348C180.436 68.0912 179.625 68.734 178.766 68.6066C175.895 68.5635 173.025 68.6066 170.154 68.6066C169.338 68.5635 168.954 67.666 168.611 67.0643L156.953 46.7327L156.483 47.1638L150.825 68.4185L150.312 68.6144C146.369 68.5713 142.385 68.6144 138.442 68.5282C138.254 68.2892 138.054 68.0602 137.842 67.8423C142.728 61.6302 145.211 53.4446 144.015 45.6L148.728 28.0295L148.73 28.0472ZM242.873 27.0183C229.802 27.1046 216.731 26.8478 203.664 27.1477C200.921 27.7042 198.565 29.9304 198.006 32.719L192.692 54.8732C192.221 57.2738 194.318 59.6293 196.762 59.5451H234.558C237.858 59.6313 240.986 56.9975 241.586 53.8032L246.877 31.6922C247.392 29.3308 245.276 26.9321 242.873 27.0183ZM219.69 39.9169C219.733 42.2744 217.762 44.0714 215.706 44.8455L217.505 50.7167H212.963L211.548 45.3609C210.646 45.3609 209.749 45.3178 208.849 45.3609L207.564 50.7167H203.321L206.878 35.9329C209.817 35.9329 212.835 35.8467 215.791 35.976C217.805 36.1054 219.863 37.7339 219.71 39.9189L219.69 39.9169ZM234.99 46.5798C234.261 48.9804 231.776 50.3071 229.418 50.6501C227.02 50.993 224.362 50.9048 222.305 49.4743C221.019 48.6179 220.333 46.9894 220.737 45.4883L223.049 36.0172C224.378 35.6742 225.92 35.9741 227.335 35.8878C226.606 38.9724 225.791 42.0157 225.023 45.0591C224.827 45.7881 224.893 46.7307 225.622 47.2011C227.378 48.3181 230.251 47.6322 230.913 45.4863C231.77 42.3156 232.481 39.0586 233.312 35.8878C234.727 35.8447 236.183 35.8878 237.598 35.8878L235.007 46.5759L234.99 46.5798ZM214.634 39.1252C213.219 38.8705 211.805 39.039 210.392 38.9959L209.576 42.2098C211.034 42.296 212.62 42.4057 214.076 42.0804C215.404 41.8844 216.263 39.5955 214.634 39.1409V39.1252ZM112.043 26.2031C114.356 25.8602 116.756 26.0071 119.071 26.2893L124.856 36.9598L136.124 39.0174L136.21 39.0606C137.282 41.2887 138.052 43.6462 138.395 46.1311L130.596 54.5714L131.881 65.9708C130.209 67.8129 128.111 69.2709 125.924 70.4271L115.296 65.4143L104.583 70.5996C102.513 69.5147 100.597 68.1598 98.884 66.5705L100.256 54.5714L91.8997 45.7862C92.1996 43.5129 92.9717 41.3299 93.9574 39.2291L106.17 36.8285L112.043 26.2031Z" fill="white"/>
<path d="M94.0039 39.1879C97.2805 32.2037 104.331 27.0183 112.002 26.2051L106.173 36.7873C102.188 37.6888 98.0741 38.4589 94.0235 39.1879H94.0039ZM119.072 26.2462C126.356 27.422 133.084 32.2428 136.127 38.9743L124.859 36.9167C122.843 33.4461 121.044 29.8011 119.072 26.2462ZM108.529 40.7753C112.772 40.5205 117.142 40.7753 121.428 40.6459L121.682 40.8419L125.668 52.8841C122.368 55.6669 118.598 58.0694 115.125 60.7268L104.582 52.8841L108.529 40.7537V40.7753ZM91.9894 45.745L100.345 54.5303L98.9736 66.5294C93.3592 61.3441 90.5745 53.2408 91.9894 45.745ZM130.642 54.5322L138.442 46.0899C139.617 53.2036 137.156 60.9168 131.928 65.9317C131.732 62.1181 131.026 58.3477 130.642 54.5322ZM104.586 70.5134L115.3 65.3281L125.927 70.3409C119.456 73.8977 111.143 73.8977 104.567 70.5114L104.586 70.5134Z" fill="#D6161B"/>
</g>
<defs>
<clipPath id="clip0_4301_1427">
<rect width="243" height="47.0323" fill="white" transform="translate(4 26)"/>
</clipPath>
</defs>
</svg>
