<svg width="250" height="100" viewBox="0 0 250 100" fill="none" xmlns="http://www.w3.org/2000/svg">
<path d="M122.766 53.6566H116.493C113.991 53.6566 111.956 55.696 111.956 58.1976V80.6805C111.956 83.3136 113.864 85.2215 116.493 85.2215H122.766C125.267 85.2215 127.302 83.1867 127.302 80.6805V74.7437H122.448V79.756C122.448 80.3044 122 80.753 121.451 80.753H117.961C117.413 80.753 116.964 80.3044 116.964 79.756V59.0179C116.964 58.4695 117.413 58.0209 117.961 58.0209H121.451C122 58.0209 122.448 58.4695 122.448 59.0179V64.3701H127.302V58.1931C127.302 55.6869 125.267 53.6521 122.766 53.6521V53.6566Z" fill="#3BF270"/>
<path d="M143.442 59.9331H129.21V64.3744H133.897V85.2303H138.751V64.3744H143.442V59.9331Z" fill="#3BF270"/>
<path d="M65.007 74.1499H64.5311V59.9377H59.6771V85.2304H63.951L69.2718 71.6754H69.7477V85.2304H74.6017V59.9377H70.2735L65.007 74.1499Z" fill="#3BF270"/>
<path d="M44.05 53.6521L38.1218 85.2261H43.2614L47.3222 58.7868H47.7981L52.0358 85.2261H57.1889L51.3061 53.6521H44.05Z" fill="#3BF270"/>
<path d="M148.332 59.9331L143.043 85.2258H147.924L148.527 81.99H155.026L155.624 85.2258H160.524L155.262 59.9331H148.336H148.332ZM149.311 77.7934L151.568 64.3744H152.026L154.256 77.7934H149.315H149.311Z" fill="#3BF270"/>
<path d="M93.1839 59.9331L87.8948 85.2258H92.776L93.3788 81.99H99.878L100.476 85.2258H105.376L100.114 59.9331H93.1884H93.1839ZM94.1628 77.7934L96.4199 64.3744H96.8776L99.1075 77.7934H94.1674H94.1628Z" fill="#3BF270"/>
<path d="M89.2318 59.9331H78.2321V85.2303H83.0906V64.3744H89.2318V59.9331Z" fill="#3BF270"/>
<path d="M190.019 59.9331H184.653C182.151 59.9331 180.116 61.9725 180.116 64.4741V80.6893C180.116 83.191 182.151 85.2303 184.653 85.2303H190.019C192.521 85.2303 194.556 83.1955 194.556 80.6893V64.4741C194.556 61.9679 192.521 59.9331 190.019 59.9331ZM189.702 79.7648C189.702 80.3132 189.253 80.7619 188.705 80.7619H185.963C185.415 80.7619 184.966 80.3132 184.966 79.7648V65.3941C184.966 64.8457 185.415 64.3971 185.963 64.3971H188.705C189.253 64.3971 189.702 64.8502 189.702 65.4122V79.7648Z" fill="#3BF270"/>
<path d="M213.469 59.9377H208.234L203.847 70.6694H203.004V59.9377H198.191V85.2304H203.004V74.8705H204.037L208.497 85.2304H213.741L208.116 72.5456L213.469 59.9377Z" fill="#3BF270"/>
<path d="M173.676 72.872V72.4007H173.672C175.548 72.0109 176.962 70.3386 176.962 68.34V64.4652C176.962 61.9727 174.927 59.9424 172.425 59.9424H163.003V85.2351H172.652C175.154 85.2351 177.193 83.2002 177.193 80.6941V77.1184C177.193 75.0156 175.679 73.2617 173.681 72.8765L173.676 72.872ZM167.857 64.3882H171.111C171.659 64.3882 172.108 64.8369 172.108 65.3852V69.6815C172.108 70.2299 171.659 70.6785 171.111 70.6785H167.857V64.3882ZM172.335 79.7696C172.335 80.3179 171.886 80.7666 171.337 80.7666H167.857V74.8751H171.337C171.886 74.8751 172.335 75.3237 172.335 75.8721V79.7696Z" fill="#3BF270"/>
<path d="M16 15.4387V85.2304H29.429V28.178H220.571V85.2304H234V15.4387H16Z" fill="#3BF270"/>
</svg>
