<svg width="250" height="100" viewBox="0 0 250 100" fill="none" xmlns="http://www.w3.org/2000/svg">
<path d="M2 17.6208H14.555L19.4179 36.522L24.2807 17.6208H36.8357V48.7678H28.9667V24.9861L22.9545 48.6791H15.8812L9.86898 24.9861V48.6791H2V17.6208Z" fill="white"/>
<path d="M62.0336 43.5334H51.1585L49.6554 48.6802H39.9297L51.6005 17.5332H62.0336L73.7044 48.6802H63.7135L62.0336 43.5334ZM60.0884 36.8781L56.6402 25.6971L53.2804 36.8781H60.0884Z" fill="white"/>
<path d="M76.625 17.6211H92.5398C95.988 17.6211 98.6405 18.4197 100.32 20.1058C102.089 21.7918 102.884 24.099 102.884 27.2048C102.884 30.3106 101.912 32.7953 100.055 34.57C98.1984 36.3448 95.2807 37.2322 91.4788 37.2322H86.2623V48.7681H76.625V17.6211ZM86.2623 30.843H88.6495C90.5062 30.843 91.8325 30.4881 92.5398 29.8669C93.2471 29.2458 93.6892 28.3584 93.6892 27.3823C93.6892 26.4061 93.3355 25.6075 92.7166 24.8976C92.0977 24.1877 90.8599 23.9215 89.0916 23.9215H86.3507V30.843H86.2623Z" fill="white"/>
<path d="M124.368 43.5334H113.493L111.99 48.6802H102.176L113.847 17.5332H124.28L135.951 48.6802H125.96L124.368 43.5334ZM122.423 36.8781L118.975 25.6971L115.615 36.8781H122.423Z" fill="white"/>
<path d="M160.177 19.9291C169.637 20.9052 174.323 25.1647 174.323 32.7074C174.323 40.3388 169.637 44.5983 160.177 45.4856V48.6802H151.424V45.3969C142.052 44.5983 137.277 40.3388 137.277 32.7074C137.277 25.1647 141.963 20.9052 151.424 19.9291V17.5332H160.177V19.9291ZM151.512 39.0078V26.2295C150.098 26.6732 148.948 27.4718 148.064 28.6254C147.18 29.8678 146.738 31.1988 146.738 32.7961C146.738 34.2159 147.18 35.547 148.064 36.7006C148.86 37.7654 150.009 38.5641 151.512 39.0078ZM160.177 39.0078C161.68 38.5641 162.829 37.7654 163.714 36.7006C164.509 35.547 164.951 34.2159 164.951 32.6186C164.951 31.1101 164.509 29.779 163.714 28.5367C162.829 27.3831 161.68 26.4957 160.265 26.052V39.0078H160.177Z" fill="white"/>
<path d="M179.363 33.1503C179.363 28.0922 180.778 24.099 183.607 21.2594C186.437 18.4198 190.327 17 195.366 17C200.495 17 204.473 18.4198 207.303 21.1707C210.132 23.9216 211.458 27.826 211.458 32.8841C211.458 36.5223 210.839 39.5394 209.601 41.8466C208.364 44.1538 206.595 46.0173 204.296 47.2596C201.998 48.5907 199.08 49.2118 195.72 49.2118C192.184 49.2118 189.354 48.6794 187.055 47.5258C184.757 46.3722 182.9 44.5975 181.485 42.2016C180.071 39.8056 179.363 36.7885 179.363 33.1503ZM188.912 33.239C188.912 36.3449 189.531 38.652 190.68 39.9831C191.83 41.3142 193.421 42.0241 195.455 42.0241C197.488 42.0241 199.08 41.3142 200.229 39.9831C201.379 38.652 201.909 36.2561 201.909 32.7066C201.909 29.7783 201.29 27.6485 200.141 26.3175C198.992 24.9864 197.4 24.2765 195.366 24.2765C193.421 24.2765 191.918 24.9864 190.68 26.3175C189.531 27.7373 188.912 30.0445 188.912 33.239Z" fill="white"/>
<path d="M217.293 17.6211H226.842V28.5359H237.363V17.6211H247.001V48.7681H237.363V36.0786H226.93V48.6794H217.381V17.6211H217.293Z" fill="white"/>
<path d="M98.1053 68.2876H101.111C103.852 68.2876 105.886 68.7313 107.212 69.7074C108.538 70.6836 109.246 72.1921 109.246 74.2331C109.246 75.9191 108.627 77.1614 107.389 78.0488C106.151 78.9362 104.383 79.3799 102.172 79.3799H92.5352V61.2773H107.831V65.0043H98.1938V68.2876H98.1053ZM98.1053 75.5641H100.935C102.703 75.5641 103.587 74.943 103.587 73.6119C103.587 72.4583 102.703 71.9259 100.935 71.9259H98.1053V75.5641Z" fill="white"/>
<path d="M116.852 61.2773H131.882V65.1818H122.422V68.1102H131.175V71.8371H122.422V75.3867H132.147V79.4686H116.852V61.2773Z" fill="white"/>
<path d="M139.484 61.2773H156.549V65.803H150.802V79.4686H145.232V65.7142H139.484V61.2773Z" fill="white"/>
<path d="M53.8949 65.0068L62.3827 69.2663C59.9071 64.9181 55.6632 62.256 49.5625 62.5222C51.5961 66.6929 55.4863 69.7099 61.587 69.7987L53.8949 65.0068Z" fill="white"/>
<path d="M40.6314 63.2306L47.9699 69.0873C46.5553 64.3842 42.9302 60.8346 36.918 59.9473C37.979 64.3842 41.3387 68.4661 47.351 69.7084C47.351 69.7972 40.6314 63.2306 40.6314 63.2306Z" fill="white"/>
<path d="M28.1655 60.8338L35.0619 67.1342C33.9125 62.3424 30.6412 58.6154 24.6289 57.373C25.3362 61.8987 28.6076 66.2468 34.5314 67.8441L28.1655 60.8338Z" fill="white"/>
<path d="M55.9287 79.7352L62.7367 73.6123C61.6757 78.4041 58.4043 82.0424 52.4805 83.1959C53.0994 78.7591 55.9287 74.4996 61.8525 72.9911C61.8525 72.9024 55.9287 79.7352 55.9287 79.7352Z" fill="white"/>
<path d="M38.952 78.4037L47.4399 74.588C44.8759 78.7587 40.5435 81.2433 34.5312 80.6222C36.6532 76.629 40.8972 73.5231 46.9978 73.7894C47.0863 73.7894 38.952 78.4037 38.952 78.4037Z" fill="white"/>
<path d="M25.5117 73.4345L34.5301 71.7484C31.4355 75.2092 26.7495 76.4516 20.9141 74.6768C23.4781 71.3048 28.341 69.4413 34.2648 70.8611C34.2648 70.7723 25.5117 73.4345 25.5117 73.4345Z" fill="white"/>
<path d="M15.875 61.7218L24.7165 65.1826C21.8872 61.1006 17.2896 58.7934 11.2773 59.6808C13.6646 63.674 18.1738 66.6911 24.2744 66.1587C24.3628 66.1587 15.875 61.7218 15.875 61.7218Z" fill="white"/>
<path d="M69.7206 68.7302L71.1353 69.9726C71.1353 69.9726 63.9736 74.5869 45.2295 72.2797C32.7629 70.7712 24.9824 65.8906 25.1592 65.8906C31.2599 68.2865 41.1624 71.9248 51.7723 71.4811C62.3821 71.1262 65.0346 70.7712 69.7206 68.7302Z" fill="white"/>
<path d="M195.093 65.0068L186.605 69.2663C189.081 64.9181 193.325 62.256 199.426 62.5222C197.392 66.6929 193.502 69.7099 187.401 69.7987L195.093 65.0068Z" fill="white"/>
<path d="M208.354 63.2306L201.016 69.0873C202.43 64.3842 206.055 60.8346 212.068 59.9473C211.007 64.3842 207.647 68.4661 201.635 69.7084C201.635 69.7972 208.354 63.2306 208.354 63.2306Z" fill="white"/>
<path d="M220.822 60.8338L213.926 67.1342C215.075 62.3424 218.347 58.6154 224.359 57.373C223.651 61.8987 220.38 66.2468 214.456 67.8441C214.368 67.8441 220.822 60.8338 220.822 60.8338Z" fill="white"/>
<path d="M193.058 79.7352L186.25 73.6123C187.311 78.4041 190.582 82.0424 196.506 83.1959C195.887 78.7591 192.97 74.4996 187.134 72.9911C187.134 72.9024 193.058 79.7352 193.058 79.7352Z" fill="white"/>
<path d="M210.035 78.4037L201.547 74.588C204.111 78.7587 208.443 81.2433 214.456 80.6222C212.334 76.629 208.09 73.5231 201.989 73.7894C201.901 73.7894 210.035 78.4037 210.035 78.4037Z" fill="white"/>
<path d="M223.475 73.4345L214.457 71.7484C217.552 75.2092 222.238 76.4516 228.073 74.6768C225.509 71.3048 220.646 69.4413 214.722 70.8611C214.722 70.7723 223.475 73.4345 223.475 73.4345Z" fill="white"/>
<path d="M233.111 61.722L224.27 65.1828C227.099 61.1009 231.696 58.7937 237.709 59.681C235.321 63.6743 230.812 66.6913 224.712 66.1589C224.623 66.1589 233.111 61.722 233.111 61.722Z" fill="white"/>
<path d="M179.266 68.7302L177.852 69.9726C177.852 69.9726 185.013 74.5869 203.757 72.2797C216.224 70.7712 224.004 65.8906 223.828 65.8906C217.727 68.2865 207.824 71.9248 197.215 71.4811C186.605 71.1262 183.864 70.7712 179.266 68.7302Z" fill="white"/>
</svg>
