<svg width="250" height="100" viewBox="0 0 250 100" fill="none" xmlns="http://www.w3.org/2000/svg">
<path d="M243.153 49.6875V58.1561C243.153 59.2714 242.709 60.3413 241.92 61.1301L231.71 71.2943C230.921 72.0741 229.861 72.5184 228.745 72.5184H21.2637C20.1575 72.5184 19.0876 72.0831 18.2988 71.2943L8.08925 61.1301C7.30041 60.3413 6.85613 59.2714 6.85613 58.1561V41.2098C6.85613 40.0945 7.30041 39.0246 8.08925 38.2358L18.3078 28.0807C19.0967 27.3009 20.1575 26.8566 21.2728 26.8566H228.745C229.852 26.8566 230.921 27.3009 231.71 28.0807L241.92 38.2448C242.709 39.0337 243.153 40.1036 243.153 41.2188V49.6875ZM233.714 26.0587C232.381 24.7349 230.613 24.0005 228.727 24.0005H21.2818C19.4049 24.0005 17.6278 24.7349 16.2949 26.0587L6.08543 36.2229C4.76163 37.5376 4 39.3692 4 41.237V58.1471C4 60.0149 4.76163 61.8374 6.08543 63.1521L16.2949 73.3163C17.6278 74.6401 19.4049 75.3745 21.2818 75.3745H228.718C230.604 75.3745 232.372 74.6401 233.705 73.3163L243.915 63.1521C245.238 61.8374 246 60.0058 246 58.138V41.2279C246 39.3601 245.238 37.5376 243.915 36.2138L233.705 26.0496L233.714 26.0587Z" fill="#FFE771"/>
<path d="M54.5487 46.2425L52.3091 40.8748C52.2275 40.6753 51.9827 40.6118 51.8104 40.7388L49.1266 42.7426L49.0994 39.3243C49.0994 38.2725 48.4647 37.3205 47.4945 36.9125L41.882 34.5369C41.6644 34.4462 41.4286 34.6004 41.4286 34.8361V37.0757C41.4286 37.9008 41.8095 38.6715 42.4532 39.1702L48.238 43.6312V53.1063L37.9288 62.128L27.6195 53.1063V43.6312L33.4043 39.1702C34.0481 38.6715 34.4289 37.9008 34.4289 37.0757V34.8361C34.4289 34.6004 34.1931 34.4372 33.9755 34.5369L28.363 36.9125C27.3928 37.3205 26.7672 38.2725 26.7581 39.3243L26.7309 42.7426L24.0471 40.7388C23.8748 40.6118 23.63 40.6753 23.5484 40.8748L21.3088 46.2425C20.8917 47.2399 21.1184 48.3823 21.88 49.144L25.8696 53.1153H21.9979C21.7622 53.1063 21.608 53.3511 21.6987 53.5687L24.1015 59.2809C24.3916 59.9791 24.9719 60.5141 25.6882 60.7589L37.0855 64.5852C37.6205 64.7665 38.2098 64.7665 38.7448 64.5852L50.1421 60.7589C50.8584 60.5231 51.4296 59.9791 51.7288 59.2809L54.1316 53.5687C54.2223 53.3511 54.0681 53.1063 53.8324 53.1063H49.9608L53.9503 49.144C54.7119 48.3823 54.9386 47.2399 54.5215 46.2425" fill="#FFE771"/>
<path d="M106.041 54.0942H96.6478V41.6179C96.6478 41.3549 96.4302 41.1373 96.1672 41.1373H91.4161C91.1532 41.1373 90.9355 41.3549 90.9355 41.6179V57.7754C90.9355 58.0383 91.1532 58.256 91.4161 58.256H105.552C105.787 58.256 105.987 58.0837 106.023 57.8479L106.513 54.6473C106.558 54.3571 106.331 54.0942 106.041 54.0942Z" fill="#FFE771"/>
<path d="M142.038 41.1284H135.935C135.754 41.1284 135.591 41.2282 135.509 41.3914L130.132 51.9908L125.227 41.4095C125.146 41.2372 124.982 41.1284 124.792 41.1284H118.545C118.282 41.1284 118.064 41.346 118.064 41.609V57.7665C118.064 58.0294 118.282 58.247 118.545 58.247H123.296C123.559 58.247 123.776 58.0294 123.776 57.7665V48.6541L128.328 57.975C128.41 58.1382 128.573 58.247 128.763 58.247H131.529C131.71 58.247 131.873 58.1473 131.955 57.9841L136.815 48.4637V57.7665C136.815 58.0294 137.033 58.247 137.295 58.247H142.047C142.31 58.247 142.527 58.0294 142.527 57.7665V41.609C142.527 41.346 142.31 41.1284 142.047 41.1284" fill="#FFE771"/>
<path d="M157.986 48.8082H151.739V45.2902H157.986C159.428 45.2902 159.727 46.0428 159.727 47.0492C159.727 48.0557 159.428 48.8082 157.986 48.8082ZM158.068 41.1284H146.507C146.244 41.1284 146.027 41.346 146.027 41.609V57.7665C146.027 58.0294 146.244 58.247 146.507 58.247H151.258C151.458 58.247 151.63 58.1292 151.703 57.9569C151.73 57.9025 151.739 57.839 151.739 57.7665V52.97H158.068C163.698 52.97 165.475 50.3224 165.475 47.0492C165.475 43.776 163.689 41.1284 158.068 41.1284Z" fill="#FFE771"/>
<path d="M181.434 54.4117C181.371 54.4117 181.316 54.4117 181.262 54.4117H173.754V51.5283H181.262C181.316 51.5283 181.371 51.5283 181.434 51.5283C182.613 51.5283 182.858 52.1449 182.858 52.97C182.858 53.7951 182.613 54.4117 181.434 54.4117ZM173.754 44.9729H180.31C181.362 45.0001 181.588 45.5713 181.588 46.3329C181.588 47.0945 181.362 47.6658 180.31 47.693H173.754V44.9729ZM184.889 48.8898C186.693 48.1735 187.346 46.8316 187.346 45.2902C187.346 42.9962 185.895 41.1284 181.325 41.1284H168.532C168.269 41.1284 168.051 41.346 168.051 41.609V57.7665C168.051 58.0294 168.269 58.247 168.532 58.247H182.477C187.146 58.247 188.624 56.0981 188.624 53.4506C188.624 51.3289 187.672 49.5245 184.898 48.8898" fill="#FFE771"/>
<path d="M207.429 41.1285H191.652C191.389 41.1285 191.172 41.3461 191.172 41.609V57.7665C191.172 58.0295 191.389 58.2471 191.652 58.2471H207.429C207.692 58.2471 207.909 58.0295 207.909 57.7665V54.8923C207.909 54.6293 207.692 54.4117 207.429 54.4117H196.884V51.5284H203.829C204.065 51.5284 204.264 51.3561 204.301 51.1294L204.781 48.2461C204.827 47.956 204.609 47.6839 204.31 47.6839H196.884V44.9638H207.429C207.692 44.9638 207.909 44.7462 207.909 44.4833V41.5999C207.909 41.337 207.692 41.1194 207.429 41.1194" fill="#FFE771"/>
<path d="M228.437 41.1275H221.9C221.9 41.1275 221.827 41.1094 221.791 41.1094H217.04C217.04 41.1094 216.967 41.1094 216.931 41.1275H210.312C210.049 41.1275 209.832 41.3451 209.832 41.6081V44.4914C209.832 44.7543 210.049 44.9719 210.312 44.9719H216.568V57.7565C216.568 58.0195 216.786 58.2371 217.049 58.2371C217.049 58.2371 217.121 58.2552 217.158 58.2552H221.673C221.673 58.2552 221.746 58.2552 221.782 58.2371C222.045 58.2371 222.262 58.0195 222.262 57.7565V44.9719H227.948C228.183 44.9719 228.383 44.7997 228.419 44.573L228.9 41.6897C228.945 41.3995 228.727 41.1275 228.428 41.1275" fill="#FFE771"/>
<path d="M114.066 41.1284H109.314C109.051 41.1284 108.834 41.346 108.834 41.609V57.7665C108.834 58.0294 109.051 58.247 109.314 58.247H114.066C114.329 58.247 114.546 58.0294 114.546 57.7665V41.609C114.546 41.346 114.329 41.1284 114.066 41.1284Z" fill="#FFE771"/>
<path d="M77.3252 54.2468C72.9277 54.2468 71.9213 52.1705 71.9213 49.6045C71.9213 47.0385 72.9277 44.9622 77.3252 44.9622C81.7228 44.9622 82.6295 47.0385 82.6295 49.6045C82.6295 52.1705 81.7137 54.2468 77.3252 54.2468ZM77.3706 40.8094C69.0017 40.8094 66.1727 44.7446 66.1727 49.6045C66.1727 54.4644 69.0017 58.3996 77.3706 58.3996C85.7395 58.3996 88.387 54.4644 88.387 49.6045C88.387 44.7446 85.7304 40.8094 77.3706 40.8094Z" fill="#FFE771"/>
</svg>
