<svg width="250" height="100" viewBox="0 0 250 100" fill="none" xmlns="http://www.w3.org/2000/svg">
<g clip-path="url(#clip0_4301_1440)">
<mask id="mask0_4301_1440" style="mask-type:luminance" maskUnits="userSpaceOnUse" x="4" y="17" width="242" height="66">
<path d="M246 17.3899H4.05493V82.9167H246V17.3899Z" fill="white"/>
</mask>
<g mask="url(#mask0_4301_1440)">
<path d="M4.38655 74.0052L21.4591 22.0954C22.3797 19.2895 25.0577 17.3914 28.0706 17.3914H238.8C243.486 17.3914 246.834 21.9304 245.411 26.3043L228.338 78.214C227.418 81.0201 224.74 82.9181 221.727 82.9181H10.998C6.3114 82.9181 2.96384 78.3791 4.38655 74.0052Z" fill="black"/>
<path d="M226.674 25.8917C223.913 25.8917 221.402 27.6248 220.565 30.2657L206.338 73.51H219.812L232.784 34.1445C234.123 30.0181 231.026 25.8917 226.674 25.8917Z" fill="white"/>
<path d="M133.527 26.8016H91.3481L87.4984 38.438H117.041L79.046 63.774C76.1169 65.672 75.531 69.7158 77.7906 72.3568C79.7154 74.6676 83.1467 75.0802 85.6574 73.4297L123.987 47.9286L115.534 73.4297H129.008L141.06 36.9525C142.65 32.0009 138.884 26.8016 133.527 26.8016Z" fill="#00C7B1"/>
<path d="M29.9987 26.8016L14.6 73.4297H28.0739L39.6231 38.438H67.1567L48.4104 50.9822C45.7324 52.7978 44.8118 56.429 46.5691 59.1524C48.4104 61.8758 52.0928 62.6185 54.8545 60.8029L78.2037 45.2877C86.5725 39.7584 82.5555 26.8841 72.5127 26.8841L29.9987 26.8016Z" fill="white"/>
<path d="M199.387 26.8016H156.957L141.558 73.4297H155.032L166.581 38.438H194.115L169.761 54.6958L184.825 72.4392C186.75 74.75 190.181 75.1626 192.692 73.5121C195.621 71.6141 196.207 67.5703 193.947 64.9293L187.336 57.1717L205.246 45.2877C213.447 39.6759 209.43 26.8016 199.387 26.8016Z" fill="white"/>
</g>
</g>
<defs>
<clipPath id="clip0_4301_1440">
<rect width="241.945" height="65.5268" fill="white" transform="translate(4.05493 17.3899)"/>
</clipPath>
</defs>
</svg>
