<svg width="250" height="100" viewBox="0 0 250 100" fill="none" xmlns="http://www.w3.org/2000/svg">
<path d="M12.7389 65.5931V39.9457H3V33.5625H29.712V39.9457H20.0249V65.5931H12.7389Z" fill="white"/>
<path d="M35.332 65.5931V33.5625H58.3854V39.9042H42.5557V46.1419H55.1218V52.2861H42.5557V59.2099H58.8115V65.5931H35.332Z" fill="white"/>
<path d="M88.8956 65.5931L72.2967 45.9964V65.5931H65.1562V33.5625H69.636L85.9022 52.7746V33.5625H93.0427V65.5931H88.8956Z" fill="white"/>
<path d="M123.205 65.5931L106.595 45.9964V65.5931H99.4648V33.5625H103.934L120.2 52.7746V33.5625H127.34V65.5931H123.205Z" fill="white"/>
<path d="M142.09 33.5625H134.855V65.5931H142.09V33.5625Z" fill="white"/>
<path d="M146.672 61.0795L151.318 56.0374C152.15 56.9314 153.262 57.8151 154.644 58.678C156.037 59.5408 157.659 59.9775 159.509 59.9775C160.247 59.9775 160.964 59.8423 161.661 59.5721C162.356 59.3017 162.949 58.8963 163.407 58.3765C163.874 57.8463 164.102 57.2121 164.102 56.4844C164.102 55.2992 163.531 54.374 162.378 53.6982C161.223 53.0224 159.405 52.3883 156.921 51.7749C154.499 51.172 152.482 50.0907 150.882 48.5625C149.281 47.0238 148.491 45.0382 148.491 42.6055C148.491 40.8173 148.918 39.1748 149.78 37.6881C150.643 36.2015 151.932 34.9955 153.657 34.091C155.383 33.1762 157.555 32.7188 160.174 32.7188C162.346 32.7188 164.176 32.9994 165.662 33.5608C167.148 34.1222 168.333 34.7356 169.227 35.4114C170.12 36.0871 170.745 36.6277 171.097 37.0436L166.93 41.649C166.223 41.1084 165.298 40.4847 164.154 39.7986C163.001 39.1124 161.65 38.7694 160.08 38.7694C159.062 38.7694 158.106 39.0604 157.233 39.653C156.349 40.2456 155.913 40.9525 155.913 41.7946C155.913 42.8862 156.484 43.7595 157.637 44.4352C158.792 45.111 160.371 45.6723 162.378 46.1194C163.937 46.504 165.453 47.0759 166.899 47.8451C168.354 48.6145 169.538 49.6853 170.463 51.0575C171.388 52.4299 171.857 54.2284 171.857 56.4324C171.857 58.3557 171.316 60.0607 170.224 61.5681C169.144 63.0756 167.668 64.2607 165.818 65.1236C163.967 65.9865 161.889 66.4231 159.592 66.4231C157.481 66.4231 155.622 66.1633 153.989 65.6539C152.358 65.1444 150.944 64.479 149.728 63.6577C148.533 62.826 147.504 61.9736 146.672 61.0795Z" fill="white"/>
<path d="M184.515 33.5625H177.281V65.5931H184.515V33.5625Z" fill="white"/>
<path d="M244.632 41.6093C246.196 45.9908 246.425 50.738 245.292 55.25C244.157 59.762 241.709 63.8362 238.259 66.957C234.808 70.0778 230.51 72.105 225.907 72.7821C221.304 73.4591 216.604 72.7557 212.401 70.7606C208.198 68.7657 204.681 65.5689 202.296 61.5746C199.91 57.5804 198.763 52.9683 198.999 48.3219C199.235 43.6754 200.844 39.2035 203.623 35.4717C206.401 31.74 210.224 28.9163 214.608 27.3579C217.517 26.3235 220.602 25.8726 223.685 26.0309C226.77 26.1892 229.792 26.9536 232.58 28.2804C235.369 29.6072 237.868 31.4705 239.936 33.7636C242.003 36.0568 243.6 38.735 244.632 41.6452" fill="#F0DE02"/>
<path d="M210.913 58.3804L211.347 59.5764L209.379 60.294L204.848 47.2937L206.815 46.5762L208.606 51.7189C208.81 51.0911 209.159 50.523 209.623 50.0627C210.089 49.6025 210.655 49.2639 211.276 49.0757C211.859 48.847 212.485 48.7519 213.108 48.7974C213.731 48.8428 214.337 49.0277 214.883 49.3388C216 50.0138 216.849 51.0705 217.277 52.3224C217.706 53.5743 217.688 54.9406 217.225 56.1798C217.007 56.7827 216.662 57.3285 216.212 57.7774C215.762 58.2264 215.22 58.5672 214.626 58.7751C214.026 59.0287 213.375 59.1307 212.729 59.0724C212.083 59.0141 211.46 58.7972 210.913 58.4402M215.246 55.5698C215.565 54.7855 215.588 53.9077 215.308 53.1074C215.029 52.3072 214.469 51.6417 213.735 51.2404C213.377 51.0493 212.983 50.9377 212.58 50.913C212.176 50.8883 211.771 50.951 211.393 51.097C210.849 51.2984 210.368 51.6437 209.998 52.0976C209.627 52.5514 209.381 53.0976 209.285 53.6802L210.269 56.5147C210.699 56.9165 211.228 57.1921 211.799 57.3121C212.37 57.4321 212.962 57.3922 213.512 57.1964C213.899 57.0641 214.255 56.8512 214.558 56.5712C214.861 56.2913 215.103 55.9503 215.269 55.5698" fill="#0C1024"/>
<path d="M219.961 47.3835C220.223 46.7917 220.609 46.2629 221.091 45.8326C221.573 45.4021 222.142 45.0801 222.758 44.8878C223.578 44.5669 224.481 44.5303 225.324 44.7839C226.102 45.0263 226.809 45.4563 227.383 46.0364C227.957 46.6166 228.38 47.3289 228.616 48.1113L228.789 48.6197L222.045 51.0229C222.804 52.4325 224.415 52.86 226.211 52.1783C227.209 51.8274 228.09 51.203 228.755 50.3759L229.342 52.0166C228.594 52.9835 227.564 53.6906 226.395 54.0385C225.139 54.5413 223.738 54.5413 222.482 54.0385C221.866 53.7772 221.315 53.3845 220.865 52.8877C220.416 52.391 220.08 51.8019 219.88 51.1616C219.645 50.5617 219.53 49.9207 219.544 49.2759C219.558 48.6312 219.7 47.9957 219.961 47.4066M226.303 47.8571C226.093 47.3136 225.68 46.8741 225.152 46.6324C224.85 46.497 224.522 46.4271 224.19 46.4271C223.859 46.4271 223.532 46.497 223.23 46.6324C222.618 46.8182 222.1 47.2312 221.781 47.7874C221.463 48.3434 221.368 49.0007 221.515 49.6249L226.303 47.8571Z" fill="#0C1024"/>
<path d="M231.158 43.7813L229.049 44.4568L228.363 42.7099L230.486 42.0227L229.463 39.4371L231.637 38.7383L232.659 41.3355L235.79 40.3339L236.463 42.0576L233.345 43.0593L234.988 47.2521C235.026 47.4572 235.118 47.6512 235.256 47.8179C235.395 47.9847 235.575 48.1192 235.783 48.2103C235.99 48.3015 236.219 48.3467 236.45 48.3421C236.681 48.3375 236.908 48.2832 237.11 48.1839C237.634 48.0217 238.105 47.7456 238.482 47.3802L239.142 49.0689C238.611 49.6279 237.909 50.0331 237.123 50.2337C236.735 50.4029 236.311 50.4927 235.88 50.4963C235.449 50.4999 235.022 50.4174 234.631 50.2548C234.24 50.0921 233.894 49.8533 233.618 49.5555C233.342 49.2579 233.142 48.9086 233.034 48.5333L231.158 43.7813Z" fill="#0C1024"/>
</svg>
