<svg width="250" height="100" viewBox="0 0 250 100" fill="none" xmlns="http://www.w3.org/2000/svg">
<g clip-path="url(#clip0_4301_1262)">
<rect x="2.07373" y="22.5999" width="244.813" height="55.4979" rx="27.4896" fill="#141419"/>
<path fill-rule="evenodd" clip-rule="evenodd" d="M29.8081 26.4827C16.639 26.4827 5.95954 37.1622 5.95954 50.3313C5.95954 63.5004 16.639 74.1798 29.8081 74.1798H220.187C233.356 74.1798 244.035 63.5004 244.035 50.3313C244.035 37.1622 233.356 26.4827 220.187 26.4827H29.8081ZM220.571 20.5232C236.852 20.7358 250 34.0035 250 50.3365C250 66.6695 236.878 79.9578 220.571 80.1705H29.4295C13.1432 79.9578 0 66.6902 0 50.3365C0 33.9827 13.361 20.5232 29.8081 20.5232H220.571Z" fill="#FF6A13"/>
<path d="M220.095 69.3011C209.654 69.3011 201.158 60.8 201.158 50.3591C201.158 39.9183 209.659 31.4172 220.095 31.4172C230.53 31.4172 239.031 39.9183 239.031 50.3591C239.031 60.8 230.53 69.3011 220.095 69.3011Z" fill="#FF6A13"/>
<path d="M113.78 35.441C114.667 35.441 115.243 36.162 115.072 37.023L111.27 58.5168H121.156C122.043 58.5168 122.686 59.2377 122.52 60.0987L121.898 63.6724C121.726 64.5593 120.891 65.2543 120.004 65.2543H104.512C103.625 65.2543 103.049 64.5334 103.22 63.6724L107.914 37.023C108.085 36.1361 108.92 35.441 109.807 35.441H113.78Z" fill="white"/>
<path d="M192.044 35.441C192.931 35.441 193.507 36.1361 193.335 36.9971L192.687 40.5707C192.516 41.4576 191.681 42.1527 190.794 42.1527H179.087L178.206 47.1371H189.072C189.959 47.1371 190.535 47.8581 190.363 48.719L189.788 51.9089C189.616 52.7958 188.781 53.4908 187.9 53.4908H177.085L176.204 58.4753H187.998C188.885 58.4753 189.461 59.217 189.29 60.0832L188.667 63.6775C188.418 64.9535 187.184 65.2595 186.323 65.2595H169.419C168.532 65.2595 167.957 64.5385 168.128 63.6775L172.848 37.0282C173.019 36.1412 173.854 35.4462 174.736 35.4462H192.049L192.044 35.441Z" fill="white"/>
<path d="M66.0058 65.2543H62.0328C61.1459 65.2543 60.5701 64.5334 60.7413 63.6724L65.4612 37.023C65.6324 36.1361 66.4674 35.441 67.3544 35.441H71.3274C72.2143 35.441 72.79 36.162 72.6189 37.023L67.899 63.6724C67.7278 64.5334 66.872 65.2543 66.0058 65.2543Z" fill="white"/>
<path d="M95.2699 37.0027L92.4691 52.8896L86.8674 36.9042C86.5562 35.9913 85.7211 35.4415 84.689 35.4415H79.995C79.1081 35.4415 78.273 36.1624 78.1018 37.0234L73.3819 63.6728C73.2108 64.5598 73.7865 65.2548 74.6734 65.2548H78.6464C79.5334 65.2548 80.3684 64.5338 80.5396 63.6728L83.3404 47.8066L88.7554 63.7921C89.0666 64.705 89.9016 65.2548 90.9338 65.2548H95.8197C96.7066 65.2548 97.5417 64.5338 97.7128 63.6728L102.428 37.0234C102.599 36.1365 102.023 35.4415 101.136 35.4415H97.1371C96.2761 35.4207 95.4359 36.1106 95.2699 36.9975V37.0027Z" fill="white"/>
<path d="M46.1514 54.7821V36.6857C46.1514 35.9906 45.5756 35.4409 44.9065 35.4409H39.9947C39.3723 35.4409 38.7966 35.8039 38.5321 36.3745L30.2489 54.7095V36.6857C30.2489 35.9906 29.6991 35.4409 29.0041 35.4409H24.3568C23.6617 35.4409 23.1119 35.9906 23.1119 36.6857V64.0041C23.1119 64.6992 23.6617 65.249 24.3568 65.249H30.8194C31.4418 65.249 32.0175 64.8651 32.2821 64.2894L40.2074 46.2448V64.0041C40.2074 64.6992 40.7572 65.249 41.4522 65.249H47.531C48.1534 65.249 48.7032 64.8859 48.9677 64.3361L61.613 37.2095C61.9968 36.3693 61.4003 35.4357 60.4875 35.4357H55.9387C55.3163 35.4357 54.7406 35.7987 54.476 36.3693L46.1462 54.777L46.1514 54.7821Z" fill="white"/>
<path d="M130.929 65.2543H126.956C126.069 65.2543 125.493 64.5334 125.664 63.6724L130.384 37.023C130.555 36.1361 131.39 35.441 132.272 35.441H136.25C137.137 35.441 137.713 36.162 137.542 37.023L132.822 63.6724C132.651 64.5334 131.816 65.2543 130.929 65.2543Z" fill="white"/>
<path d="M160.192 37.0027L157.391 52.8896L151.789 36.9042C151.478 35.9913 150.643 35.4415 149.611 35.4415H144.917C144.03 35.4415 143.195 36.1624 143.029 37.0234L138.309 63.6728C138.138 64.5598 138.713 65.2548 139.6 65.2548H143.579C144.466 65.2548 145.301 64.5338 145.467 63.6728L148.267 47.8066L153.682 63.7921C153.994 64.705 154.829 65.2548 155.861 65.2548H160.747C161.634 65.2548 162.469 64.5338 162.64 63.6728L167.355 37.0234C167.526 36.1365 166.95 35.4415 166.063 35.4415H162.064C161.203 35.4207 160.363 36.1106 160.197 36.9975L160.192 37.0027Z" fill="white"/>
</g>
<defs>
<clipPath id="clip0_4301_1262">
<rect width="250" height="59.6473" fill="white" transform="translate(0 20.5228)"/>
</clipPath>
</defs>
</svg>
