<svg width="250" height="100" viewBox="0 0 250 100" fill="none" xmlns="http://www.w3.org/2000/svg">
<g clip-path="url(#clip0_4301_1343)">
<path d="M25.3852 56.3255C25.2649 56.5221 25.1597 56.7272 25.0707 56.9393C24.451 58.1565 24.3382 59.5627 24.7561 60.8601C27.0045 59.0354 29.528 57.5646 32.2362 56.5003C29.9808 56.0466 27.6615 55.9874 25.3852 56.3255Z" fill="white"/>
<path d="M27.5771 63.6703C28.1936 63.9378 28.8359 64.1434 29.4945 64.2842C30.1862 61.9853 31.1315 59.7674 32.3137 57.67C29.7599 58.688 27.3823 60.0884 25.2656 61.8215C25.8415 62.6409 26.6433 63.2822 27.5771 63.6703Z" fill="white"/>
<path d="M35.5286 63.9401C34.7063 61.6709 34.0394 59.6323 33.5316 57.8654C32.2989 59.9336 31.3255 62.1407 30.6328 64.4385C32.2818 64.5513 33.9383 64.3827 35.5286 63.9401Z" fill="white"/>
<path d="M33.0664 50.8646C33.2634 52.055 33.5742 53.517 34.044 55.2468C35.4675 53.4815 37.0683 51.8613 38.8223 50.4108C36.893 50.1462 34.928 50.3011 33.0664 50.8646Z" fill="white"/>
<path d="M54.8031 70.5501C53.406 69.0518 51.9286 67.6275 50.3772 66.2833C47.9619 69.5981 44.5933 72.1292 40.7031 73.5522C41.6808 75.7841 42.8175 78.1277 44.0339 80.6201C48.7772 78.6993 52.6182 75.1078 54.8031 70.5501Z" fill="white"/>
<path d="M41.1726 51.0961C40.8998 50.9808 40.5853 50.8654 40.2708 50.7501C38.4744 52.1185 36.8331 53.6725 35.375 55.3852C38.1855 54.5476 41.0945 54.07 44.0297 53.9642L43.9919 53.8861C43.747 53.2532 43.3696 52.6779 42.8839 52.1973C42.3983 51.7167 41.8153 51.3415 41.1726 51.0961Z" fill="white"/>
<path d="M49.5127 65.5542C47.4244 63.8468 45.2119 62.2915 42.8928 60.9005C41.2679 62.5433 39.286 63.8047 37.0952 64.5907H37.0156C37.9175 66.9752 38.9747 69.5904 40.2289 72.4734C43.9752 71.1599 47.2173 68.7436 49.5127 65.5542Z" fill="white"/>
<path d="M39.171 72.9356C37.8788 70.0117 36.8216 67.4002 35.9197 65.0157C34.0931 65.5502 32.1786 65.7333 30.2813 65.5551C29.5303 68.1896 28.9806 70.8755 28.6367 73.5903C32.1455 74.288 35.7798 74.0621 39.171 72.9356Z" fill="white"/>
<path d="M72.1498 20.3756C72.7677 19.9126 73.2865 19.3345 73.6766 18.6745C74.0667 18.0145 74.3205 17.2855 74.4234 16.5292V16.4138H74.4613C74.5931 14.9305 74.1612 13.4517 73.2487 12.2623C72.7771 11.6558 72.1882 11.1465 71.5159 10.7635C70.8436 10.3806 70.101 10.1314 69.3306 10.0304H69.2131C67.7051 9.8693 66.1916 10.282 64.9843 11.1836C63.7441 12.1252 62.9281 13.5057 62.7107 15.03V15.1825C62.5332 16.6867 62.9691 18.1988 63.9233 19.3885C64.8775 20.5782 66.2724 21.349 67.8035 21.5325H67.921V21.5697C69.4343 21.7169 70.9475 21.2896 72.1498 20.3756ZM65.3291 18.2217C64.7244 17.3968 64.4334 16.3898 64.5068 15.376L64.5447 15.2978V15.2606C64.6817 14.2308 65.2262 13.2953 66.0604 12.6567C66.9008 12.063 67.9265 11.7774 68.9593 11.8494L69.0767 11.8866C70.1258 12.0211 71.0787 12.5556 71.7292 13.3746C72.3339 14.1996 72.6249 15.2066 72.5515 16.2204L72.5136 16.3357C72.4538 16.8479 72.2886 17.3428 72.0281 17.7905C71.7675 18.2381 71.417 18.6291 70.9979 18.9397C70.16 19.5383 69.1324 19.8245 68.0991 19.7469L68.0195 19.7097H67.9816C67.4605 19.6505 66.9571 19.4881 66.5018 19.2324C66.0465 18.9766 65.6489 18.6328 65.3329 18.2217H65.3291Z" fill="white"/>
<path d="M9.32812 29.4461C9.32812 30.7086 9.70948 31.9428 10.424 32.9926C11.1385 34.0423 12.154 34.8605 13.3422 35.3437C14.5303 35.8268 15.8378 35.9532 17.0991 35.7069C18.3605 35.4606 19.5191 34.8526 20.4285 33.9599C21.3379 33.0671 21.9571 31.9297 22.208 30.6914C22.4589 29.4532 22.3302 28.1697 21.838 27.0032C21.3459 25.8368 20.5124 24.8399 19.4431 24.1384C18.3738 23.437 17.1166 23.0626 15.8306 23.0626C14.1066 23.0646 12.4539 23.7378 11.2349 24.9345C10.0158 26.1312 9.33013 27.7537 9.32812 29.4461Z" fill="white"/>
<path d="M24.9535 73.513C22.8147 72.5607 20.9559 71.0929 19.55 69.2462C18.9776 70.4782 18.5443 71.7681 18.2578 73.0927C20.3665 76.2996 23.3656 78.8476 26.9012 80.4359C26.9808 80.4731 27.0982 80.514 27.174 80.5512C27.1153 78.4974 27.1938 76.4421 27.409 74.3984C26.5628 74.1834 25.7403 73.8869 24.9535 73.513Z" fill="white"/>
<path d="M56.4074 57.8626C55.3344 57.2822 54.2062 56.8062 53.0388 56.4415C53.1169 57.0025 53.1561 57.568 53.1562 58.1341C53.1508 60.1049 52.6964 62.0496 51.8262 63.8257C51.5912 64.357 51.3163 64.8706 51.0039 65.362C52.5689 66.7087 54.0353 68.0925 55.3123 69.454C56.8433 65.783 57.2246 61.7473 56.4074 57.8626Z" fill="white"/>
<path d="M50.1014 64.5929C50.3363 64.1688 50.5712 63.7485 50.7683 63.3244C51.881 61.0545 52.2376 58.4984 51.7876 56.0184C49.7089 55.4408 47.5627 55.1307 45.4027 55.0958V55.386C45.3834 56.3816 45.1565 57.3628 44.7357 58.269C44.4465 58.9001 44.0786 59.4936 43.6406 60.0359C45.9008 61.4038 48.0597 62.9266 50.1014 64.5929Z" fill="white"/>
<path d="M36.6613 63.5888C38.6302 62.9024 40.4217 61.8001 41.9095 60.3599C39.5718 59.0439 37.1052 57.9621 34.5469 57.131C35.0572 58.9761 35.762 61.1287 36.6613 63.5888Z" fill="white"/>
<path d="M29.1738 65.3635C28.4561 65.2327 27.7583 65.0127 27.0973 64.7088C26.0333 64.2335 25.1052 63.5077 24.3955 62.5958C22.6798 64.1909 21.2377 66.0475 20.125 68.0939C21.4196 70.0416 23.2626 71.5782 25.43 72.517C26.1121 72.8302 26.8193 73.0877 27.5444 73.287C27.879 70.6086 28.4237 67.9595 29.1738 65.3635Z" fill="white"/>
<path d="M35.957 56.4053C38.2748 57.2413 40.5161 58.2692 42.6565 59.478C43.0726 58.9693 43.4274 58.415 43.7137 57.8263C44.1355 56.9785 44.3249 56.0374 44.2632 55.0958C41.4506 55.1994 38.6613 55.6391 35.957 56.4053Z" fill="white"/>
<path d="M42.9741 81.0854C41.7198 78.5483 40.6247 76.201 39.6054 73.9728C36.0443 75.1853 32.2179 75.4422 28.5217 74.7168C28.3192 76.8247 28.2534 78.9432 28.3247 81.0593C33.0491 82.7791 38.2434 82.7884 42.9741 81.0854Z" fill="white"/>
<path d="M43.4421 82.0841C38.5982 83.8438 33.2822 83.8977 28.4023 82.2366C28.5118 83.8953 28.7653 85.5418 29.1602 87.1582C32.0668 88.5352 35.2545 89.245 38.4819 89.2339H38.5993C41.2834 89.2377 43.9429 88.7324 46.4318 87.7459C45.3733 85.7842 44.3944 83.9007 43.4951 82.0953L43.4421 82.0841Z" fill="white"/>
<path d="M50.1367 50.3243C51.1369 51.4051 51.9096 52.6693 52.4103 54.0443L52.7627 55.0822C53.876 55.4281 54.9625 55.852 56.0139 56.3507C55.9343 56.0419 55.8169 55.7741 55.7411 55.4653C54.1996 53.4379 52.3017 51.6969 50.1367 50.3243Z" fill="white"/>
<path d="M74.8523 11.759L79.5131 17.6031C79.4752 17.871 79.2782 19.3701 79.1986 19.6789C76.4551 29.6744 71.5594 35.9798 65.686 39.1715C65.6481 39.1715 65.6481 39.2087 65.6064 39.2087C56.7546 43.9368 46.8456 41.2063 37.6793 35.2879C37.6793 35.2879 44.9661 34.1719 50.722 37.1702C55.9323 39.8634 54.5113 40.7451 58.4787 39.9787C53.0752 31.2889 43.7005 29.7525 33.3746 32.0589C31.9416 30.7732 30.5936 29.399 29.339 27.9446H24.6289C24.9434 28.2534 26.8608 30.3291 29.8771 32.9815C24.1591 34.8415 17.6187 38.3271 10.1387 43.8996L4 48.211H11.9916C20.6085 41.4816 27.8536 37.8286 34.0415 36.4076C40.5819 41.4816 49.6686 46.8644 58.4408 46.4813C63.257 53.7092 65.4131 62.8491 66.2733 68.2059C66.3483 69.0718 66.3749 69.9411 66.3529 70.8099H74.8523V68.6263H68.4673C68.0353 64.0879 66.2733 54.4011 61.692 46.0572C69.0546 44.4055 75.9095 38.022 80.4149 23.0268C80.4528 22.8743 82.0216 17.4469 82.0216 17.4469L76.2619 10.2599L74.8523 11.759Z" fill="white"/>
<path d="M57.9757 61.8581C57.9644 64.7683 57.3521 67.646 56.1758 70.3173C57.2295 71.4729 58.2236 72.6797 59.1542 73.9331C60.6833 68.8254 60.1654 63.337 57.7067 58.5919C57.8755 59.6729 57.9654 60.7644 57.9757 61.8581Z" fill="white"/>
<path d="M44.5391 81.6619C45.4409 83.4698 46.4337 85.3149 47.4379 87.2753C50.0382 86.1136 52.3764 84.4546 54.316 82.3953C56.2555 80.3361 57.7574 77.9179 58.7338 75.2821C57.8319 74.0508 56.8164 72.7823 55.6379 71.4357C53.3002 76.0356 49.3634 79.6629 44.5391 81.6619Z" fill="white"/>
<path d="M32.6328 47.7137C32.6707 48.2122 32.7503 48.9041 32.8678 49.7523C35.1825 49.0666 37.6397 48.9871 39.9954 49.5217C41.0715 48.7407 42.2271 48.0712 43.4437 47.524C41.8145 47.1383 40.1442 46.9448 38.4683 46.9474C36.4969 46.9435 34.5339 47.2013 32.6328 47.7137Z" fill="white"/>
<path d="M26.2461 55.0576C28.4477 54.8473 30.6696 54.9905 32.8243 55.4817C32.3923 53.83 32.0664 52.4053 31.8846 51.2521C29.7025 52.0226 27.7603 53.3334 26.2461 55.0576Z" fill="white"/>
<path d="M45.1262 48.0587C43.7906 48.5305 42.5261 49.1775 41.3672 49.9819C41.4468 50.0191 41.5642 50.0601 41.64 50.0973C43.202 50.7533 44.4409 51.9829 45.0921 53.5234C45.13 53.6759 45.2095 53.8321 45.2474 53.9846C47.3451 54.0173 49.4329 54.2755 51.4732 54.7547C51.4283 54.6572 51.4014 54.5526 51.3937 54.4459C50.2948 51.5555 48.025 49.3644 45.1262 48.0587Z" fill="white"/>
<path d="M20.5273 56.3616C21.8843 55.8668 23.2883 55.5067 24.7183 55.2865C26.1658 53.0955 28.6743 51.2504 31.6906 50.1716L31.7702 50.1344C31.6527 49.3271 31.5731 48.6464 31.5352 48.0958C27.0173 49.5459 23.1357 52.4606 20.5273 56.3616Z" fill="white"/>
<path d="M19.6281 57.7457C19.3932 58.1177 19.1962 58.5157 19.0029 58.8989C18.2368 61.2295 18.2781 63.7435 19.1204 66.0486C19.2378 66.3574 19.3932 66.6624 19.4993 66.9712C20.6376 64.9653 22.0916 63.1486 23.8077 61.5884C23.7496 61.467 23.6978 61.3429 23.6524 61.2164C23.3858 60.453 23.2763 59.6452 23.3303 58.84C23.3843 58.0347 23.6007 57.248 23.9669 56.5255C22.5092 56.8132 21.0902 57.2651 19.738 57.8721L19.6281 57.7457Z" fill="white"/>
<path d="M26.442 81.4718C23.0816 79.9588 20.1695 77.6299 17.9805 74.7052V74.7424C19.6612 79.73 23.1735 83.9246 27.8326 86.5087C27.5231 84.9596 27.3143 83.3928 27.2074 81.8178C26.9876 81.7025 26.7148 81.5871 26.442 81.4718Z" fill="white"/>
<path d="M18.1005 66.3985C17.7012 65.5096 17.4627 64.5592 17.3957 63.59C17.0791 65.05 16.9216 66.5389 16.9259 68.0316V68.0688C16.9239 69.0653 17.0024 70.0605 17.1608 71.0448C17.2783 71.2754 17.3957 71.5433 17.5132 71.7888C17.867 70.5429 18.3389 69.3324 18.9228 68.173C18.5833 67.6129 18.3076 67.0178 18.1005 66.3985Z" fill="white"/>
<path d="M216.349 30.7325H208.027V71.284H216.349V30.7325Z" fill="white"/>
<path d="M192.561 54.373L171.686 30.8776H167.457V71.284H175.919V47.9263L196.646 71.284H200.879V30.7325H192.561V54.373Z" fill="white"/>
<path d="M134.906 71.2845H160.45V63.1154H143.228V53.5142H160.45V45.4902H143.228V38.7571H160.594V30.588H134.906V71.2845Z" fill="white"/>
<path d="M222.332 38.8991H230.506V71.2815H238.827V38.8991H247V30.8751H222.332V38.8991Z" fill="white"/>
<path d="M104.543 38.8984H116.949L103.523 67.1218V71.4221H127.604V63.3981H114.323L127.604 35.316V31.0157H104.543V38.8984Z" fill="white"/>
</g>
<defs>
<clipPath id="clip0_4301_1343">
<rect width="243" height="79.2391" fill="white" transform="translate(4 10)"/>
</clipPath>
</defs>
</svg>
